<?xml version="1.0" standalone="no"?>
<!DOCTYPE svg PUBLIC "-//W3C//DTD SVG 1.1//EN" "http://www.w3.org/Graphics/SVG/1.1/DTD/svg11.dtd" >
<svg xmlns="http://www.w3.org/2000/svg">
<metadata></metadata>
<defs>
<font id="ms_gloriola_ii_stdbold_italic" horiz-adv-x="1126" >
<font-face units-per-em="2048" ascent="1536" descent="-512" />
<missing-glyph horiz-adv-x="481" />
<glyph unicode="&#xfb01;" horiz-adv-x="1300" d="M-229 -408l61 291q88 -18 139 -18q59 0 85 30.5t36 106.5l84 698h-153l59 308h133l16 135q49 410 396 409q94 0 229 -34l-61 -291q-70 18 -117 18t-69.5 -30.5t-33.5 -106.5l-12 -100h676l-123 -1008h-348l84 700h-328l-88 -733q-49 -410 -418 -409q-100 0 -247 34z M905 1276q0 90 64.5 153.5t154.5 63.5q78 0 124 -46t46 -118q0 -90 -62.5 -155.5t-154.5 -65.5q-78 0 -125 47t-47 121z" />
<glyph unicode="&#xfb02;" horiz-adv-x="1392" d="M-229 -408l61 291q88 -18 139 -18q59 0 85 30.5t36 106.5l84 698h-153l59 308h133l16 135q27 215 155 312t407 97q162 0 507 -36l-143 -1180q0 -43 45 -43q43 0 119 16l-8 -291q-166 -39 -279 -38q-109 0 -173 62t-64 169l4 57l119 967l-156 10q-94 0 -137 -32.5 t-54 -114.5l-10 -90h205l-59 -308h-185l-88 -733q-49 -410 -418 -409q-100 0 -247 34z" />
<glyph horiz-adv-x="0" />
<glyph unicode="&#xd;" horiz-adv-x="0" />
<glyph unicode=" "  horiz-adv-x="481" />
<glyph unicode="&#x09;" horiz-adv-x="481" />
<glyph unicode="&#xa0;" horiz-adv-x="481" />
<glyph unicode="!" horiz-adv-x="716" d="M102 145q0 94 65.5 157t151.5 63q78 0 125.5 -47.5t47.5 -120.5q0 -90 -65 -153.5t-155 -63.5q-76 0 -123 47t-47 118zM158 461l100 977h389l-139 -957z" />
<glyph unicode="&#x22;" horiz-adv-x="884" d="M115 770l41 668h329l-123 -668h-247zM547 770l41 668h330l-123 -668h-248z" />
<glyph unicode="#" d="M-23 303l21 307h156l41 217h-144l21 308h182l59 307l301 -8l-57 -299h168l59 307l301 -8l-57 -299h117l-21 -308h-155l-41 -217h143l-20 -307h-183l-59 -307l-301 8l57 299h-168l-59 -307l-301 8l57 299h-117zM457 610h168l41 217h-168z" />
<glyph unicode="$" horiz-adv-x="1220" d="M39 51l106 344q231 -68 445 -67q57 0 94 32.5t37 94.5v14q-4 20 -51 34.5t-116 33t-148.5 45t-147.5 72.5t-113 118t-45 180q0 207 120 334t341 160l27 221l291 21l-29 -234q205 -18 344 -68l-109 -344q-231 68 -444 68q-57 0 -94 -33t-37 -86l2 -22q2 -23 49 -36 t117 -30q252 -63 352 -164.5t100 -251.5q0 -193 -110.5 -325.5t-349.5 -169.5l-27 -221l-289 -21l27 234q-219 20 -342 67z" />
<glyph unicode="%" horiz-adv-x="1669" d="M78 938q0 242 100.5 377t288.5 135q287 0 287 -313q0 -242 -100.5 -377t-288.5 -135q-287 0 -287 313zM262 0l893 1438h264l-893 -1438h-264zM324 924q0 -106 57 -107q33 0 62.5 41t46 113.5t16.5 175.5q0 106 -57 106q-51 0 -88 -84.5t-37 -244.5zM924 303 q0 242 100 377t289 135q287 0 286 -313q0 -242 -100 -377t-289 -135q-286 0 -286 313zM1169 289q0 -106 58 -107q33 0 62.5 41t46 114t16.5 175q0 106 -58 106q-51 0 -88 -84.5t-37 -244.5z" />
<glyph unicode="&#x26;" horiz-adv-x="1323" d="M27 311q0 154 76.5 253.5t213.5 166.5q-168 113 -167 285q0 211 149.5 326.5t417.5 115.5q199 0 459 -72l-107 -344q-215 68 -342 68q-98 0 -144 -33t-46 -82q0 -53 53 -102h733l-59 -348h-168l-88 -721l-392 -21l23 195q-92 -18 -182 -18q-201 0 -315.5 88t-114.5 243z M426 412q0 -86 143 -86l111 10l27 209h-201q-80 -61 -80 -133z" />
<glyph unicode="'" horiz-adv-x="452" d="M115 770l41 668h329l-123 -668h-247z" />
<glyph unicode="(" horiz-adv-x="811" d="M102 571q0 420 174.5 745.5t487.5 500.5l203 -205q-260 -180 -387 -424t-127 -586q0 -209 74.5 -367.5t234.5 -293.5l-252 -205q-193 119 -300.5 329.5t-107.5 505.5z" />
<glyph unicode=")" horiz-adv-x="811" d="M-129 -59q260 180 387 423.5t127 585.5q0 209 -74.5 368t-234.5 294l252 205q193 -119 300 -330t107 -506q0 -420 -174 -745.5t-487 -499.5z" />
<glyph unicode="*" horiz-adv-x="1069" d="M80 999l125 326l256 -131l-4 281l338 20l-76 -295l266 123l84 -313l-297 -54l170 -202l-287 -213l-112 270l-168 -256l-260 180l229 215z" />
<glyph unicode="+" d="M20 565l21 307h348v369l348 21v-390h369l-21 -307h-348v-368l-348 -21v389h-369z" />
<glyph unicode="," horiz-adv-x="548" d="M-63 -334q139 238 139 445q0 98 -27 223l332 28q18 -82 18 -159q0 -125 -41 -253t-143 -312z" />
<glyph unicode="-" horiz-adv-x="686" d="M20 350l60 307h543l-60 -307h-543z" />
<glyph unicode="." horiz-adv-x="548" d="M18 145q0 94 66 157t152 63q78 0 125 -47.5t47 -120.5q0 -90 -64.5 -153.5t-155.5 -63.5q-76 0 -123 47t-47 118z" />
<glyph unicode="/" horiz-adv-x="776" d="M-203 -156l903 1872l306 -8l-906 -1872z" />
<glyph unicode="0" horiz-adv-x="1392" d="M74 545q0 420 193.5 666.5t525.5 246.5q537 0 536 -565q0 -420 -193.5 -666.5t-525.5 -246.5q-536 0 -536 565zM481 551q0 -223 156 -223q125 0 203 147.5t78 405.5q0 229 -156 229q-131 0 -206 -150.5t-75 -408.5z" />
<glyph unicode="1" horiz-adv-x="813" d="M49 905l45 377l404 156h307l-176 -1438h-389l125 1028z" />
<glyph unicode="2" horiz-adv-x="1144" d="M-18 0l20 348q348 209 511 363.5t163 281.5q0 117 -166 117q-123 0 -358 -68l-23 344q279 72 477 72q465 0 465 -389q0 -219 -137.5 -393t-407.5 -328h516l-61 -348h-999z" />
<glyph unicode="3" horiz-adv-x="1134" d="M-35 51l107 344q231 -68 372 -67q209 0 209 118q0 51 -53 99h-291l64 348h229q80 59 80 125q0 92 -164 92q-123 0 -358 -68l-23 344q279 72 477 72q236 0 352.5 -85t116.5 -243q0 -141 -64.5 -235t-184.5 -164q207 -113 206 -309q0 -211 -164.5 -326.5t-453.5 -115.5 q-258 0 -457 71z" />
<glyph unicode="4" horiz-adv-x="1196" d="M-12 248l22 348q156 188 241 390t116 452h387q-33 -258 -119 -445.5t-262 -396.5h241l33 268l393 21l-36 -289h161l-63 -348h-141l-29 -248h-389l28 248h-583z" />
<glyph unicode="5" horiz-adv-x="1114" d="M-14 51l106 344q231 -68 352 -67q104 0 161 43t57 114q0 94 -170 95h-381l106 858h875l-64 -348h-506l-28 -232q100 20 186 21q172 0 270.5 -95.5t98.5 -263.5q0 -256 -164 -398t-463 -142q-233 0 -436 71z" />
<glyph unicode="6" horiz-adv-x="1253" d="M72 514q0 438 208.5 691t546.5 253q203 0 400 -51l-109 -344q-186 41 -219 44t-84 3q-227 0 -299 -266q147 72 297 71q174 0 276.5 -99t102.5 -275q0 -254 -168 -407.5t-455 -153.5q-242 0 -369.5 139t-127.5 395zM481 520q0 -127 36 -170t95 -43q86 0 137.5 55.5 t51.5 137.5q0 110 -127 110q-70 0 -193 -37v-53z" />
<glyph unicode="7" horiz-adv-x="1019" d="M51 1090l64 348h979l-23 -348q-260 -272 -387 -522.5t-162 -567.5h-389q43 344 180.5 602t393.5 488h-656z" />
<glyph unicode="8" horiz-adv-x="1249" d="M20 317q0 270 293 414q-166 111 -166 285q0 121 73 224t201 160.5t300 57.5q223 0 349 -96t126 -252q0 -238 -248 -379q207 -113 207 -309q0 -213 -164 -327.5t-452 -114.5q-250 0 -384.5 86t-134.5 251zM418 397q0 -90 162 -90q94 0 141 32t47 85q0 103 -154 162 q-88 -31 -142 -83t-54 -106zM535 1018q0 -31 22 -75t92 -71q68 23 111 72t43 96q0 33 -26.5 61.5t-96.5 28.5q-68 0 -106.5 -32.5t-38.5 -79.5z" />
<glyph unicode="9" horiz-adv-x="1253" d="M37 31l108 344q186 -41 219.5 -44t84.5 -3q227 0 299 266q-147 -72 -297 -72q-174 0 -276.5 99.5t-102.5 275.5q0 254 168 407.5t454 153.5q236 0 367 -137t131 -397q0 -438 -209 -691t-547 -253q-203 0 -399 51zM463 938q0 -111 127 -111q80 0 190 37l2 54 q0 111 -30.5 161.5t-100.5 50.5q-86 0 -137 -55t-51 -137z" />
<glyph unicode=":" horiz-adv-x="548" d="M18 145q0 94 66 157t152 63q78 0 125 -47.5t47 -120.5q0 -90 -64.5 -153.5t-155.5 -63.5q-76 0 -123 47t-47 118zM100 809q0 94 65.5 156.5t151.5 62.5q78 0 125 -47t47 -121q0 -90 -64.5 -153.5t-154.5 -63.5q-76 0 -123 47t-47 119z" />
<glyph unicode=";" horiz-adv-x="548" d="M-63 -334q139 238 139 445q0 98 -27 223l332 28q18 -82 18 -159q0 -125 -41 -253t-143 -312zM63 809q0 94 66 156.5t152 62.5q78 0 125 -47t47 -121q0 -90 -64.5 -153.5t-155.5 -63.5q-76 0 -123 47t-47 119z" />
<glyph unicode="&#x3c;" d="M61 569l21 308l868 401l113 -287l-645 -272l645 -273l-113 -286z" />
<glyph unicode="=" d="M20 258l21 307h1065l-21 -307h-1065zM20 872l21 308h1065l-21 -308h-1065z" />
<glyph unicode="&#x3e;" d="M63 446l646 273l-646 272l113 287l889 -410l-21 -307l-868 -401z" />
<glyph unicode="?" horiz-adv-x="1064" d="M129 1386q279 72 477 72q227 0 348 -83t121 -247q0 -313 -381 -462l-26 -185l-351 -20l37 373q168 18 245 75.5t77 112.5q0 88 -166 88q-123 0 -358 -68zM262 145q0 94 65.5 157t151.5 63q78 0 125 -47.5t47 -120.5q0 -90 -64.5 -153.5t-154.5 -63.5q-76 0 -123 47 t-47 118z" />
<glyph unicode="@" horiz-adv-x="2060" d="M82 313q0 344 125 593t356.5 380t542.5 131q399 0 615 -205.5t216 -576.5q0 -313 -132 -484t-371 -171q-190 0 -238 174q-86 -86 -186.5 -130t-192.5 -44q-143 0 -226 104t-83 289q0 272 143.5 445t386.5 173q264 0 467 -153l-65 -541q4 -35 37 -35q72 0 108.5 99.5 t36.5 273.5q0 248 -137 371.5t-379 123.5q-340 0 -524.5 -216t-184.5 -601q0 -238 130 -353.5t366 -115.5q172 0 330 70l110 -268q-201 -88 -440 -88q-381 0 -596 196.5t-215 558.5zM850 418q0 -121 57 -121q35 0 94.5 42t126.5 128l23 178q-63 39 -129 39q-72 0 -122 -62.5 t-50 -203.5z" />
<glyph unicode="A" horiz-adv-x="1366" d="M-72 0l574 1427l540 21l232 -1448h-397l-29 236h-428l-86 -236h-406zM545 584h258l-64 526z" />
<glyph unicode="B" horiz-adv-x="1269" d="M23 20l174 1418h649q174 0 273.5 -89t99.5 -233q0 -240 -250 -385q207 -113 207 -309q0 -215 -172.5 -328.5t-491.5 -113.5q-98 0 -253 13t-236 27zM451 336l135 -8q98 0 150 32.5t52 85.5q0 51 -53 99h-260zM518 893h219q82 61 82 127q0 29 -21.5 49.5t-62.5 20.5h-192z " />
<glyph unicode="C" horiz-adv-x="1218" d="M78 559q0 430 201.5 664.5t568.5 234.5q203 0 399 -51l-108 -344q-186 41 -219 44t-84 3q-180 0 -263.5 -127t-83.5 -389q0 -152 64.5 -209t185.5 -57q43 0 76 2t240 45l22 -344q-209 -51 -411 -51q-289 0 -438.5 146t-149.5 433z" />
<glyph unicode="D" horiz-adv-x="1409" d="M25 39l172 1399h557q276 0 431.5 -138.5t155.5 -433.5q0 -424 -222 -655t-632 -231q-225 0 -462 59zM451 338q51 -10 120 -10q174 0 266.5 130t92.5 361q0 270 -223 271h-164z" />
<glyph unicode="E" horiz-adv-x="1140" d="M20 0l177 1438h977l-64 -348h-567l-25 -197h465l-63 -348h-445l-24 -197h587l-61 -348h-957z" />
<glyph unicode="F" horiz-adv-x="1099" d="M20 0l177 1438h977l-64 -348h-567l-35 -281h465l-64 -348h-444l-55 -461h-390z" />
<glyph unicode="G" horiz-adv-x="1366" d="M78 557q0 432 208 666.5t582 234.5q215 0 420 -51l-108 -344q-189 47 -324 47q-367 0 -367 -516q0 -150 62.5 -208t187.5 -58l92 4l21 166h-178l63 348h547l-94 -776q-260 -90 -510 -90q-602 0 -602 577z" />
<glyph unicode="H" horiz-adv-x="1392" d="M20 0l177 1438h389l-68 -545h410l67 545h389l-176 -1438h-389l66 545h-410l-65 -545h-390z" />
<glyph unicode="I" horiz-adv-x="593" d="M20 0l177 1438h389l-176 -1438h-390z" />
<glyph unicode="J" horiz-adv-x="645" d="M-141 -94q111 92 171 175t74 189l144 1168h389l-143 -1168q-23 -190 -104 -320t-267 -269z" />
<glyph unicode="K" horiz-adv-x="1345" d="M20 0l177 1438h389l-72 -580l477 590l447 -21l-594 -710l440 -707l-450 -20l-353 594l-71 -584h-390z" />
<glyph unicode="L" horiz-adv-x="1079" d="M20 0l177 1438h389l-135 -1090h546l-61 -348h-916z" />
<glyph unicode="M" horiz-adv-x="1835" d="M20 0l177 1427l491 21l199 -950l444 950l496 -21l-176 -1427h-369l96 782l-350 -772l-383 -20l-160 792l-96 -782h-369z" />
<glyph unicode="N" horiz-adv-x="1392" d="M20 0l175 1427l360 21l354 -789l97 779h378l-176 -1428l-360 -20l-354 788l-95 -778h-379z" />
<glyph unicode="O" horiz-adv-x="1515" d="M72 575q0 410 214 646.5t564 236.5q293 0 444.5 -151.5t151.5 -444.5q0 -410 -214 -646t-564 -236q-293 0 -444.5 151.5t-151.5 443.5zM477 586q0 -258 211 -258q160 0 256 143t96 381q0 258 -213 258q-158 0 -254 -141.5t-96 -382.5z" />
<glyph unicode="P" horiz-adv-x="1236" d="M20 0l177 1438h524q240 0 376 -105.5t136 -322.5q0 -279 -178 -445t-467 -166l-129 9l-49 -408h-390zM502 758l98 -10q104 0 161.5 55t57.5 151q0 135 -182 136h-94z" />
<glyph unicode="Q" horiz-adv-x="1515" d="M72 575q0 410 214 646.5t564 236.5q293 0 444.5 -151.5t151.5 -444.5q0 -272 -93 -463.5t-253 -296.5q6 -78 36.5 -115.5t71.5 -37.5q25 0 131 31l7 -316q-156 -43 -289 -43q-285 0 -336 361l-53 -2q-293 0 -444.5 151.5t-151.5 443.5zM477 586q0 -258 211 -258 q160 0 256 143t96 381q0 258 -213 258q-158 0 -254 -141.5t-96 -382.5z" />
<glyph unicode="R" horiz-adv-x="1286" d="M20 0l177 1438h503q246 0 385.5 -103.5t139.5 -316.5q0 -332 -256 -490l205 -518l-451 -20l-139 440q-63 0 -121 8l-53 -438h-390zM504 768q47 -10 100 -10q109 0 169.5 55t60.5 158q0 139 -193 139h-96z" />
<glyph unicode="S" horiz-adv-x="1179" d="M18 51l107 344q228 -67 438 -67h6q57 0 94 32.5t37 94.5v14q-4 20 -51 34.5t-115.5 33t-148.5 45t-147.5 72.5t-112.5 118t-45 180q0 242 163 374t472 132q252 0 459 -72l-109 -344q-231 68 -444 68q-57 0 -94.5 -33t-37.5 -86l3 -22q2 -23 49 -36t116 -30 q252 -63 352.5 -164.5t100.5 -251.5q0 -242 -162 -374.5t-473 -132.5q-254 0 -457 71z" />
<glyph unicode="T" horiz-adv-x="1196" d="M72 1090l63 348h1135l-64 -348h-362l-133 -1090h-389l133 1090h-383z" />
<glyph unicode="U" horiz-adv-x="1392" d="M74 399l6 88l117 951h389l-113 -906l-4 -55q0 -76 39 -112.5t145 -36.5q117 0 166 47t64 157l112 906h389l-116 -951q-29 -246 -197 -376.5t-461 -130.5q-264 0 -399 106.5t-137 312.5z" />
<glyph unicode="V" horiz-adv-x="1361" d="M102 1427l396 21l137 -1120l409 1120l400 -21l-576 -1427h-536z" />
<glyph unicode="W" horiz-adv-x="1941" d="M102 1427l396 21l67 -1061l287 1040l451 21l36 -1061l322 1061l362 -21l-516 -1427h-452l-62 780l-250 -780h-473z" />
<glyph unicode="X" horiz-adv-x="1363" d="M-82 10l539 723l-365 694l432 21l193 -408l274 408l465 -21l-541 -720l365 -697l-432 -20l-195 405l-276 -405z" />
<glyph unicode="Y" horiz-adv-x="1363" d="M92 1427l445 21l168 -530l294 530l457 -21l-596 -888l-65 -539h-389l65 539z" />
<glyph unicode="Z" horiz-adv-x="1187" d="M-6 0l20 348l676 742h-588l64 348h1040l-22 -348l-676 -742h588l-62 -348h-1040z" />
<glyph unicode="[" horiz-adv-x="761" d="M61 -164l230 1880h598l-58 -307h-229l-156 -1266h250l-57 -307h-578z" />
<glyph unicode="\" horiz-adv-x="776" d="M25 1708l297 8l454 -1872l-297 -8z" />
<glyph unicode="]" horiz-adv-x="761" d="M-100 -164l55 307h229l156 1266h-250l57 307h578l-229 -1880h-596z" />
<glyph unicode="^" horiz-adv-x="1073" d="M-29 440l435 998h450l188 -998l-382 -20l-78 645l-234 -645z" />
<glyph unicode="_" horiz-adv-x="1019" d="M-121 -326l51 267h1000l-53 -267h-998z" />
<glyph unicode="`" horiz-adv-x="761" d="M199 1458h379l135 -344h-281z" />
<glyph unicode="a" horiz-adv-x="1146" d="M20 393q0 303 152 469t418 166q205 0 485 -102l-112 -926h-349l19 166q-190 -186 -344 -186q-123 0 -196 119.5t-73 293.5zM381 440q0 -127 59 -127q35 0 98.5 45t135.5 136l22 186q-63 41 -135 41q-76 0 -128 -66.5t-52 -214.5z" />
<glyph unicode="b" horiz-adv-x="1144" d="M29 82l178 1450l352 20l-88 -710q190 186 344 186q123 0 195.5 -120t72.5 -294q0 -303 -151.5 -468.5t-417.5 -165.5q-205 0 -485 102zM408 328q63 -41 135 -41q76 0 128 66.5t52 213.5q0 127 -59 127q-35 0 -98.5 -45t-135.5 -135z" />
<glyph unicode="c" horiz-adv-x="923" d="M35 395q0 197 72.5 340.5t204.5 218t298 74.5q141 0 312 -35l-80 -299q-133 27 -228 27q-127 0 -174 -74t-47 -207q0 -72 25.5 -109.5t91.5 -37.5q96 0 289 86l41 -289q-211 -110 -386 -110h-3q-184 0 -300 111t-116 304z" />
<glyph unicode="d" horiz-adv-x="1146" d="M20 393q0 289 148.5 462t374.5 173q96 0 192 -33l66 537l352 20l-190 -1552h-351l21 166q-190 -186 -344 -186q-123 0 -196 119.5t-73 293.5zM381 440q0 -127 59 -127q35 0 98.5 45t135.5 136l22 186q-63 41 -135 41q-76 0 -128 -66.5t-52 -214.5z" />
<glyph unicode="e" horiz-adv-x="989" d="M20 395q0 197 73 340.5t205 218t298 74.5q158 0 255 -77t97 -199q0 -176 -147.5 -286t-415.5 -134v-10q0 -49 78 -50q111 0 321 97l41 -279q-215 -110 -394 -110h-3q-182 0 -295 111.5t-113 303.5zM383 563q98 10 159.5 51t61.5 84q0 45 -57 45t-105.5 -54t-58.5 -126z " />
<glyph unicode="f" horiz-adv-x="794" d="M-229 -408l61 291q88 -18 139 -18q59 0 85 30.5t36 106.5l84 698h-153l59 308h133l16 135q49 409 420 409q98 0 246 -34l-61 -291q-84 18 -140 18q-59 0 -84.5 -30.5t-36.5 -106.5l-12 -100h246l-59 -308h-226l-88 -733q-49 -409 -416 -409h-2q-100 0 -247 34z" />
<glyph unicode="g" horiz-adv-x="1146" d="M2 -367l78 299q230 -67 333 -67h3q88 0 141 43t59 112l17 146q-190 -186 -344 -186q-123 0 -196 119.5t-73 293.5q0 303 152 469t418 166q205 0 485 -102l-106 -873q-31 -242 -186.5 -368.5t-405.5 -126.5q-209 0 -375 75zM381 440q0 -127 59 -127q35 0 98.5 45 t135.5 136l22 186q-63 41 -135 41q-76 0 -128 -66.5t-52 -214.5z" />
<glyph unicode="h" horiz-adv-x="1187" d="M20 0l187 1532l352 20l-88 -710q205 186 387 186q139 0 187.5 -73.5t48.5 -176.5l-7 -82l-83 -696h-349l76 631q0 63 -57 63q-68 0 -244 -180l-61 -514h-349z" />
<glyph unicode="i" horiz-adv-x="552" d="M20 0l121 997l353 21l-125 -1018h-349zM158 1276q0 90 64.5 153.5t154.5 63.5q78 0 124 -46t46 -118q0 -90 -62.5 -155.5t-154.5 -65.5q-78 0 -125 47t-47 121z" />
<glyph unicode="j" horiz-adv-x="604" d="M-139 -240q98 82 153.5 156t67.5 170l111 911l352 21l-115 -932q-23 -174 -96.5 -293t-235.5 -235zM209 1276q0 90 64.5 153.5t154.5 63.5q78 0 124 -46t46 -118q0 -90 -62.5 -155.5t-154.5 -65.5q-78 0 -125 47t-47 121z" />
<glyph unicode="k" horiz-adv-x="1150" d="M20 0l187 1532l352 20l-108 -880l288 346l400 -21l-408 -462l328 -525l-406 -20l-237 399l-47 -389h-349z" />
<glyph unicode="l" horiz-adv-x="645" d="M49 211q0 25 158 1321l352 20l-149 -1216q0 -43 45 -43q43 0 118 16l-8 -291q-162 -38 -272 -38h-6q-109 0 -173.5 62t-64.5 169z" />
<glyph unicode="m" horiz-adv-x="1740" d="M20 0l121 997l353 21l-23 -176q190 186 363 186q190 0 215 -190q211 190 378 190q129 0 173.5 -73.5t44.5 -178.5l-5 -80l-84 -696h-348l74 633q0 61 -51 61q-57 0 -207 -180l-61 -514h-349l74 633q0 61 -51 61q-57 0 -207 -180l-61 -514h-349z" />
<glyph unicode="n" horiz-adv-x="1187" d="M20 0l121 997l353 21l-23 -176q205 186 387 186q139 0 187.5 -73.5t48.5 -176.5l-7 -82l-83 -696h-349l76 631q0 63 -57 63q-68 0 -244 -180l-61 -514h-349z" />
<glyph unicode="o" horiz-adv-x="1093" d="M20 426q0 266 160 434t420 168q432 0 432 -446q0 -266 -159.5 -434t-419.5 -168q-432 0 -433 446zM377 436q0 -149 117 -149q76 0 128 79.5t52 204.5q0 150 -115 150q-76 0 -129 -83t-53 -202z" />
<glyph unicode="p" horiz-adv-x="1144" d="M-33 -432l174 1429l353 21l-23 -176q190 186 344 186q123 0 195.5 -120t72.5 -294q0 -289 -148.5 -461.5t-373.5 -172.5q-96 0 -192 32l-52 -424zM408 328q63 -41 135 -41q76 0 128 66.5t52 213.5q0 127 -59 127q-35 0 -98.5 -45t-135.5 -135z" />
<glyph unicode="q" horiz-adv-x="1146" d="M20 393q0 303 152 469t418 166q205 0 485 -102l-164 -1338l-350 -20l72 598q-190 -186 -344 -186q-123 0 -196 119.5t-73 293.5zM381 440q0 -127 59 -127q35 0 98.5 45t135.5 136l22 186q-63 41 -135 41q-76 0 -128 -66.5t-52 -214.5z" />
<glyph unicode="r" horiz-adv-x="860" d="M20 0l121 997l353 21l-23 -178q180 188 311 188q47 0 99 -22l-84 -371q-82 29 -133 29q-53 0 -106.5 -37t-129.5 -127l-59 -500h-349z" />
<glyph unicode="s" horiz-adv-x="942" d="M20 29l84 284q150 -47 308 -47q80 0 80 53q0 20 -15.5 27.5t-101.5 24.5q-311 59 -312 293q0 180 122 272t352 92q178 0 342 -49l-84 -285q-150 47 -308 47q-77 0 -77 -52q0 -21 15 -28.5t101 -21.5q311 -61 312 -297q0 -170 -118 -266t-358 -96q-178 0 -342 49z" />
<glyph unicode="t" horiz-adv-x="835" d="M25 700l57 308h133l37 299l350 20l-39 -319h246l-59 -308h-226l-41 -356q0 -37 31 -37q41 0 186 68l41 -289q-188 -106 -354 -106q-121 0 -191.5 67.5t-70.5 200.5l2 39l51 413h-153z" />
<glyph unicode="u" horiz-adv-x="1187" d="M53 229l6 82l82 686l353 21l-78 -641q0 -63 57 -64q68 0 244 181l59 503l352 21l-124 -1018h-349l21 166q-205 -186 -387 -186q-139 0 -187.5 73.5t-48.5 175.5z" />
<glyph unicode="v" horiz-adv-x="1073" d="M39 997l385 21l74 -631q131 283 217 631l377 -21q-137 -565 -420 -997h-443z" />
<glyph unicode="w" horiz-adv-x="1589" d="M39 997l364 21l50 -686l192 665l377 21l29 -686q139 293 196 686l357 -21q-102 -555 -367 -997h-399l-68 481l-182 -481h-400z" />
<glyph unicode="x" horiz-adv-x="1073" d="M-82 10l365 494l-244 493l395 21l111 -264l160 264l407 -21l-375 -493l254 -494l-413 -20l-109 264l-162 -264z" />
<glyph unicode="y" horiz-adv-x="1073" d="M31 -264q133 123 237 264h-39l-190 997l385 21l74 -631q131 283 217 631l377 -21q-215 -899 -793 -1450z" />
<glyph unicode="z" horiz-adv-x="987" d="M0 0l14 287l447 413h-387l59 308h813l-14 -287l-449 -414h387l-57 -307h-813z" />
<glyph unicode="{" horiz-adv-x="837" d="M35 623l57 307h90q53 2 78 33.5t33 103.5l33 260q20 184 135.5 300t283.5 116q86 0 179 -37l-58 -295q-57 18 -84 19q-96 0 -112 -138l-19 -157q-37 -268 -198 -359q82 -53 99 -130t17 -140l-6 -88q-23 -178 -22 -199q0 -96 84 -96l49 6l57 14l-57 -299q-96 -35 -178 -34 q-137 0 -223.5 90t-86.5 252l4 73l37 307q0 39 -16 65t-76 26h-100z" />
<glyph unicode="|" horiz-adv-x="634" d="M-37 -184l234 1900l309 21l-234 -1901z" />
<glyph unicode="}" horiz-adv-x="837" d="M-61 -154l57 295q57 -18 86 -18q94 0 111 137l20 158q33 266 197 358q-113 74 -115 248l6 111l21 198q0 96 -84 97q-16 0 -107 -21l57 299q96 35 179 35q137 0 223 -90t86 -252l-4 -74l-37 -307q0 -39 16.5 -64.5t75.5 -25.5h100l-57 -307h-90q-53 -2 -77.5 -34 t-33.5 -104l-32 -260q-25 -188 -138.5 -301.5t-281.5 -113.5q-86 0 -178 36z" />
<glyph unicode="~" d="M12 586q29 186 154 309t270 123q88 0 138.5 -24.5t79 -55.5t48 -55.5t48.5 -24.5q18 0 44.5 25.5t41.5 99.5l301 -45q-33 -186 -155 -309t-269 -123q-90 0 -139.5 24.5t-79 55t-48 55.5t-49.5 25q-18 0 -43.5 -26t-42.5 -99z" />
<glyph unicode="&#xa1;" horiz-adv-x="716" d="M29 -430l137 956l350 21l-98 -977h-389zM184 809q0 94 65.5 156.5t151.5 62.5q78 0 125 -47t47 -121q0 -90 -64.5 -153.5t-154.5 -63.5q-76 0 -123 47t-47 119z" />
<glyph unicode="&#xa2;" horiz-adv-x="991" d="M82 791q0 264 111.5 431t324.5 218l29 227l291 21l-29 -236q100 -8 211 -31l-82 -301q-145 31 -254 31q-127 0 -186.5 -79t-59.5 -243q0 -84 41 -129t146 -45q106 0 260 31l6 -301q-115 -25 -217 -33l-27 -213l-289 -20l31 248q-307 76 -307 424z" />
<glyph unicode="&#xa3;" horiz-adv-x="1171" d="M10 0l10 348q80 47 156 97.5t123 111.5h-231l55 266h186q-27 39 -51.5 89.5t-24.5 131.5q0 184 135.5 299t368.5 115q238 0 451 -51l-115 -344q-66 16 -175.5 31.5t-162.5 15.5q-96 0 -96 -76q0 -18 16.5 -33.5t38 -38t42 -55.5t30.5 -84h324l-56 -266h-311 q-76 -154 -184 -207h530l-63 -350h-996z" />
<glyph unicode="&#xa4;" d="M23 410l137 137q-29 80 -29 172q0 90 29 170l-137 139l245 217l123 -125q76 31 172 31q92 0 170 -31l125 125l246 -217l-139 -139q31 -78 30 -170q0 -96 -30 -172l139 -137l-246 -217l-125 122q-80 -29 -170 -28q-92 0 -172 28l-123 -122zM416 719q0 -66 41 -107t106 -41 q66 0 107 41t41 107t-41 106.5t-107 40.5t-106.5 -40.5t-40.5 -106.5z" />
<glyph unicode="&#xa5;" horiz-adv-x="1363" d="M92 1427l445 21l168 -530l294 530l457 -21l-366 -546h151l-53 -267h-277l-51 -75l-2 -7h340l-53 -266h-318l-32 -266h-389l32 266h-340l54 266h317l2 7l-33 75h-297l54 267h129z" />
<glyph unicode="&#xa6;" horiz-adv-x="634" d="M-37 -184l96 786l310 21l-97 -787zM100 930l97 786l309 21l-96 -787z" />
<glyph unicode="&#xa7;" horiz-adv-x="1404" d="M35 -391l108 344q70 -18 191 -35l4 66q0 160 -115 389q-141 276 -141 442q0 295 214 469t572 174q252 0 461 -51l-108 -344q-80 20 -193 35l-4 -66q0 -156 119 -387q139 -279 139 -444q0 -295 -213 -469t-573 -174q-252 0 -461 51zM453 850q0 -78 75 -238l68 -143 q111 -236 111 -449l-7 -100q211 51 211 246q0 78 -73 237l-68 144q-115 240 -115 450l7 99q-209 -51 -209 -246z" />
<glyph unicode="&#xa8;" horiz-adv-x="1024" d="M178 1280q0 76 54 130t130 54q66 0 106 -39t40 -100q0 -80 -53.5 -134t-130.5 -54q-66 0 -106 40t-40 103zM670 1280q0 76 54 130t130 54q66 0 105.5 -39t39.5 -100q0 -80 -53 -134t-131 -54q-66 0 -105.5 40t-39.5 103z" />
<glyph unicode="&#xa9;" horiz-adv-x="1601" d="M59 610q0 236 110 430.5t304.5 306t423.5 111.5q293 0 474 -172t181 -459q0 -236 -109.5 -430t-304 -305.5t-423.5 -111.5q-297 0 -476.5 171.5t-179.5 458.5zM293 641q0 -203 123 -327t325 -124q244 0 411 173.5t167 433.5q0 203 -123 326.5t-326 123.5 q-244 0 -410.5 -173t-166.5 -433zM446 629q0 233 111 365t320 132q111 0 221 -30l-68 -211l-51 12q-62 14 -109 14q-174 0 -174 -245q0 -139 127 -140q12 0 22.5 1t143.5 26l17 -211q-115 -31 -230 -31q-164 0 -247 83t-83 235z" />
<glyph unicode="&#xaa;" horiz-adv-x="729" d="M82 1065q0 186 96 291.5t271 105.5q139 0 313 -65l-72 -582h-239l10 96q-119 -109 -209 -108q-72 0 -121 71.5t-49 190.5zM332 1098q0 -63 28 -64q49 0 129 96l11 97q-31 23 -72 22q-41 0 -68.5 -36.5t-27.5 -114.5z" />
<glyph unicode="&#xab;" horiz-adv-x="1255" d="M10 422l43 184l414 371l199 -281l-234 -213l182 -213l-264 -239zM563 422l43 184l414 371l199 -281l-234 -213l182 -213l-264 -239z" />
<glyph unicode="&#xac;" d="M20 565l21 307h1055v-675l-348 -21v389h-728z" />
<glyph unicode="&#xad;" horiz-adv-x="686" d="M20 350l60 307h543l-60 -307h-543z" />
<glyph unicode="&#xae;" horiz-adv-x="864" d="M106 1032q0 184 122 305t300 121q152 0 241 -89t89 -226q0 -184 -122 -305t-300 -121q-152 0 -241 87t-89 228zM225 1049q0 -102 60.5 -164t165.5 -62q123 0 205.5 86t82.5 217q0 102 -59 164t-164 62h-2q-123 0 -206 -86t-83 -217zM305 887l47 397h150q147 0 147 -121 q0 -90 -71 -139q6 -29 24 -29l35 11v-107q-51 -18 -84 -18q-76 0 -94 114l-23 2l-12 -110h-119zM451 1104l22 -4q45 0 53 43q0 39 -45 39h-22z" />
<glyph unicode="&#xaf;" horiz-adv-x="882" d="M160 1137l49 245h657l-49 -245h-657z" />
<glyph unicode="&#xb0;" horiz-adv-x="720" d="M96 1092q0 162 105.5 264t255.5 102q129 0 205.5 -74.5t76.5 -197.5q0 -162 -105.5 -264.5t-254.5 -102.5q-129 0 -206 75t-77 198zM330 1120q0 -76 76 -76q47 0 72.5 31t25.5 82q0 76 -76 76q-47 0 -72.5 -31t-25.5 -82z" />
<glyph unicode="&#xb1;" d="M20 0l21 307h1065l-21 -307h-1065zM20 709l21 307h348v307l348 20v-327h369l-21 -307h-348v-308l-348 -20v328h-369z" />
<glyph unicode="&#xb2;" horiz-adv-x="686" d="M72 942l12 195q195 111 299 195.5t104 162.5q0 66 -100 66q-88 0 -217 -37l-18 192q195 41 292 41q285 0 285 -227q0 -221 -326 -393h316l-39 -195h-608z" />
<glyph unicode="&#xb3;" horiz-adv-x="686" d="M61 971l64 192q141 -39 227 -39q127 0 127 66q0 29 -35 57h-176l37 193h139q49 35 50 71q0 49 -103 50q-88 0 -217 -37l-18 192q195 41 293 41q289 0 288 -188q0 -145 -149 -217q125 -66 125 -172q0 -119 -96.5 -183.5t-276.5 -64.5q-162 0 -279 39z" />
<glyph unicode="&#xb4;" horiz-adv-x="761" d="M156 1114l209 344h391l-307 -344h-293z" />
<glyph unicode="&#xb5;" horiz-adv-x="1187" d="M-33 -432l174 1429l353 21l-78 -641q0 -63 57 -64q68 0 244 181l59 503l352 21l-124 -1018h-349l21 166q-205 -186 -387 -186h-23l35 -392z" />
<glyph unicode="&#xb6;" horiz-adv-x="1112" d="M72 1118q0 141 89 230.5t230 89.5h721l-8 -201h-113v-1237h-209v1237h-127v-1237h-188v799h-76q-141 0 -230 89t-89 230z" />
<glyph unicode="&#xb7;" horiz-adv-x="548" d="M86 692q0 94 65.5 156.5t151.5 62.5q78 0 125 -47t47 -121q0 -90 -64.5 -153.5t-154.5 -63.5q-76 0 -123 47.5t-47 118.5z" />
<glyph unicode="&#xb8;" horiz-adv-x="643" d="M-33 -418l56 168q78 -25 133 -24q55 0 55 24q0 33 -43 33q-18 0 -62 -16l-59 127l82 126h221l-76 -94q154 -8 154 -149q0 -102 -78 -160.5t-213 -58.5q-88 0 -170 24z" />
<glyph unicode="&#xb9;" horiz-adv-x="665" d="M82 942l39 195h170l45 379l-193 -68l27 211l244 86h188l-74 -608h162l-37 -195h-571z" />
<glyph unicode="&#xba;" horiz-adv-x="692" d="M82 1085q0 170 104.5 272.5t268.5 102.5q276 0 276 -286q0 -168 -104.5 -270.5t-268.5 -102.5q-276 0 -276 284zM330 1090q0 -76 59 -76q37 0 64.5 43t27.5 114q0 76 -57 76q-39 0 -66.5 -44t-27.5 -113z" />
<glyph unicode="&#xbb;" horiz-adv-x="1255" d="M-6 311l235 213l-184 213l264 240l342 -391l-43 -185l-415 -370zM547 311l235 213l-184 213l264 240l342 -391l-43 -185l-416 -370z" />
<glyph unicode="&#xbc;" horiz-adv-x="1617" d="M37 635l39 194h170l45 379l-193 -67l27 211l244 86h188l-74 -609h162l-37 -194h-571zM254 0l893 1438h264l-893 -1438h-264zM860 139l12 195q180 199 211 469h236q-18 -143 -69.5 -248.5t-155.5 -220.5h120l15 125l241 12l-16 -137h80l-37 -195h-67l-17 -139h-239l16 139 h-330z" />
<glyph unicode="&#xbd;" horiz-adv-x="1691" d="M37 635l39 194h170l45 379l-193 -67l27 211l244 86h188l-74 -609h162l-37 -194h-571zM254 0l893 1438h264l-893 -1438h-264zM944 0l12 195q195 111 299.5 195.5t104.5 162.5q0 66 -100 65q-88 0 -218 -36l-18 192q195 41 293 41q285 0 285 -227q0 -221 -326 -393h315 l-39 -195h-608z" />
<glyph unicode="&#xbe;" horiz-adv-x="1622" d="M41 664l63 192q141 -39 228 -39q127 0 127 66q0 29 -35 57h-176l37 193h139q49 35 49 71q0 49 -102 49q-88 0 -217 -36l-19 192q195 41 293 41q289 0 289 -188q0 -145 -150 -218q125 -66 125 -172q0 -119 -96 -183t-277 -64q-162 0 -278 39zM258 0l893 1438h264 l-893 -1438h-264zM864 139l13 195q180 199 210 469h236q-18 -143 -69.5 -248.5t-155.5 -220.5h121l14 125l242 12l-17 -137h80l-37 -195h-67l-17 -139h-239l16 139h-330z" />
<glyph unicode="&#xbf;" horiz-adv-x="1064" d="M-53 -121q0 311 381 463l26 184l351 21l-37 -373q-158 -18 -240 -71.5t-82 -116.5q0 -88 166 -88q123 0 358 67l23 -344q-279 -72 -477 -72q-227 0 -348 83t-121 247zM371 811q0 90 64.5 153.5t154.5 63.5q76 0 123 -47t47 -119q0 -94 -65.5 -156.5t-151.5 -62.5 q-78 0 -125 47t-47 121z" />
<glyph unicode="&#xc0;" horiz-adv-x="1366" d="M-72 0l574 1427l540 21l232 -1448h-397l-29 236h-428l-86 -236h-406zM393 1843h461l202 -303h-362zM545 584h258l-64 526z" />
<glyph unicode="&#xc1;" horiz-adv-x="1366" d="M-72 0l574 1427l540 21l232 -1448h-397l-29 236h-428l-86 -236h-406zM500 1540l264 303h473l-362 -303h-375zM545 584h258l-64 526z" />
<glyph unicode="&#xc2;" horiz-adv-x="1366" d="M-72 0l574 1427l540 21l232 -1448h-397l-29 236h-428l-86 -236h-406zM356 1540l252 303h434l178 -303h-348l-68 123l-96 -123h-352zM545 584h258l-64 526z" />
<glyph unicode="&#xc3;" horiz-adv-x="1366" d="M-72 0l574 1427l540 21l232 -1448h-397l-29 236h-428l-86 -236h-406zM406 1571q23 135 104.5 219t184.5 84q115 0 205 -94q16 -18 28 -19q49 0 66 88l215 -37q-23 -135 -105 -219t-184 -84q-115 0 -205 97q-16 16 -28 16q-47 0 -68 -88zM545 584h258l-64 526z" />
<glyph unicode="&#xc4;" horiz-adv-x="1366" d="M-72 0l574 1427l540 21l232 -1448h-397l-29 236h-428l-86 -236h-406zM395 1671q0 74 54.5 130.5t132.5 56.5q66 0 105.5 -39t39.5 -101q0 -76 -54 -132t-132 -56q-66 0 -106 40t-40 101zM545 584h258l-64 526zM887 1671q0 74 54 130.5t132 56.5q66 0 106 -39t40 -101 q0 -76 -54.5 -132t-132.5 -56q-66 0 -105.5 40t-39.5 101z" />
<glyph unicode="&#xc5;" horiz-adv-x="1366" d="M-72 0l574 1427l174 7q-127 49 -127 190q0 117 82 194.5t200 77.5q104 0 165 -57t61 -149q0 -88 -45 -152.5t-117 -95.5l147 6l232 -1448h-397l-29 236h-428l-86 -236h-406zM545 584h258l-64 526zM733 1642q0 -57 62 -57q37 0 57 23.5t20 62.5q0 57 -61 58 q-37 0 -57.5 -24t-20.5 -63z" />
<glyph unicode="&#xc6;" horiz-adv-x="1961" d="M-102 0l903 1438h1194l-64 -348h-567l-25 -197h465l-63 -348h-445l-24 -197h588l-64 -348h-954l28 236h-399l-135 -236h-438zM668 584h243l68 540z" />
<glyph unicode="&#xc7;" horiz-adv-x="1218" d="M78 559q0 430 201.5 664.5t568.5 234.5q203 0 399 -51l-108 -344q-186 41 -219 44t-84 3q-180 0 -263.5 -127t-83.5 -389q0 -152 64.5 -209t185.5 -57q43 0 76 2t240 45l22 -344q-152 -41 -325 -49l-45 -56q154 -8 153 -149q0 -102 -77.5 -160.5t-213.5 -58.5 q-88 0 -170 24l56 168q78 -25 133 -24q55 0 55 24q0 33 -43 33q-18 0 -61 -16l-60 127l60 94q-227 27 -344 171t-117 400z" />
<glyph unicode="&#xc8;" horiz-adv-x="1140" d="M20 0l177 1438h977l-64 -348h-567l-25 -197h465l-63 -348h-445l-24 -197h587l-61 -348h-957zM322 1843h461l202 -303h-362z" />
<glyph unicode="&#xc9;" horiz-adv-x="1140" d="M20 0l177 1438h977l-64 -348h-567l-25 -197h465l-63 -348h-445l-24 -197h587l-61 -348h-957zM408 1540l264 303h473l-362 -303h-375z" />
<glyph unicode="&#xca;" horiz-adv-x="1140" d="M20 0l177 1438h977l-64 -348h-567l-25 -197h465l-63 -348h-445l-24 -197h587l-61 -348h-957zM264 1540l252 303h434l178 -303h-348l-68 123l-96 -123h-352z" />
<glyph unicode="&#xcb;" horiz-adv-x="1140" d="M20 0l177 1438h977l-64 -348h-567l-25 -197h465l-63 -348h-445l-24 -197h587l-61 -348h-957zM303 1671q0 74 54.5 130.5t132.5 56.5q66 0 105.5 -39t39.5 -101q0 -76 -54 -132t-132 -56q-66 0 -106 40t-40 101zM795 1671q0 74 54 130.5t132 56.5q66 0 106 -39t40 -101 q0 -76 -54.5 -132t-132.5 -56q-66 0 -105.5 40t-39.5 101z" />
<glyph unicode="&#xcc;" horiz-adv-x="593" d="M-63 1843h461l202 -303h-362zM20 0l177 1438h389l-176 -1438h-390z" />
<glyph unicode="&#xcd;" horiz-adv-x="593" d="M20 0l177 1438h389l-176 -1438h-390zM207 1540l264 303h473l-362 -303h-375z" />
<glyph unicode="&#xce;" horiz-adv-x="593" d="M-29 1540l252 303h434l178 -303h-348l-68 123l-96 -123h-352zM20 0l177 1438h389l-176 -1438h-390z" />
<glyph unicode="&#xcf;" horiz-adv-x="593" d="M10 1671q0 74 54.5 130.5t132.5 56.5q66 0 105.5 -39t39.5 -101q0 -76 -54 -132t-132 -56q-66 0 -106 40t-40 101zM20 0l177 1438h389l-176 -1438h-390zM502 1671q0 74 54 130.5t132 56.5q66 0 106 -39t40 -101q0 -76 -54.5 -132t-132.5 -56q-66 0 -105.5 40t-39.5 101z " />
<glyph unicode="&#xd0;" horiz-adv-x="1409" d="M-8 596l49 246h82l74 596h557q276 0 431.5 -138.5t155.5 -433.5q0 -424 -222 -655t-632 -231q-225 0 -462 59l67 557h-100zM451 338q51 -10 120 -10q174 0 266.5 130t92.5 361q0 270 -223 271h-164l-31 -248h186l-49 -246h-168z" />
<glyph unicode="&#xd1;" horiz-adv-x="1392" d="M20 0l175 1427l360 21l354 -789l97 779h378l-176 -1428l-360 -20l-354 788l-95 -778h-379zM420 1571q23 135 104.5 219t184.5 84q115 0 205 -94q16 -18 28 -19q49 0 66 88l215 -37q-23 -135 -105 -219t-184 -84q-115 0 -205 97q-16 16 -28 16q-47 0 -68 -88z" />
<glyph unicode="&#xd2;" horiz-adv-x="1515" d="M72 575q0 410 214 646.5t564 236.5q293 0 444.5 -151.5t151.5 -444.5q0 -410 -214 -646t-564 -236q-293 0 -444.5 151.5t-151.5 443.5zM469 1843h461l202 -303h-362zM477 586q0 -258 211 -258q160 0 256 143t96 381q0 258 -213 258q-158 0 -254 -141.5t-96 -382.5z" />
<glyph unicode="&#xd3;" horiz-adv-x="1515" d="M72 575q0 410 214 646.5t564 236.5q293 0 444.5 -151.5t151.5 -444.5q0 -410 -214 -646t-564 -236q-293 0 -444.5 151.5t-151.5 443.5zM477 586q0 -258 211 -258q160 0 256 143t96 381q0 258 -213 258q-158 0 -254 -141.5t-96 -382.5zM596 1540l264 303h473l-362 -303 h-375z" />
<glyph unicode="&#xd4;" horiz-adv-x="1515" d="M72 575q0 410 214 646.5t564 236.5q293 0 444.5 -151.5t151.5 -444.5q0 -410 -214 -646t-564 -236q-293 0 -444.5 151.5t-151.5 443.5zM432 1540l252 303h434l178 -303h-348l-68 123l-96 -123h-352zM477 586q0 -258 211 -258q160 0 256 143t96 381q0 258 -213 258 q-158 0 -254 -141.5t-96 -382.5z" />
<glyph unicode="&#xd5;" horiz-adv-x="1515" d="M72 575q0 410 214 646.5t564 236.5q293 0 444.5 -151.5t151.5 -444.5q0 -410 -214 -646t-564 -236q-293 0 -444.5 151.5t-151.5 443.5zM477 586q0 -258 211 -258q160 0 256 143t96 381q0 258 -213 258q-158 0 -254 -141.5t-96 -382.5zM481 1571q23 135 104.5 219 t184.5 84q115 0 205 -94q16 -18 28 -19q49 0 66 88l215 -37q-23 -135 -105 -219t-184 -84q-115 0 -205 97q-16 16 -28 16q-47 0 -68 -88z" />
<glyph unicode="&#xd6;" horiz-adv-x="1515" d="M72 575q0 410 214 646.5t564 236.5q293 0 444.5 -151.5t151.5 -444.5q0 -410 -214 -646t-564 -236q-293 0 -444.5 151.5t-151.5 443.5zM471 1671q0 74 54.5 130.5t132.5 56.5q66 0 105.5 -39t39.5 -101q0 -76 -54 -132t-132 -56q-66 0 -106 40t-40 101zM477 586 q0 -258 211 -258q160 0 256 143t96 381q0 258 -213 258q-158 0 -254 -141.5t-96 -382.5zM963 1671q0 74 54 130.5t132 56.5q66 0 106 -39t40 -101q0 -76 -54.5 -132t-132.5 -56q-66 0 -105.5 40t-39.5 101z" />
<glyph unicode="&#xd7;" d="M23 410l309 309l-309 309l245 217l295 -295l295 295l246 -217l-309 -309l309 -309l-246 -217l-295 294l-295 -294z" />
<glyph unicode="&#xd8;" horiz-adv-x="1515" d="M31 -111l186 248q-145 150 -145 438q0 410 214 646.5t564 236.5q180 0 307 -59l168 225l160 -76l-185 -250q145 -150 146 -436q0 -410 -214 -646t-564 -236q-178 0 -308 57l-165 -223zM477 586q0 -53 8 -88l443 592q-41 20 -101 20q-158 0 -254 -141t-96 -383zM590 346 q43 -18 98 -18q160 0 256 143t96 381q0 47 -8 88z" />
<glyph unicode="&#xd9;" horiz-adv-x="1392" d="M74 399l6 88l117 951h389l-113 -906l-4 -55q0 -76 39 -112.5t145 -36.5q117 0 166 47t64 157l112 906h389l-116 -951q-29 -246 -197 -376.5t-461 -130.5q-264 0 -399 106.5t-137 312.5zM408 1843h461l202 -303h-362z" />
<glyph unicode="&#xda;" horiz-adv-x="1392" d="M74 399l6 88l117 951h389l-113 -906l-4 -55q0 -76 39 -112.5t145 -36.5q117 0 166 47t64 157l112 906h389l-116 -951q-29 -246 -197 -376.5t-461 -130.5q-264 0 -399 106.5t-137 312.5zM535 1540l264 303h473l-362 -303h-375z" />
<glyph unicode="&#xdb;" horiz-adv-x="1392" d="M74 399l6 88l117 951h389l-113 -906l-4 -55q0 -76 39 -112.5t145 -36.5q117 0 166 47t64 157l112 906h389l-116 -951q-29 -246 -197 -376.5t-461 -130.5q-264 0 -399 106.5t-137 312.5zM371 1540l252 303h434l178 -303h-348l-68 123l-96 -123h-352z" />
<glyph unicode="&#xdc;" horiz-adv-x="1392" d="M74 399l6 88l117 951h389l-113 -906l-4 -55q0 -76 39 -112.5t145 -36.5q117 0 166 47t64 157l112 906h389l-116 -951q-29 -246 -197 -376.5t-461 -130.5q-264 0 -399 106.5t-137 312.5zM409 1671q0 74 54.5 130.5t132.5 56.5q66 0 105.5 -39t39.5 -101q0 -76 -54 -132 t-132 -56q-66 0 -106 40t-40 101zM901 1671q0 74 54 130.5t132 56.5q66 0 106 -39t40 -101q0 -76 -54.5 -132t-132.5 -56q-66 0 -105.5 40t-39.5 101z" />
<glyph unicode="&#xdd;" horiz-adv-x="1363" d="M92 1427l445 21l168 -530l294 530l457 -21l-596 -888l-65 -539h-389l65 539zM520 1540l264 303h473l-362 -303h-375z" />
<glyph unicode="&#xde;" horiz-adv-x="1236" d="M20 0l177 1438h389l-27 -209l133 8q240 0 377 -115.5t137 -324.5q0 -272 -179 -434t-462 -162l-131 8l-24 -209h-390zM477 559l98 -10q102 0 161 53t59 146q0 141 -177 141l-102 -10z" />
<glyph unicode="&#xdf;" horiz-adv-x="1275" d="M-31 -422l181 1475q31 252 167 375.5t402 123.5q188 0 294.5 -89t106.5 -238q0 -168 -125 -336l-59 -82q115 -43 176.5 -137.5t61.5 -214.5q0 -193 -131.5 -334t-333.5 -141q-154 0 -244 51l84 282q43 -29 104 -28q59 0 108.5 45t49.5 129q0 70 -66.5 129t-160.5 71 l-4 144l153 215q45 63 45 129q0 98 -98 98q-78 0 -125 -50t-57 -142l-181 -1475h-348z" />
<glyph unicode="&#xe0;" horiz-adv-x="1146" d="M20 393q0 303 152 469t418 166q205 0 485 -102l-112 -926h-349l19 166q-190 -186 -344 -186q-123 0 -196 119.5t-73 293.5zM312 1458h379l135 -344h-281zM381 440q0 -127 59 -127q35 0 98.5 45t135.5 136l22 186q-63 41 -135 41q-76 0 -128 -66.5t-52 -214.5z" />
<glyph unicode="&#xe1;" horiz-adv-x="1146" d="M20 393q0 303 152 469t418 166q205 0 485 -102l-112 -926h-349l19 166q-190 -186 -344 -186q-123 0 -196 119.5t-73 293.5zM381 440q0 -127 59 -127q35 0 98.5 45t135.5 136l22 186q-63 41 -135 41q-76 0 -128 -66.5t-52 -214.5zM412 1114l209 344h391l-307 -344h-293z " />
<glyph unicode="&#xe2;" horiz-adv-x="1146" d="M20 393q0 303 152 469t418 166q205 0 485 -102l-112 -926h-349l19 166q-190 -186 -344 -186q-123 0 -196 119.5t-73 293.5zM271 1114l237 344h373l152 -344h-308l-51 158l-92 -158h-311zM381 440q0 -127 59 -127q35 0 98.5 45t135.5 136l22 186q-63 41 -135 41 q-76 0 -128 -66.5t-52 -214.5z" />
<glyph unicode="&#xe3;" horiz-adv-x="1146" d="M20 393q0 303 152 469t418 166q205 0 485 -102l-112 -926h-349l19 166q-190 -186 -344 -186q-123 0 -196 119.5t-73 293.5zM260 1155q23 135 104.5 219t184.5 84q115 0 188 -94q12 -18 25 -18q49 0 65 88l215 -37q-23 -135 -104.5 -219t-184.5 -84q-115 0 -186 96 q-14 16 -27 16q-49 0 -65 -88zM381 440q0 -127 59 -127q35 0 98.5 45t135.5 136l22 186q-63 41 -135 41q-76 0 -128 -66.5t-52 -214.5z" />
<glyph unicode="&#xe4;" horiz-adv-x="1146" d="M20 393q0 303 152 469t418 166q205 0 485 -102l-112 -926h-349l19 166q-190 -186 -344 -186q-123 0 -196 119.5t-73 293.5zM246 1280q0 76 54 130t130 54q66 0 106 -39t40 -100q0 -80 -53.5 -134t-130.5 -54q-66 0 -106 40t-40 103zM381 440q0 -127 59 -127q35 0 98.5 45 t135.5 136l22 186q-63 41 -135 41q-76 0 -128 -66.5t-52 -214.5zM738 1280q0 76 54 130t130 54q66 0 105.5 -39t39.5 -100q0 -80 -53 -134t-131 -54q-66 0 -105.5 40t-39.5 103z" />
<glyph unicode="&#xe5;" horiz-adv-x="1146" d="M20 393q0 303 152 469t418 166q205 0 485 -102l-112 -926h-349l19 166q-190 -186 -344 -186q-123 0 -196 119.5t-73 293.5zM381 440q0 -127 59 -127q35 0 98.5 45t135.5 136l22 186q-63 41 -135 41q-76 0 -128 -66.5t-52 -214.5zM399 1276q0 117 82 194.5t201 77.5 q104 0 164.5 -57t60.5 -150q0 -117 -82 -194.5t-201 -77.5q-104 0 -164.5 57.5t-60.5 149.5zM583 1294q0 -57 62 -57q37 0 57.5 23.5t20.5 62.5q0 57 -62 57q-37 0 -57.5 -23.5t-20.5 -62.5z" />
<glyph unicode="&#xe6;" horiz-adv-x="1503" d="M-20 229q0 174 122.5 261.5t450.5 121.5l4 50q0 59 -82 59q-104 0 -348 -64l-12 297q240 74 442 74q98 0 152.5 -29.5t72.5 -97.5q127 127 328 127q158 0 255 -77t97 -199q0 -176 -147.5 -286t-415.5 -134v-10q0 -49 78 -50q111 0 321 97l41 -279q-217 -111 -397 -110 q-209 0 -319 137q-201 -137 -365 -137q-119 0 -198.5 67.5t-79.5 181.5zM313 295q0 -55 66 -55q78 0 166 47q-10 61 -10 104q-125 -12 -173.5 -30.5t-48.5 -65.5zM897 563q98 10 159.5 51t61.5 84q0 45 -57 45t-105.5 -54t-58.5 -126z" />
<glyph unicode="&#xe7;" horiz-adv-x="923" d="M35 395q0 197 72.5 340.5t204.5 218t298 74.5q141 0 312 -35l-80 -299q-133 27 -228 27q-127 0 -174 -74t-47 -207q0 -72 25.5 -109.5t91.5 -37.5q96 0 289 86l41 -289q-147 -76 -275 -98l-51 -66q154 -8 154 -149q0 -102 -78 -160.5t-213 -58.5q-88 0 -170 24l55 168 q78 -25 133 -24q55 0 56 24q0 33 -43 33q-18 0 -62 -16l-59 127l61 96q-147 29 -230 137t-83 268z" />
<glyph unicode="&#xe8;" horiz-adv-x="989" d="M20 395q0 197 73 340.5t205 218t298 74.5q158 0 255 -77t97 -199q0 -176 -147.5 -286t-415.5 -134v-10q0 -49 78 -50q111 0 321 97l41 -279q-217 -111 -397 -110q-182 0 -295 111.5t-113 303.5zM271 1458h379l135 -344h-281zM383 563q98 10 159.5 51t61.5 84q0 45 -57 45 t-105.5 -54t-58.5 -126z" />
<glyph unicode="&#xe9;" horiz-adv-x="989" d="M20 395q0 197 73 340.5t205 218t298 74.5q158 0 255 -77t97 -199q0 -176 -147.5 -286t-415.5 -134v-10q0 -49 78 -50q111 0 321 97l41 -279q-217 -111 -397 -110q-182 0 -295 111.5t-113 303.5zM351 1114l209 344h391l-307 -344h-293zM383 563q98 10 159.5 51t61.5 84 q0 45 -57 45t-105.5 -54t-58.5 -126z" />
<glyph unicode="&#xea;" horiz-adv-x="989" d="M20 395q0 197 73 340.5t205 218t298 74.5q158 0 255 -77t97 -199q0 -176 -147.5 -286t-415.5 -134v-10q0 -49 78 -50q111 0 321 97l41 -279q-217 -111 -397 -110q-182 0 -295 111.5t-113 303.5zM207 1114l237 344h373l152 -344h-308l-51 158l-92 -158h-311zM383 563 q98 10 159.5 51t61.5 84q0 45 -57 45t-105.5 -54t-58.5 -126z" />
<glyph unicode="&#xeb;" horiz-adv-x="989" d="M20 395q0 197 73 340.5t205 218t298 74.5q158 0 255 -77t97 -199q0 -176 -147.5 -286t-415.5 -134v-10q0 -49 78 -50q111 0 321 97l41 -279q-217 -111 -397 -110q-182 0 -295 111.5t-113 303.5zM182 1280q0 76 54 130t130 54q66 0 106 -39t40 -100q0 -80 -53.5 -134 t-130.5 -54q-66 0 -106 40t-40 103zM383 563q98 10 159.5 51t61.5 84q0 45 -57 45t-105.5 -54t-58.5 -126zM674 1280q0 76 54 130t130 54q66 0 105.5 -39t39.5 -100q0 -80 -53 -134t-131 -54q-66 0 -105.5 40t-39.5 103z" />
<glyph unicode="&#xec;" horiz-adv-x="552" d="M-8 1458h379l135 -344h-281zM20 0l121 997l353 21l-125 -1018h-349z" />
<glyph unicode="&#xed;" horiz-adv-x="552" d="M20 0l121 997l353 21l-125 -1018h-349zM154 1114l209 344h391l-307 -344h-293z" />
<glyph unicode="&#xee;" horiz-adv-x="552" d="M-51 1114l237 344h373l152 -344h-308l-51 158l-92 -158h-311zM20 0l121 997l353 21l-125 -1018h-349z" />
<glyph unicode="&#xef;" horiz-adv-x="552" d="M-58 1280q0 76 54 130t130 54q66 0 106 -39t40 -100q0 -80 -53.5 -134t-130.5 -54q-66 0 -106 40t-40 103zM20 0l121 997l353 21l-125 -1018h-349zM434 1280q0 76 54 130t130 54q66 0 105.5 -39t39.5 -100q0 -80 -53 -134t-131 -54q-66 0 -105.5 40t-39.5 103z" />
<glyph unicode="&#xf0;" horiz-adv-x="1132" d="M20 426q0 250 116 426t276 176q139 0 274 -151q-33 156 -100 282l-295 -102l-31 219l203 70q-88 113 -211 206h424q53 -43 102 -96l283 98l31 -219l-181 -63q143 -256 144 -557q0 -332 -159 -533.5t-402 -201.5q-219 0 -346.5 116.5t-127.5 329.5zM379 465 q0 -178 143 -178q47 0 97.5 57t72.5 195q-84 154 -188 153q-53 0 -89 -55t-36 -172z" />
<glyph unicode="&#xf1;" horiz-adv-x="1187" d="M20 0l121 997l353 21l-23 -176q205 186 387 186q139 0 187.5 -73.5t48.5 -176.5l-7 -82l-83 -696h-349l76 631q0 63 -57 63q-68 0 -244 -180l-61 -514h-349zM277 1155q23 135 104.5 219t184.5 84q115 0 188 -94q12 -18 25 -18q49 0 65 88l215 -37q-23 -135 -104.5 -219 t-184.5 -84q-115 0 -186 96q-14 16 -27 16q-49 0 -65 -88z" />
<glyph unicode="&#xf2;" horiz-adv-x="1093" d="M20 426q0 266 160 434t420 168q432 0 432 -446q0 -266 -159.5 -434t-419.5 -168q-432 0 -433 446zM310 1458h379l135 -344h-281zM377 436q0 -149 117 -149q76 0 128 79.5t52 204.5q0 150 -115 150q-76 0 -129 -83t-53 -202z" />
<glyph unicode="&#xf3;" horiz-adv-x="1093" d="M20 426q0 266 160 434t420 168q432 0 432 -446q0 -266 -159.5 -434t-419.5 -168q-432 0 -433 446zM377 436q0 -149 117 -149q76 0 128 79.5t52 204.5q0 150 -115 150q-76 0 -129 -83t-53 -202zM389 1114l209 344h391l-307 -344h-293z" />
<glyph unicode="&#xf4;" horiz-adv-x="1093" d="M20 426q0 266 160 434t420 168q432 0 432 -446q0 -266 -159.5 -434t-419.5 -168q-432 0 -433 446zM246 1114l237 344h373l152 -344h-308l-51 158l-92 -158h-311zM377 436q0 -149 117 -149q76 0 128 79.5t52 204.5q0 150 -115 150q-76 0 -129 -83t-53 -202z" />
<glyph unicode="&#xf5;" horiz-adv-x="1093" d="M20 426q0 266 160 434t420 168q432 0 432 -446q0 -266 -159.5 -434t-419.5 -168q-432 0 -433 446zM236 1155q23 135 104.5 219t184.5 84q115 0 188 -94q12 -18 25 -18q49 0 65 88l215 -37q-23 -135 -104.5 -219t-184.5 -84q-115 0 -186 96q-14 16 -27 16q-49 0 -65 -88z M377 436q0 -149 117 -149q76 0 128 79.5t52 204.5q0 150 -115 150q-76 0 -129 -83t-53 -202z" />
<glyph unicode="&#xf6;" horiz-adv-x="1093" d="M20 426q0 266 160 434t420 168q432 0 432 -446q0 -266 -159.5 -434t-419.5 -168q-432 0 -433 446zM221 1280q0 76 54 130t130 54q66 0 106 -39t40 -100q0 -80 -53.5 -134t-130.5 -54q-66 0 -106 40t-40 103zM377 436q0 -149 117 -149q76 0 128 79.5t52 204.5 q0 150 -115 150q-76 0 -129 -83t-53 -202zM713 1280q0 76 54 130t130 54q66 0 105.5 -39t39.5 -100q0 -80 -53 -134t-131 -54q-66 0 -105.5 40t-39.5 103z" />
<glyph unicode="&#xf7;" d="M20 565l21 307h1065l-21 -307h-1065zM371 266q0 84 54 138.5t138 54.5t138.5 -54.5t54.5 -138.5t-54.5 -138t-138.5 -54t-138 54t-54 138zM371 1171q0 84 54 138.5t138 54.5t138.5 -54.5t54.5 -138.5t-54.5 -138t-138.5 -54t-138 54t-54 138z" />
<glyph unicode="&#xf8;" horiz-adv-x="1093" d="M-20 -109l151 201q-111 111 -111 334q0 266 160 434t420 168q117 0 211 -39l139 185l121 -56l-151 -200q113 -115 112 -336q0 -266 -159.5 -434t-419.5 -168q-125 0 -213 36l-138 -182zM377 416l225 299l-43 6q-76 0 -129 -83t-53 -192v-14v-16zM449 293l45 -6 q76 0 128 79.5t52 194.5v31z" />
<glyph unicode="&#xf9;" horiz-adv-x="1187" d="M53 229l6 82l82 686l353 21l-78 -641q0 -63 57 -64q68 0 244 181l59 503l352 21l-124 -1018h-349l21 166q-205 -186 -387 -186q-139 0 -187.5 73.5t-48.5 175.5zM351 1458h379l135 -344h-281z" />
<glyph unicode="&#xfa;" horiz-adv-x="1187" d="M53 229l6 82l82 686l353 21l-78 -641q0 -63 57 -64q68 0 244 181l59 503l352 21l-124 -1018h-349l21 166q-205 -186 -387 -186q-139 0 -187.5 73.5t-48.5 175.5zM430 1114l209 344h391l-307 -344h-293z" />
<glyph unicode="&#xfb;" horiz-adv-x="1187" d="M53 229l6 82l82 686l353 21l-78 -641q0 -63 57 -64q68 0 244 181l59 503l352 21l-124 -1018h-349l21 166q-205 -186 -387 -186q-139 0 -187.5 73.5t-48.5 175.5zM267 1114l237 344h373l152 -344h-308l-51 158l-92 -158h-311z" />
<glyph unicode="&#xfc;" horiz-adv-x="1187" d="M53 229l6 82l82 686l353 21l-78 -641q0 -63 57 -64q68 0 244 181l59 503l352 21l-124 -1018h-349l21 166q-205 -186 -387 -186q-139 0 -187.5 73.5t-48.5 175.5zM260 1280q0 76 54 130t130 54q66 0 106 -39t40 -100q0 -80 -53.5 -134t-130.5 -54q-66 0 -106 40t-40 103z M752 1280q0 76 54 130t130 54q66 0 105.5 -39t39.5 -100q0 -80 -53 -134t-131 -54q-66 0 -105.5 40t-39.5 103z" />
<glyph unicode="&#xfd;" horiz-adv-x="1073" d="M31 -264q133 123 237 264h-39l-190 997l385 21l74 -631q131 283 217 631l377 -21q-215 -899 -793 -1450zM375 1114l209 344h391l-307 -344h-293z" />
<glyph unicode="&#xfe;" horiz-adv-x="1144" d="M-33 -432l240 1964l352 20l-88 -710q190 186 344 186q123 0 195.5 -120t72.5 -294q0 -289 -148.5 -461.5t-373.5 -172.5q-96 0 -192 32l-52 -424zM408 328q63 -41 135 -41q76 0 128 66.5t52 213.5q0 127 -59 127q-35 0 -98.5 -45t-135.5 -135z" />
<glyph unicode="&#xff;" horiz-adv-x="1073" d="M31 -264q133 123 237 264h-39l-190 997l385 21l74 -631q131 283 217 631l377 -21q-215 -899 -793 -1450zM203 1280q0 76 54 130t130 54q66 0 106 -39t40 -100q0 -80 -53.5 -134t-130.5 -54q-66 0 -106 40t-40 103zM695 1280q0 76 54 130t130 54q66 0 105.5 -39t39.5 -100 q0 -80 -53 -134t-131 -54q-66 0 -105.5 40t-39.5 103z" />
<glyph unicode="&#x152;" horiz-adv-x="2064" d="M72 575q0 410 182 646.5t487 236.5q236 0 365 -133l14 113h977l-63 -348h-568l-24 -197h465l-64 -348h-444l-25 -197h588l-61 -348h-957l12 102q-158 -123 -372 -122q-254 0 -383 153.5t-129 441.5zM477 586q0 -258 211 -258q160 0 256 143t96 381q0 258 -213 258 q-158 0 -254 -141.5t-96 -382.5z" />
<glyph unicode="&#x153;" horiz-adv-x="1638" d="M20 426q0 266 160 434t420 168q211 0 299 -135q135 135 346 135q158 0 255 -77t97 -199q0 -176 -147 -286t-416 -134v-10q0 -49 78 -50q111 0 322 97l41 -279q-217 -111 -398 -110q-184 0 -274 133q-133 -133 -350 -133q-432 0 -433 446zM377 436q0 -149 117 -149 q76 0 128 79.5t52 204.5q0 150 -115 150q-76 0 -129 -83t-53 -202zM1032 563q98 10 159.5 51t61.5 84q0 45 -57 45t-105.5 -54t-58.5 -126z" />
<glyph unicode="&#x178;" horiz-adv-x="1363" d="M92 1427l445 21l168 -530l294 530l457 -21l-596 -888l-65 -539h-389l65 539zM395 1671q0 74 54.5 130.5t132.5 56.5q66 0 105.5 -39t39.5 -101q0 -76 -54 -132t-132 -56q-66 0 -106 40t-40 101zM887 1671q0 74 54 130.5t132 56.5q66 0 106 -39t40 -101q0 -76 -54.5 -132 t-132.5 -56q-66 0 -105.5 40t-39.5 101z" />
<glyph unicode="&#x2c6;" horiz-adv-x="966" d="M156 1114l237 344h373l152 -344h-308l-51 158l-92 -158h-311z" />
<glyph unicode="&#x2dc;" horiz-adv-x="958" d="M162 1155q23 135 104.5 219t184.5 84q115 0 188 -94q12 -18 25 -18q49 0 65 88l215 -37q-23 -135 -104.5 -219t-184.5 -84q-115 0 -186 96q-14 16 -27 16q-49 0 -65 -88z" />
<glyph unicode="&#x2000;" horiz-adv-x="948" />
<glyph unicode="&#x2001;" horiz-adv-x="1896" />
<glyph unicode="&#x2002;" horiz-adv-x="948" />
<glyph unicode="&#x2003;" horiz-adv-x="1896" />
<glyph unicode="&#x2004;" horiz-adv-x="632" />
<glyph unicode="&#x2005;" horiz-adv-x="474" />
<glyph unicode="&#x2006;" horiz-adv-x="316" />
<glyph unicode="&#x2007;" horiz-adv-x="316" />
<glyph unicode="&#x2008;" horiz-adv-x="237" />
<glyph unicode="&#x2009;" horiz-adv-x="379" />
<glyph unicode="&#x200a;" horiz-adv-x="105" />
<glyph unicode="&#x2010;" horiz-adv-x="686" d="M20 350l60 307h543l-60 -307h-543z" />
<glyph unicode="&#x2011;" horiz-adv-x="686" d="M20 350l60 307h543l-60 -307h-543z" />
<glyph unicode="&#x2012;" horiz-adv-x="686" d="M20 350l60 307h543l-60 -307h-543z" />
<glyph unicode="&#x2013;" horiz-adv-x="1134" d="M0 350l59 307h1033l-60 -307h-1032z" />
<glyph unicode="&#x2014;" horiz-adv-x="2152" d="M0 350l59 307h2030l-59 -307h-2030z" />
<glyph unicode="&#x2018;" horiz-adv-x="552" d="M158 1237q0 121 42 252t144 311l279 -28q-74 -131 -107 -233.5t-33 -211.5q0 -100 29 -223l-334 -29q-20 82 -20 162z" />
<glyph unicode="&#x2019;" horiz-adv-x="552" d="M135 1104q72 127 105.5 227.5t33.5 210.5q0 98 -28 230l332 28q18 -82 18 -160q0 -125 -41 -252.5t-143 -312.5z" />
<glyph unicode="&#x201a;" horiz-adv-x="552" d="M-43 -334q139 238 139 445q0 98 -26 223l331 28q18 -82 19 -159q0 -125 -41 -253t-143 -312z" />
<glyph unicode="&#x201c;" horiz-adv-x="1024" d="M158 1237q0 121 42 252t144 311l279 -28q-74 -131 -107 -233.5t-33 -211.5q0 -100 29 -223l-334 -29q-20 82 -20 162zM629 1237q0 121 42 252t144 311l279 -28q-74 -131 -107 -233.5t-33 -211.5q0 -100 29 -223l-334 -29q-20 82 -20 162z" />
<glyph unicode="&#x201d;" horiz-adv-x="1024" d="M135 1104q72 127 105.5 227.5t33.5 210.5q0 98 -28 230l332 28q18 -82 18 -160q0 -125 -41 -252.5t-143 -312.5zM606 1104q72 127 105.5 227.5t33.5 210.5q0 98 -28 230l332 28q18 -82 18 -160q0 -125 -41 -252.5t-143 -312.5z" />
<glyph unicode="&#x201e;" horiz-adv-x="1024" d="M-43 -334q139 238 139 445q0 98 -26 223l331 28q18 -82 19 -159q0 -125 -41 -253t-143 -312zM428 -334q139 238 139 445q0 98 -26 223l331 28q18 -82 19 -159q0 -125 -41 -253t-143 -312z" />
<glyph unicode="&#x2022;" horiz-adv-x="761" d="M63 672q0 158 104.5 262t258.5 104q129 0 206 -74.5t77 -197.5q0 -158 -104.5 -262.5t-258.5 -104.5q-129 0 -206 75t-77 198z" />
<glyph unicode="&#x2026;" horiz-adv-x="2084" d="M18 145q0 94 66 157t152 63q78 0 125 -47.5t47 -120.5q0 -90 -64.5 -153.5t-155.5 -63.5q-76 0 -123 47t-47 118zM786 145q0 94 66 157t152 63q78 0 125 -47.5t47 -120.5q0 -90 -64.5 -153.5t-155.5 -63.5q-76 0 -123 47t-47 118zM1554 145q0 94 66 157t152 63 q78 0 125 -47.5t47 -120.5q0 -90 -64.5 -153.5t-155.5 -63.5q-76 0 -123 47t-47 118z" />
<glyph unicode="&#x202f;" horiz-adv-x="379" />
<glyph unicode="&#x2039;" horiz-adv-x="702" d="M10 422l43 184l414 371l199 -281l-234 -213l182 -213l-264 -239z" />
<glyph unicode="&#x203a;" horiz-adv-x="702" d="M-6 311l235 213l-184 213l264 240l342 -391l-43 -185l-415 -370z" />
<glyph unicode="&#x205f;" horiz-adv-x="474" />
<glyph unicode="&#x20ac;" horiz-adv-x="1218" d="M-33 412l53 266h123l9 82h-142l53 266h154q84 209 254 320.5t399 111.5q193 0 377 -51l-104 -344q-164 39 -205 42t-68 3q-135 0 -208 -82h358l-53 -266h-408l-8 -82h344l-53 -266h-258q51 -84 190 -84q68 0 113 8t172 37l18 -342q-197 -51 -389 -51q-473 0 -541 432 h-180z" />
<glyph unicode="&#x2122;" horiz-adv-x="1253" d="M74 1284l28 154h473l-28 -154h-146l-45 -383h-174l45 383h-153zM555 901l63 533l224 8l84 -330l164 330l219 -8l-64 -533h-166l31 260l-121 -256l-174 -8l-63 264l-31 -260h-166z" />
<glyph unicode="&#x25fc;" horiz-adv-x="1013" d="M0 0v1014h1014v-1014h-1014z" />
<glyph unicode="&#xfb03;" horiz-adv-x="1976" d="M-229 -408l61 291q88 -18 139 -18q59 0 85 30.5t36 106.5l84 698h-153l59 308h133l16 135q49 410 420 409q98 0 246 -34l-61 -291q-84 18 -140 18q-59 0 -84.5 -30.5t-36.5 -106.5l-12 -100h328l16 135q49 410 396 409q94 0 229 -34l-62 -291q-70 18 -116 18 q-47 0 -69.5 -30.5t-33.5 -106.5l-12 -100h676l-123 -1008h-348l84 700h-328l-88 -733q-49 -410 -418 -409q-100 0 -248 34l62 291q88 -18 139 -18q59 0 85 30.5t36 106.5l84 698h-328l-88 -733q-49 -410 -418 -409q-100 0 -247 34zM1581 1276q0 90 64.5 153.5t154.5 63.5 q78 0 124 -46t46 -118q0 -90 -62.5 -155.5t-154.5 -65.5q-78 0 -125 47t-47 121z" />
<glyph unicode="&#xfb04;" horiz-adv-x="2068" d="M-229 -408l61 291q88 -18 139 -18q59 0 85 30.5t36 106.5l84 698h-153l59 308h133l16 135q49 410 420 409q98 0 246 -34l-61 -291q-84 18 -140 18q-59 0 -84.5 -30.5t-36.5 -106.5l-12 -100h328l16 135q27 215 155 312t406 97q162 0 508 -36l-143 -1180q0 -43 45 -43 q43 0 119 16l-8 -291q-166 -39 -279 -38q-109 0 -173 62t-64 169l4 57l118 967l-155 10q-94 0 -137 -32.5t-54 -114.5l-10 -90h205l-60 -308h-184l-88 -733q-49 -410 -418 -409q-100 0 -248 34l62 291q88 -18 139 -18q59 0 85 30.5t36 106.5l84 698h-328l-88 -733 q-49 -410 -418 -409q-100 0 -247 34z" />
</font>
</defs>
</svg>
