<?xml version="1.0" standalone="no"?>
<!DOCTYPE svg PUBLIC "-//W3C//DTD SVG 1.1//EN" "http://www.w3.org/Graphics/SVG/1.1/DTD/svg11.dtd" >
<svg xmlns="http://www.w3.org/2000/svg">
<metadata></metadata>
<defs>
<font id="ms_gloriola_ii_stdLtIt" horiz-adv-x="1146" >
<font-face units-per-em="2048" ascent="1536" descent="-512" />
<missing-glyph horiz-adv-x="559" />
<glyph unicode="&#xfb01;" horiz-adv-x="1087" d="M-266 -412l22 93q96 -29 160 -29q92 0 142.5 60.5t66.5 193.5l117 971h-166l20 94h158l29 246q43 336 313 335q80 0 180 -30l-20 -92q-96 29 -164 28q-90 0 -139.5 -57.5t-67.5 -196.5l-29 -233h615l-119 -971h-102l106 877h-512l-119 -983q-41 -336 -311 -336 q-80 0 -180 30zM872 1210q0 39 25.5 64.5t60.5 25.5q31 0 51.5 -18t20.5 -47q0 -39 -27.5 -64.5t-62.5 -25.5q-31 0 -49.5 18.5t-18.5 46.5z" />
<glyph unicode="&#xfb02;" horiz-adv-x="1241" d="M-266 -412l22 93q96 -29 160 -29q92 0 142.5 60.5t66.5 193.5l117 971h-166l20 94h158l29 246q23 180 120 257.5t289 77.5q139 0 346 -30l-164 -1350q0 -96 93 -96q66 0 184 35v-93q-121 -39 -207 -38q-174 0 -174 172l4 61l152 1223q-162 23 -246 22q-143 0 -208.5 -54 t-86.5 -200l-29 -233h320l-21 -94h-311l-119 -983q-41 -336 -311 -336q-80 0 -180 30z" />
<glyph horiz-adv-x="0" />
<glyph unicode="&#xd;" horiz-adv-x="0" />
<glyph unicode=" "  horiz-adv-x="559" />
<glyph unicode="&#x09;" horiz-adv-x="559" />
<glyph unicode="&#xa0;" horiz-adv-x="559" />
<glyph unicode="!" horiz-adv-x="704" d="M193 63q0 41 27.5 70t68.5 29q35 0 55.5 -20.5t20.5 -53.5q0 -41 -28 -69.5t-69 -28.5q-35 0 -55 20.5t-20 52.5zM266 356l125 1082h111l-142 -1073z" />
<glyph unicode="&#x22;" horiz-adv-x="471" d="M125 991l41 447h113l-70 -447h-84zM340 991l41 447h113l-70 -447h-84z" />
<glyph unicode="#" d="M-10 406l8 94h190l123 438h-207l9 94h223l115 410l104 -8l-113 -402h435l114 410l105 -8l-113 -402h174l-8 -94h-191l-122 -438h206l-8 -94h-225l-113 -410l-104 8l110 402h-434l-112 -410l-105 8l111 402h-172zM295 500h434l123 438h-434z" />
<glyph unicode="$" horiz-adv-x="1089" d="M63 63l35 99q160 -80 338 -84l76 614q-205 96 -277.5 179t-72.5 186q0 170 119.5 277.5t322.5 121.5l29 223l96 9l-29 -232q174 -6 336 -82l-35 -98q-143 76 -313 84l-74 -596q158 -74 217.5 -121t94.5 -105.5t35 -136.5q0 -176 -120 -287.5t-323 -129.5l-26 -226l-95 -8 l27 230q-199 8 -361 83zM268 1067q0 -76 62.5 -138.5t195.5 -123.5l68 555q-160 -16 -243 -94t-83 -199zM530 82q147 14 235.5 96t88.5 215q0 68 -51 125t-203 131z" />
<glyph unicode="%" horiz-adv-x="1568" d="M90 942q0 233 102.5 371.5t282.5 138.5q276 0 277 -299q0 -236 -104.5 -373t-282.5 -137q-133 0 -204 76t-71 223zM186 942q0 -211 179 -211q135 0 212.5 113.5t77.5 308.5q0 211 -180 211q-133 0 -211 -113.5t-78 -308.5zM211 0l1044 1438h113l-1042 -1438h-115z M827 283q0 233 102.5 371.5t282.5 138.5q276 0 277 -299q0 -236 -104.5 -373t-282.5 -137q-133 0 -204 76t-71 223zM924 283q0 -211 178 -211q135 0 213 113.5t78 308.5q0 211 -181 211q-133 0 -210.5 -113.5t-77.5 -308.5z" />
<glyph unicode="&#x26;" horiz-adv-x="1245" d="M66 301q0 129 70.5 238.5t205.5 179.5q-145 139 -145 317q0 195 130 308.5t353 113.5q199 0 371 -84l-35 -98q-164 84 -344 84q-172 0 -270.5 -85t-98.5 -237q0 -176 150 -280h792l-20 -99h-256l-113 -925l-106 -8l36 301q-158 -47 -303 -47q-199 0 -308 85t-109 236z M174 317q0 -113 85 -176t245 -63q145 0 295 51l63 530h-442q-117 -51 -181.5 -143t-64.5 -199z" />
<glyph unicode="'" horiz-adv-x="256" d="M125 991l41 447h113l-70 -447h-84z" />
<glyph unicode="(" horiz-adv-x="647" d="M92 590q0 391 169 691t462 441l76 -67q-283 -127 -440.5 -403.5t-157.5 -647.5q0 -512 381 -706l-93 -68q-397 221 -397 760z" />
<glyph unicode=")" horiz-adv-x="647" d="M-127 -102q283 127 440.5 403.5t157.5 646.5q0 512 -381 707l92 67q398 -220 398 -759q0 -391 -169 -691.5t-462 -441.5z" />
<glyph unicode="*" horiz-adv-x="954" d="M123 1098l43 112l313 -120l27 344l119 8l-56 -352l336 118l29 -108l-344 -96l178 -267l-100 -75l-160 292l-227 -286l-93 61l250 277z" />
<glyph unicode="+" d="M82 674l8 94h432v436l103 8v-444h440l-6 -94h-434v-436l-103 -11v447h-440z" />
<glyph unicode="," horiz-adv-x="397" d="M-12 -266q98 164 98 309q0 72 -20 162l131 10q14 -66 14 -125q-4 -156 -129 -366z" />
<glyph unicode="-" horiz-adv-x="542" d="M43 438l18 94h392l-19 -94h-391z" />
<glyph unicode="." horiz-adv-x="397" d="M39 63q0 41 27.5 70t68.5 29q35 0 55.5 -20.5t20.5 -53.5q0 -41 -27.5 -69.5t-68.5 -28.5q-35 0 -55.5 20.5t-20.5 52.5z" />
<glyph unicode="/" horiz-adv-x="600" d="M-193 -156l904 1872l108 -8l-903 -1872z" />
<glyph unicode="0" horiz-adv-x="1331" d="M129 528q0 430 173 680t462 250q227 0 340 -142t113 -407q0 -430 -171.5 -679.5t-463.5 -249.5q-225 0 -339 142t-114 406zM236 528q0 -219 88 -334.5t258 -115.5q246 0 387 228.5t141 602.5q0 219 -88 335t-258 116q-246 0 -387 -224.5t-141 -607.5z" />
<glyph unicode="1" horiz-adv-x="686" d="M115 1188l12 106l393 144h107l-176 -1438h-107l162 1331z" />
<glyph unicode="2" horiz-adv-x="1036" d="M-2 0l2 98q395 328 550 483.5t228.5 281.5t73.5 247q0 250 -299 250q-184 0 -365 -84l-10 98q201 84 393 84q188 0 287.5 -88t99.5 -256q0 -139 -74.5 -277.5t-226 -294t-516.5 -444.5h731l-18 -98h-856z" />
<glyph unicode="3" horiz-adv-x="1021" d="M-4 63l35 99q168 -84 356 -84q184 0 291.5 85t107.5 236q0 82 -45 150.5t-129 109.5h-319l20 99h291q121 70 176.5 168t55.5 198q0 123 -86 179.5t-218 56.5q-176 0 -364 -84l-10 98q193 84 391 84q180 0 287.5 -81t107.5 -232q0 -236 -237 -426q188 -115 188 -313 q0 -199 -141.5 -312.5t-370.5 -113.5q-201 0 -387 83z" />
<glyph unicode="4" horiz-adv-x="1148" d="M23 379l4 98q197 209 306 438.5t146 522.5h107q-35 -287 -136.5 -513.5t-302.5 -447.5h506l47 387l109 8l-49 -395h313l-20 -98h-305l-46 -379h-106l45 379h-618z" />
<glyph unicode="5" horiz-adv-x="1005" d="M16 66l35 96q160 -84 346 -84t293 99t107 274q0 258 -371 258h-268l90 729h706l-20 -99h-592l-66 -536l150 6q244 0 360.5 -88t116.5 -270q0 -223 -135 -347t-379 -124q-184 0 -373 86z" />
<glyph unicode="6" horiz-adv-x="1130" d="M100 492q0 442 178.5 704t469.5 262q162 0 333 -80l-43 -96q-164 78 -307 78q-195 0 -337 -183.5t-177 -486.5q279 145 481 146q160 0 247 -88.5t87 -251.5q0 -227 -146.5 -371.5t-379.5 -144.5q-195 0 -300.5 133t-105.5 379zM207 504q0 -426 301 -426q188 0 303 116.5 t115 301.5q0 117 -60.5 179t-173.5 62q-193 0 -483 -151l-2 -41v-41z" />
<glyph unicode="7" horiz-adv-x="946" d="M113 1339l20 99h868l-4 -99q-319 -336 -463.5 -637t-193.5 -702h-107q49 414 203 735.5t449 603.5h-772z" />
<glyph unicode="8" horiz-adv-x="1171" d="M51 289q0 143 91 251.5t333 211.5q-168 80 -228.5 157.5t-60.5 177.5q0 166 132.5 268.5t353.5 102.5q211 0 317.5 -87t106.5 -228q0 -119 -79 -211t-290 -187q174 -82 245.5 -166.5t71.5 -191.5q0 -193 -144 -300t-396 -107q-223 0 -338 80.5t-115 228.5zM158 289 q0 -100 88 -155.5t258 -55.5q205 0 319.5 81t114.5 228q0 80 -69.5 151.5t-266.5 155.5q-201 -82 -278.5 -136t-121.5 -119.5t-44 -149.5zM293 1087q0 -57 30.5 -102t84 -83t194.5 -99q182 74 247.5 118t102.5 97t37 125q0 98 -80 157.5t-237 59.5q-176 0 -277.5 -77 t-101.5 -196z" />
<glyph unicode="9" horiz-adv-x="1130" d="M59 59l43 97q165 -78 308 -78q188 0 332.5 180t181.5 490q-279 -145 -482 -146q-160 0 -246.5 88t-86.5 252q0 227 146 371.5t380 144.5q195 0 300 -133t105 -379q0 -442 -178 -704t-469 -262q-162 0 -334 79zM215 942q0 -117 60.5 -179.5t173.5 -62.5q195 0 483 150 l2 84q0 426 -301 426q-188 0 -303 -117t-115 -301z" />
<glyph unicode=":" horiz-adv-x="397" d="M39 63q0 41 27.5 70t68.5 29q35 0 55.5 -20.5t20.5 -53.5q0 -41 -27.5 -69.5t-68.5 -28.5q-35 0 -55.5 20.5t-20.5 52.5zM139 883q0 41 28 69.5t69 28.5q35 0 55 -20.5t20 -53.5q0 -41 -27.5 -69.5t-68.5 -28.5q-35 0 -55.5 20.5t-20.5 53.5z" />
<glyph unicode=";" horiz-adv-x="397" d="M-12 -266q98 164 98 309q0 72 -20 162l131 10q14 -66 14 -125q-4 -156 -129 -366zM139 883q0 41 28 69.5t69 28.5q35 0 55 -20.5t20 -53.5q0 -41 -27.5 -69.5t-68.5 -28.5q-35 0 -55.5 20.5t-20.5 53.5z" />
<glyph unicode="&#x3c;" d="M82 676l8 94l950 442l35 -88l-868 -403l868 -404l-35 -88z" />
<glyph unicode="=" d="M82 395l8 94h975l-8 -94h-975zM82 952l8 95h975l-8 -95h-975z" />
<glyph unicode="&#x3e;" d="M72 317l868 404l-868 403l34 88l959 -446l-8 -94l-951 -443z" />
<glyph unicode="?" horiz-adv-x="960" d="M160 1395q215 63 387 63q186 0 291.5 -82t105.5 -231q0 -170 -123 -316.5t-319 -201.5l-35 -262l-94 -9l39 336q201 47 312.5 163t111.5 269q0 111 -78 173.5t-207 62.5q-160 0 -381 -64zM299 63q0 41 27.5 70t68.5 29q35 0 55.5 -20.5t20.5 -53.5q0 -41 -27.5 -69.5 t-68.5 -28.5q-35 0 -55.5 20.5t-20.5 52.5z" />
<glyph unicode="@" horiz-adv-x="2080" d="M113 313q0 520 266 812t737 292q391 0 601 -198.5t210 -583.5q0 -301 -124 -478t-339 -177q-223 0 -231 272q-221 -272 -406 -272q-123 0 -189.5 98t-66.5 280q0 199 57.5 340.5t161 217t238.5 75.5q147 0 385 -108l-70 -566l-6 -75q0 -168 127 -168q160 0 260.5 141 t100.5 420q0 338 -184.5 513t-524.5 175q-424 0 -662.5 -267.5t-238.5 -742.5q0 -313 176 -487t512 -174q209 0 402 82l38 -88q-201 -88 -440 -88q-385 0 -587.5 198.5t-202.5 556.5zM674 358q0 -127 37 -205.5t116 -78.5q88 0 205 96t221 260l50 397q-156 70 -275 70 q-164 0 -259 -144.5t-95 -394.5z" />
<glyph unicode="A" horiz-adv-x="1290" d="M-31 0l697 1434l141 8l350 -1442h-110l-93 387h-684l-186 -387h-115zM317 485h615l-203 854z" />
<glyph unicode="B" horiz-adv-x="1200" d="M74 31l174 1407h530q152 0 238 -80t86 -211q0 -246 -228 -416q100 -59 148.5 -146t48.5 -182q0 -195 -155.5 -309t-419.5 -114q-127 0 -422 51zM190 111q190 -33 318 -33q229 0 343 88t114 233q0 82 -45.5 150.5t-128.5 109.5h-533zM270 758h492q117 70 174 169t57 208 q0 92 -59.5 148t-167.5 56h-424z" />
<glyph unicode="C" horiz-adv-x="1243" d="M129 559q0 287 92 488.5t257 306t384 104.5q195 0 377 -76l-35 -98q-176 76 -354 76q-180 0 -319.5 -91t-217 -266.5t-77.5 -429.5q0 -242 118.5 -368.5t337.5 -126.5q180 0 375 76l10 -99q-200 -75 -392 -75h-5q-264 0 -407.5 149.5t-143.5 429.5z" />
<glyph unicode="D" horiz-adv-x="1413" d="M74 27l174 1411h481q567 0 567 -553q0 -420 -209.5 -662.5t-570.5 -242.5q-236 0 -442 47zM190 109q168 -31 345 -31q303 0 478 214t175 572q0 475 -473 475h-373z" />
<glyph unicode="E" horiz-adv-x="1116" d="M72 0l176 1438h870l-20 -99h-756l-72 -581h662l-21 -99h-653l-70 -561h764l-18 -98h-862z" />
<glyph unicode="F" horiz-adv-x="1054" d="M72 0l176 1438h870l-20 -99h-756l-74 -602h662l-21 -98h-653l-78 -639h-106z" />
<glyph unicode="G" horiz-adv-x="1382" d="M129 557q0 424 200.5 662.5t553.5 238.5q195 0 377 -76l-35 -98q-177 76 -355 76q-190 0 -333.5 -91t-222 -269.5t-78.5 -428.5q0 -242 118.5 -367.5t356.5 -125.5q166 0 346 63l55 447h-407l20 98h506l-76 -616q-264 -90 -465 -90q-276 0 -418.5 147t-142.5 430z" />
<glyph unicode="H" horiz-adv-x="1339" d="M72 0l176 1438h106l-84 -680h820l84 680h106l-176 -1438h-107l80 659h-819l-80 -659h-106z" />
<glyph unicode="I" horiz-adv-x="413" d="M72 0l176 1438h106l-176 -1438h-106z" />
<glyph unicode="J" horiz-adv-x="464" d="M-158 -252q125 94 206 197.5t97 242.5l154 1250h107l-154 -1252q-20 -158 -99 -273.5t-239 -231.5z" />
<glyph unicode="K" horiz-adv-x="1163" d="M72 0l176 1438h106l-84 -686l766 690l140 -8l-795 -713l629 -717l-138 -8l-610 690l-84 -686h-106z" />
<glyph unicode="L" horiz-adv-x="1054" d="M72 0l176 1438h106l-166 -1340h723l-18 -98h-821z" />
<glyph unicode="M" horiz-adv-x="1705" d="M72 0l176 1434l135 8l401 -1323l725 1323l138 -8l-177 -1434h-106l152 1239l-674 -1235l-133 -8l-379 1243l-152 -1239h-106z" />
<glyph unicode="N" horiz-adv-x="1339" d="M72 0l174 1434l108 8l666 -1264l154 1260h106l-176 -1434l-109 -8l-663 1264l-154 -1260h-106z" />
<glyph unicode="O" horiz-adv-x="1540" d="M127 549q0 422 196.5 665.5t542.5 243.5q262 0 409.5 -148.5t147.5 -420.5q0 -422 -196.5 -665.5t-542.5 -243.5q-260 0 -408.5 148t-148.5 421zM233 549q0 -219 117 -345t334 -126q293 0 463 214t170 597q0 219 -117 345t-334 126q-293 0 -463 -214t-170 -597z" />
<glyph unicode="P" horiz-adv-x="1159" d="M72 0l176 1438h354q528 0 528 -375q0 -254 -176 -400.5t-473 -146.5q-78 0 -237 19l-66 -535h-106zM254 633q141 -18 240 -19q244 0 387 115t143 322q0 288 -435 288h-3h-244z" />
<glyph unicode="Q" horiz-adv-x="1540" d="M127 549q0 422 196.5 665.5t542.5 243.5q262 0 409.5 -148.5t147.5 -420.5q0 -350 -138 -581.5t-390 -301.5q27 -152 76 -219.5t147 -67.5q70 0 166 35l2 -94q-113 -39 -203 -39q-115 0 -188.5 84t-106.5 281l-104 -6q-260 0 -408.5 148t-148.5 421zM233 549 q0 -219 117 -345t334 -126q293 0 463 214t170 597q0 219 -117 345t-334 126q-293 0 -463 -214t-170 -597z" />
<glyph unicode="R" horiz-adv-x="1222" d="M72 0l176 1438h346q498 0 498 -355q0 -186 -93.5 -303.5t-242.5 -171.5l303 -604l-119 -8l-289 586q-66 -16 -172 -17q-27 0 -231 17l-70 -582h-106zM260 682q184 -18 229 -18q227 0 362.5 107.5t135.5 297.5q0 147 -107.5 208.5t-306.5 61.5h-231z" />
<glyph unicode="S" horiz-adv-x="1130" d="M84 63l35 99q168 -84 360 -84q182 0 288.5 85t106.5 230q0 84 -78.5 151.5t-267.5 149.5q-172 74 -259 162t-87 201q0 182 137.5 291.5t360.5 109.5q197 0 377 -84l-35 -98q-156 86 -354 86q-178 0 -278.5 -82t-100.5 -213q0 -86 80 -153.5t266 -147.5q182 -82 264 -168 t82 -197q0 -193 -144.5 -307t-373.5 -114q-199 0 -379 83z" />
<glyph unicode="T" horiz-adv-x="1122" d="M92 1339l21 99h1093l-20 -99h-490l-164 -1339h-106l164 1339h-498z" />
<glyph unicode="U" horiz-adv-x="1339" d="M119 344l4 78l125 1016h106l-125 -1016l-4 -62q0 -135 92.5 -208.5t278.5 -73.5q408 0 453 344l125 1016h106l-125 -1016q-27 -217 -173 -329.5t-398 -112.5q-227 0 -346 92t-119 272z" />
<glyph unicode="V" horiz-adv-x="1284" d="M143 1434l109 8l317 -1340l645 1340l111 -8l-696 -1434h-137z" />
<glyph unicode="W" horiz-adv-x="1953" d="M143 1434l111 8l215 -1340l539 1332l120 8l215 -1340l543 1340l109 -8l-594 -1434h-137l-213 1280l-525 -1280h-137z" />
<glyph unicode="X" horiz-adv-x="1314" d="M10 4l592 719l-418 711l119 8l367 -637l514 637l129 -8l-592 -719l418 -711l-119 -8l-367 639l-514 -639z" />
<glyph unicode="Y" horiz-adv-x="1191" d="M123 1434l121 8l354 -719l528 719l127 -8l-610 -813l-76 -621h-106l76 621z" />
<glyph unicode="Z" horiz-adv-x="1179" d="M18 0l2 98l1012 1241h-858l21 99h979l-5 -99l-1011 -1241h858l-19 -98h-979z" />
<glyph unicode="[" horiz-adv-x="536" d="M72 -164l229 1880h352l-18 -94h-242l-209 -1692h250l-18 -94h-344z" />
<glyph unicode="\" horiz-adv-x="600" d="M35 1708l100 8l455 -1872l-101 -8z" />
<glyph unicode="]" horiz-adv-x="536" d="M-90 -164l18 94h240l209 1692h-250l18 94h344l-229 -1880h-350z" />
<glyph unicode="^" horiz-adv-x="954" d="M6 471l500 967h131l262 -967l-108 -8l-228 876l-444 -876z" />
<glyph unicode="_" horiz-adv-x="917" d="M-90 -154l18 95h889l-20 -95h-887z" />
<glyph unicode="`" horiz-adv-x="516" d="M207 1438h115l135 -324h-99z" />
<glyph unicode="a" horiz-adv-x="1040" d="M72 358q0 199 57 340.5t160.5 217t238.5 75.5q147 0 385 -108l-108 -883h-103l31 252q-221 -272 -405 -272q-123 0 -189.5 98t-66.5 280zM174 358q0 -127 37 -205.5t117 -78.5q88 0 204.5 96t221.5 260l49 397q-156 70 -275 70q-164 0 -259 -144.5t-95 -394.5z" />
<glyph unicode="b" horiz-adv-x="1036" d="M82 88l180 1456l105 8l-105 -833q221 272 406 272q123 0 189.5 -98t66.5 -281q0 -199 -57.5 -340t-161 -216.5t-238.5 -75.5q-147 0 -385 108zM193 143q154 -69 271 -69h3q164 0 259 144t95 394q0 127 -36.5 206t-116.5 79q-88 0 -205 -96t-221 -260z" />
<glyph unicode="c" horiz-adv-x="886" d="M72 369q0 295 129 458.5t360 163.5q135 0 275 -30l-27 -95q-131 31 -252 31q-180 0 -281.5 -136t-101.5 -376q0 -311 195 -311q106 0 327 127l37 -88q-121 -68 -204 -100.5t-160 -32.5q-297 0 -297 389z" />
<glyph unicode="d" horiz-adv-x="1040" d="M72 358q0 199 57 340.5t160.5 217t238.5 75.5q129 0 287 -65l76 618l104 8l-190 -1552h-103l31 252q-221 -272 -405 -272q-123 0 -189.5 98t-66.5 280zM174 358q0 -127 37 -205.5t117 -78.5q88 0 204.5 96t221.5 260l49 397q-156 70 -275 70q-164 0 -259 -144.5 t-95 -394.5z" />
<glyph unicode="e" horiz-adv-x="882" d="M72 369q0 289 129 455.5t344 166.5q104 0 175 -62.5t71 -152.5q0 -158 -153 -255t-464 -154q0 -141 49 -217t146 -76q102 0 327 127l37 -88q-121 -68 -202.5 -100.5t-161.5 -32.5q-297 0 -297 389zM178 463q252 49 381 124t129 189q0 47 -37.5 84t-105.5 37 q-150 0 -248 -114.5t-119 -319.5z" />
<glyph unicode="f" horiz-adv-x="681" d="M-266 -412l22 93q96 -29 160 -29q92 0 142.5 60.5t66.5 193.5l117 971h-166l20 94h158l29 246q43 335 313 335q80 0 180 -30l-20 -92q-93 28 -159 28h-5q-90 0 -139.5 -57.5t-67.5 -196.5l-29 -233h320l-21 -94h-311l-119 -983q-41 -336 -311 -336q-80 0 -180 30z" />
<glyph unicode="g" horiz-adv-x="1060" d="M25 -371l26 97q186 -74 340 -74q121 0 216 89t112 222l35 289q-221 -272 -406 -272q-123 0 -189.5 98t-66.5 280q0 199 57.5 340.5t161 217t238.5 75.5q147 0 385 -108l-113 -920q-18 -170 -148 -287.5t-294 -117.5q-162 0 -354 71zM195 358q0 -127 36.5 -205.5 t116.5 -78.5q88 0 205 96t221 260l49 397q-156 70 -274 70q-164 0 -259 -144.5t-95 -394.5z" />
<glyph unicode="h" horiz-adv-x="1064" d="M72 0l188 1544l105 8l-103 -833q227 272 412 272q143 0 192 -73.5t49 -176.5l-4 -71l-82 -670h-102l82 678l4 61q0 158 -139 158q-88 0 -207 -94t-227 -262l-66 -541h-102z" />
<glyph unicode="i" horiz-adv-x="409" d="M72 0l116 967l105 8l-119 -975h-102zM195 1210q0 39 25.5 64.5t60.5 25.5q31 0 51 -18t20 -47q0 -39 -27.5 -64.5t-62.5 -25.5q-31 0 -49 18.5t-18 46.5z" />
<glyph unicode="j" horiz-adv-x="481" d="M-141 -379q121 92 196.5 191.5t91.5 234.5l113 920l105 8l-115 -930q-20 -156 -95 -265.5t-229 -221.5zM266 1210q0 39 25.5 64.5t60.5 25.5q31 0 51.5 -18t20.5 -47q0 -39 -27.5 -64.5t-62.5 -25.5q-31 0 -49.5 18.5t-18.5 46.5z" />
<glyph unicode="k" horiz-adv-x="935" d="M72 0l188 1544l105 8l-125 -1017l522 440l139 -8l-549 -463l482 -500l-138 -8l-465 477l-57 -473h-102z" />
<glyph unicode="l" horiz-adv-x="563" d="M92 156l4 57l164 1331l105 8l-168 -1380q0 -96 92 -96q66 0 184 35v-93q-132 -38 -201 -38h-4q-176 0 -176 176z" />
<glyph unicode="m" horiz-adv-x="1642" d="M72 0l116 967l105 8l-29 -246q219 262 379 262q123 0 178.5 -69.5t55.5 -180.5v-16q227 266 383 266q137 0 185 -76.5t48 -175.5l-4 -69l-82 -670h-102l81 678l5 63q0 156 -131 156q-86 0 -196 -97.5t-208 -258.5l-65 -541h-103l82 678l4 63q0 156 -131 156 q-86 0 -195.5 -97.5t-207.5 -258.5l-66 -541h-102z" />
<glyph unicode="n" horiz-adv-x="1064" d="M72 0l116 967l105 8l-31 -256q227 272 412 272q143 0 192 -73.5t49 -176.5l-4 -71l-82 -670h-102l82 678l4 61q0 158 -139 158q-88 0 -207 -94t-227 -262l-66 -541h-102z" />
<glyph unicode="o" horiz-adv-x="1038" d="M72 369q0 264 140 443t349 179q160 0 262.5 -96t102.5 -293q0 -268 -141.5 -445t-348.5 -177q-160 0 -262 96t-102 293zM174 369q0 -150 72.5 -222.5t189.5 -72.5q164 0 275.5 151.5t111.5 376.5q0 150 -72.5 222.5t-189.5 72.5q-164 0 -275.5 -151.5t-111.5 -376.5z" />
<glyph unicode="p" horiz-adv-x="1034" d="M18 -426l170 1393l105 8l-33 -256q221 272 406 272q123 0 189.5 -98t66.5 -281q0 -199 -57.5 -340t-161 -216.5t-238.5 -75.5q-129 0 -287 65l-57 -463zM190 143q154 -69 272 -69h3q164 0 259 144t95 394q0 127 -37 206t-116 79q-88 0 -205 -96t-221 -260z" />
<glyph unicode="q" horiz-adv-x="1040" d="M72 358q0 199 57 340.5t160.5 217t238.5 75.5q147 0 385 -108l-159 -1301l-103 -8l82 678q-221 -272 -405 -272q-123 0 -189.5 98t-66.5 280zM174 358q0 -127 37 -205.5t117 -78.5q88 0 204.5 96t221.5 260l49 397q-156 70 -275 70q-164 0 -259 -144.5t-95 -394.5z" />
<glyph unicode="r" horiz-adv-x="718" d="M72 0l116 967l105 8l-29 -225q84 121 158 181t160 60q57 0 153 -22l-26 -95q-76 23 -127 23q-143 0 -338 -336l-70 -561h-102z" />
<glyph unicode="s" horiz-adv-x="858" d="M66 41l26 94q123 -61 260 -61q111 0 176.5 51t65.5 143q0 55 -52.5 98.5t-174.5 94.5q-227 94 -228 246q0 131 89 207.5t243 76.5q156 0 274 -61l-24 -94q-113 61 -252 61q-104 0 -164.5 -46t-60.5 -128q0 -55 50 -97t177 -96q225 -96 225 -247q0 -141 -95 -222t-251 -81 q-158 0 -284 61z" />
<glyph unicode="t" horiz-adv-x="749" d="M76 877l20 94h158l37 307l104 8l-39 -315h320l-21 -94h-311l-84 -719q0 -84 57 -84q74 0 252 127l37 -88q-205 -133 -289 -133q-162 0 -161 174l4 55l82 668h-166z" />
<glyph unicode="u" horiz-adv-x="1064" d="M102 231l4 70l82 666l105 8l-84 -682l-4 -62q0 -157 139 -157h2q90 0 209 96t223 260l66 537l104 8l-119 -975h-102l31 252q-227 -272 -412 -272q-143 0 -193.5 73.5t-50.5 177.5z" />
<glyph unicode="v" horiz-adv-x="954" d="M66 967l108 8l227 -875q246 389 387 875l105 -10q-158 -547 -442 -965h-121z" />
<glyph unicode="w" horiz-adv-x="1511" d="M66 967l110 8l166 -877l379 869l135 8l166 -877q229 381 356 877l101 -10q-135 -543 -408 -965h-123l-168 877l-381 -877h-131z" />
<glyph unicode="x" horiz-adv-x="909" d="M-39 4l408 481l-293 482l119 8l245 -410l342 410l121 -8l-409 -482l292 -481l-118 -8l-246 410l-342 -410z" />
<glyph unicode="y" horiz-adv-x="954" d="M29 -381q172 168 321 381h-20l-264 967l108 8l232 -893q256 393 399 893l104 -10q-242 -842 -805 -1401z" />
<glyph unicode="z" horiz-adv-x="884" d="M-2 0l2 86l698 791h-563l21 94h684l-2 -86l-701 -791h604l-18 -94h-725z" />
<glyph unicode="{" horiz-adv-x="659" d="M57 729l21 94h55q82 4 131 61.5t66 192.5l37 303q23 174 109.5 255t244.5 81h14l-18 -94q-111 0 -171.5 -56.5t-76.5 -197.5l-35 -283q-31 -238 -182 -309q106 -55 110 -213l-6 -96q-37 -328 -37 -379q2 -158 185 -158h12l-18 -94h-13q-270 0 -270 258l4 78l37 303l6 96 q-4 158 -151 158h-54z" />
<glyph unicode="|" horiz-adv-x="450" d="M70 -172l231 1888l105 8l-232 -1888z" />
<glyph unicode="}" horiz-adv-x="659" d="M-51 -164l18 94q113 0 172.5 57.5t77.5 196.5l33 283q31 238 182 309q-106 55 -108 213l4 96l34 283l7 96q-4 158 -189 158h-12l18 94h13q270 0 270 -258l-4 -78l-37 -303l-4 -94q2 -160 149 -160h54l-21 -94h-55q-82 -4 -131 -61.5t-66 -192.5l-37 -303 q-43 -336 -354 -336h-14z" />
<glyph unicode="~" d="M70 582q106 266 295 266q82 0 137 -35t101 -78t90 -77.5t106 -34.5q66 0 108.5 54t77.5 134l98 -16q-107 -267 -295 -267q-84 0 -138 35t-98 78t-89 78t-107 35q-66 0 -108.5 -54.5t-79.5 -134.5z" />
<glyph unicode="&#xa1;" horiz-adv-x="704" d="M158 -467l139 1073l94 8l-123 -1081h-110zM293 883q0 41 27.5 69.5t68.5 28.5q35 0 55.5 -20.5t20.5 -53.5q0 -41 -27.5 -69.5t-68.5 -28.5q-35 0 -55.5 20.5t-20.5 53.5z" />
<glyph unicode="&#xa2;" horiz-adv-x="997" d="M115 817q0 281 134 447t376 190l28 225l97 9l-29 -230q143 -6 272 -53l-24 -94q-141 53 -287 53q-217 0 -341 -142.5t-124 -387.5q0 -174 94.5 -264.5t261.5 -90.5q147 0 299 53l2 -94q-143 -49 -286 -53l-27 -219l-94 -8l29 229q-188 18 -284.5 130t-96.5 300z" />
<glyph unicode="&#xa3;" horiz-adv-x="1058" d="M20 0l3 98q352 281 380 529h-317l20 94h295l-20 80q-66 190 -66 282q0 172 92.5 273.5t243.5 101.5q172 0 334 -51l-35 -98q-164 51 -301 51q-106 0 -166.5 -76t-60.5 -201q0 -90 67 -276q14 -43 21 -86h395l-20 -94h-373q-25 -274 -358 -529h741l-18 -98h-857z" />
<glyph unicode="&#xa4;" d="M129 346l147 148q-69 92 -69 227q0 133 69 227l-147 148l76 63l141 -141q96 70 227 69q127 0 228 -69l141 141l76 -63l-148 -148q70 -100 70 -227q0 -131 -70 -227l148 -148l-74 -65l-143 143q-94 -70 -228 -70q-135 0 -227 70l-141 -141zM309 721q0 -121 74 -196.5 t190 -75.5q119 0 192 75.5t73 196.5t-74 196.5t-191 75.5q-119 0 -191.5 -75.5t-72.5 -196.5z" />
<glyph unicode="&#xa5;" horiz-adv-x="1191" d="M100 287l19 94h387l31 240l-5 6h-391l21 94h323l-362 713l121 8l354 -719l528 719l127 -8l-534 -713h323l-20 -94h-375l-4 -6l-31 -240h387l-18 -94h-379l-35 -287h-106l35 287h-396z" />
<glyph unicode="&#xa6;" horiz-adv-x="450" d="M70 -172l96 780l102 8l-94 -780zM207 936l94 780l105 8l-97 -780z" />
<glyph unicode="&#xa7;" horiz-adv-x="1183" d="M47 -358l37 96q184 -82 342 -82h27l26 2q35 113 35 209q0 213 -139 444q-131 217 -180.5 345t-49.5 253q0 244 163 396.5t421 152.5q182 0 367 -84l-37 -96q-184 82 -342 82h-29l-26 -2q-35 -113 -35 -209q0 -211 141 -444q123 -203 176 -338.5t53 -260.5 q0 -244 -162.5 -396t-420.5 -152q-182 0 -367 84zM252 934q0 -109 41 -217.5t184 -358.5q143 -254 144 -479q0 -92 -27 -196q135 43 216 150.5t81 248.5q0 113 -46 228.5t-177 346.5q-145 252 -146 480q0 92 27 196q-135 -43 -216 -150.5t-81 -248.5z" />
<glyph unicode="&#xa8;" horiz-adv-x="700" d="M180 1210q0 39 25.5 64.5t60.5 25.5q31 0 51.5 -18t20.5 -47q0 -39 -27.5 -64.5t-62.5 -25.5q-31 0 -49.5 18.5t-18.5 46.5zM561 1210q0 39 25.5 64.5t60.5 25.5q31 0 51.5 -18t20.5 -47q0 -39 -27.5 -64.5t-62.5 -25.5q-31 0 -49.5 18.5t-18.5 46.5z" />
<glyph unicode="&#xa9;" horiz-adv-x="1622" d="M70 610q0 236 109.5 430.5t304 306t423.5 111.5q293 0 474.5 -172t181.5 -459q0 -236 -110 -430t-304.5 -305.5t-423.5 -111.5q-297 0 -476 171.5t-179 458.5zM172 625q0 -252 155.5 -401.5t409.5 -149.5q199 0 367 97t262 267t94 375q0 252 -155.5 401.5t-409.5 149.5 q-199 0 -367 -97.5t-262 -267t-94 -374.5zM440 639q0 227 115 354t317 127q119 0 226 -41l-27 -94q-98 41 -211 41q-145 0 -231 -97.5t-86 -273.5q0 -115 62.5 -180t178.5 -65q115 0 222 41l4 -95q-119 -41 -238 -41q-158 0 -245 83t-87 241z" />
<glyph unicode="&#xaa;" horiz-adv-x="673" d="M133 1061q0 186 82 291.5t219 105.5q100 0 252 -67l-68 -557h-96l19 147q-137 -160 -246 -160q-80 0 -121 67.5t-41 172.5zM229 1067q0 -158 84 -158q51 0 119 56.5t125 144.5l27 223q-82 39 -154 39q-94 0 -147.5 -82t-53.5 -223z" />
<glyph unicode="&#xab;" horiz-adv-x="907" d="M23 440l20 95l426 380l59 -84l-405 -352l317 -352l-75 -72zM371 440l20 95l426 380l60 -84l-406 -352l317 -352l-75 -72z" />
<glyph unicode="&#xac;" d="M82 674l8 94h971v-530l-103 -11v447h-876z" />
<glyph unicode="&#xad;" horiz-adv-x="542" d="M43 438l18 94h392l-19 -94h-391z" />
<glyph unicode="&#xae;" horiz-adv-x="884" d="M117 1032q0 184 121.5 305t300.5 121q152 0 240.5 -89t88.5 -226q0 -184 -122 -305t-300 -121q-152 0 -240.5 87t-88.5 228zM197 1044q0 -117 69.5 -186.5t190.5 -69.5q139 0 235 98.5t96 243.5q0 117 -69.5 186.5t-188.5 69.5h-2q-139 0 -235 -98t-96 -244zM332 889 l47 393h123q152 0 151 -111q0 -98 -92 -135q6 -80 43 -80q20 0 47 11l2 -70q-35 -14 -73 -14q-86 0 -99 135h-12l-41 4l-16 -133h-80zM436 1094l41 -4q39 0 66.5 19t27.5 52q0 51 -77 51h-43z" />
<glyph unicode="&#xaf;" horiz-adv-x="817" d="M174 1180l21 90h583l-20 -90h-584z" />
<glyph unicode="&#xb0;" horiz-adv-x="653" d="M129 1159q0 127 83 213t210 86q104 0 166.5 -60.5t62.5 -158.5q0 -127 -83 -213t-210 -86q-104 0 -166.5 60.5t-62.5 158.5zM231 1174q0 -63 38 -101.5t102 -38.5q76 0 127 53.5t51 137.5q0 63 -38 101t-101 38q-76 0 -127.5 -53t-51.5 -137z" />
<glyph unicode="&#xb1;" d="M82 0l8 94h975l-8 -94h-975zM82 674l8 94h432v436l103 8v-444h440l-6 -94h-434v-436l-103 -11v447h-440z" />
<glyph unicode="&#xb2;" horiz-adv-x="638" d="M86 942l2 86q295 207 386 305.5t91 186.5q0 127 -164 127q-102 0 -215 -50l-6 89q119 49 238 49q244 0 244 -215q0 -102 -82 -205t-347 -287h392l-19 -86h-520z" />
<glyph unicode="&#xb3;" horiz-adv-x="632" d="M84 977l31 86q121 -49 225 -49q92 0 144.5 38t52.5 103q0 76 -101 129h-182l18 84h170q117 88 117 176q0 102 -151 103q-111 0 -228 -50l-10 86q121 51 248 52q100 0 168.5 -40t68.5 -132q0 -135 -139 -232q117 -66 117 -174q0 -106 -84 -168.5t-219 -62.5 q-121 0 -246 51z" />
<glyph unicode="&#xb4;" horiz-adv-x="516" d="M166 1114l209 324h123l-226 -324h-106z" />
<glyph unicode="&#xb5;" horiz-adv-x="1064" d="M18 -426l170 1393l105 8l-84 -682l-4 -62q0 -158 141 -157q90 0 209 96t223 260l66 537l104 8l-119 -975h-102l31 252q-227 -272 -412 -272q-109 0 -170 51l-55 -449z" />
<glyph unicode="&#xb6;" horiz-adv-x="1030" d="M72 1118q0 141 89 230.5t230 89.5h639l-8 -99h-133v-1339h-107v1339h-168v-1339h-106v799h-117q-141 0 -230 89t-89 230z" />
<glyph unicode="&#xb7;" horiz-adv-x="397" d="M119 709q0 41 27.5 69.5t68.5 28.5q35 0 55.5 -20.5t20.5 -53.5q0 -41 -27.5 -69.5t-68.5 -28.5q-35 0 -55.5 20.5t-20.5 53.5z" />
<glyph unicode="&#xb8;" horiz-adv-x="581" d="M-23 -420l29 88q53 -20 111 -20q55 0 94 22.5t39 71.5q0 63 -76 63l-68 -10l-55 64l107 161h114l-96 -131l37 5q51 0 96 -33t45 -107q0 -86 -66.5 -141t-174.5 -55q-70 0 -136 22z" />
<glyph unicode="&#xb9;" horiz-adv-x="608" d="M74 942l16 86h215l74 594l-232 -84l11 96l239 86h88l-86 -692h222l-17 -86h-530z" />
<glyph unicode="&#xba;" horiz-adv-x="665" d="M121 1071q0 162 89 274.5t228 112.5q109 0 172.5 -62.5t63.5 -187.5q0 -172 -91.5 -279.5t-224.5 -107.5q-109 0 -173 62.5t-64 187.5zM217 1075q0 -168 145 -168q88 0 152 85t64 220q0 80 -39 120t-105 40q-92 0 -154.5 -85t-62.5 -212z" />
<glyph unicode="&#xbb;" horiz-adv-x="907" d="M-16 139l407 353l-319 352l75 71l342 -385l-18 -94l-428 -381zM332 139l407 353l-319 352l76 71l342 -385l-19 -94l-428 -381z" />
<glyph unicode="&#xbc;" horiz-adv-x="1507" d="M49 659l17 86h215l73 594l-231 -84l10 97l240 86h88l-86 -693h221l-16 -86h-531zM209 0l1044 1438h113l-1042 -1438h-115zM766 180l2 86q111 111 174.5 229.5t83.5 282.5h96q-18 -154 -76.5 -273.5t-173.5 -238.5h265l24 203l96 8l-26 -211h176l-18 -86h-168l-23 -180 h-94l22 180h-360z" />
<glyph unicode="&#xbd;" horiz-adv-x="1519" d="M49 659l17 86h215l73 594l-231 -84l10 97l240 86h88l-86 -693h221l-16 -86h-531zM209 0l1044 1438h113l-1042 -1438h-115zM860 0l2 86q295 207 386 305t91 187q0 127 -163 127q-102 0 -215 -50l-7 88q119 49 238 50q244 0 244 -215q0 -102 -82 -205t-346 -287h391 l-19 -86h-520z" />
<glyph unicode="&#xbe;" horiz-adv-x="1468" d="M53 694l31 86q121 -49 225 -49q92 0 144.5 38t52.5 103q0 76 -100 129h-183l19 84h170q117 88 116 177q0 102 -151 102q-111 0 -227 -49l-11 86q121 51 248 51q100 0 169 -40t69 -132q0 -135 -140 -231q117 -66 117 -175q0 -106 -84 -168.5t-219 -62.5q-121 0 -246 51z M152 0l1044 1438h113l-1043 -1438h-114zM727 180l2 86q111 111 174.5 229.5t83.5 282.5h96q-18 -154 -76.5 -273.5t-172.5 -238.5h264l24 203l97 8l-27 -211h176l-18 -86h-168l-23 -180h-94l22 180h-360z" />
<glyph unicode="&#xbf;" horiz-adv-x="960" d="M-29 -174q0 168 123 315.5t320 202.5l35 262l94 8l-39 -335q-201 -47 -312.5 -163t-111.5 -270q0 -111 78 -173t207 -62q160 0 380 63l11 -98q-215 -63 -387 -63q-186 0 -292 81.5t-106 231.5zM444 883q0 41 28 69.5t69 28.5q35 0 55 -20.5t20 -53.5q0 -41 -27.5 -69.5 t-68.5 -28.5q-35 0 -55.5 20.5t-20.5 53.5z" />
<glyph unicode="&#xc0;" horiz-adv-x="1290" d="M-31 0l697 1434l141 8l350 -1442h-110l-93 387h-684l-186 -387h-115zM317 485h615l-203 854zM492 1823h143l205 -262h-113z" />
<glyph unicode="&#xc1;" horiz-adv-x="1290" d="M-31 0l697 1434l141 8l350 -1442h-110l-93 387h-684l-186 -387h-115zM317 485h615l-203 854zM663 1561l262 262h152l-293 -262h-121z" />
<glyph unicode="&#xc2;" horiz-adv-x="1290" d="M-31 0l697 1434l141 8l350 -1442h-110l-93 387h-684l-186 -387h-115zM317 485h615l-203 854zM432 1561l307 262h90l242 -262h-135l-160 178l-205 -178h-139z" />
<glyph unicode="&#xc3;" horiz-adv-x="1290" d="M-31 0l697 1434l141 8l350 -1442h-110l-93 387h-684l-186 -387h-115zM317 485h615l-203 854zM430 1554q23 78 79 126.5t122 48.5q55 0 89 -18.5t59.5 -40t52 -40t69.5 -18.5q63 0 103 96l88 -18q-25 -72 -79 -121t-120 -49q-55 0 -89 17t-60.5 38.5t-54 40t-70.5 18.5 q-66 0 -103 -96z" />
<glyph unicode="&#xc4;" horiz-adv-x="1290" d="M-31 0l697 1434l141 8l350 -1442h-110l-93 387h-684l-186 -387h-115zM317 485h615l-203 854zM495 1647q0 39 27 64.5t62 25.5q31 0 50 -18.5t19 -47.5q0 -39 -26.5 -64.5t-63.5 -25.5q-31 0 -49.5 18.5t-18.5 47.5zM876 1647q0 39 26.5 64.5t61.5 25.5q31 0 50.5 -18.5 t19.5 -47.5q0 -39 -26.5 -64.5t-63.5 -25.5q-31 0 -49.5 18.5t-18.5 47.5z" />
<glyph unicode="&#xc5;" horiz-adv-x="1290" d="M-31 0l693 1427q-101 35 -101 156q0 98 62.5 160.5t156.5 62.5q80 0 127 -45t47 -121t-40 -132t-105 -78l348 -1430h-110l-93 387h-684l-186 -387h-115zM317 485h615l-203 854zM655 1595q0 -41 23.5 -66.5t64.5 -25.5q51 0 84 36t33 89q0 41 -24.5 66.5t-65.5 25.5 q-51 0 -83 -36t-32 -89z" />
<glyph unicode="&#xc6;" horiz-adv-x="1880" d="M-113 0l1080 1438h915l-20 -99h-756l-72 -581h662l-21 -99h-653l-70 -561h764l-20 -98h-862l47 387h-580l-285 -387h-129zM375 485h518l104 842z" />
<glyph unicode="&#xc7;" horiz-adv-x="1243" d="M129 559q0 287 92 488.5t257 306t384 104.5q195 0 377 -76l-35 -98q-176 76 -354 76q-180 0 -319.5 -91t-217 -266.5t-77.5 -429.5q0 -242 118.5 -368.5t337.5 -126.5q180 0 375 76l10 -99q-145 -53 -315 -71l-68 -95l37 5q51 0 96 -33t45 -107q0 -86 -66.5 -141 t-174.5 -55q-70 0 -135 22l28 88q53 -20 111 -20q55 0 94 22.5t39 71.5q0 63 -76 63l-67 -10l-56 64l80 121q-250 10 -385 158.5t-135 420.5z" />
<glyph unicode="&#xc8;" horiz-adv-x="1116" d="M72 0l176 1438h870l-20 -99h-756l-72 -581h662l-21 -99h-653l-70 -561h764l-18 -98h-862zM500 1823h143l205 -262h-113z" />
<glyph unicode="&#xc9;" horiz-adv-x="1116" d="M72 0l176 1438h870l-20 -99h-756l-72 -581h662l-21 -99h-653l-70 -561h764l-18 -98h-862zM549 1561l262 262h152l-293 -262h-121z" />
<glyph unicode="&#xca;" horiz-adv-x="1116" d="M72 0l176 1438h870l-20 -99h-756l-72 -581h662l-21 -99h-653l-70 -561h764l-18 -98h-862zM379 1561l307 262h90l242 -262h-135l-160 178l-205 -178h-139z" />
<glyph unicode="&#xcb;" horiz-adv-x="1116" d="M72 0l176 1438h870l-20 -99h-756l-72 -581h662l-21 -99h-653l-70 -561h764l-18 -98h-862zM442 1647q0 39 27 64.5t62 25.5q31 0 50 -18.5t19 -47.5q0 -39 -26.5 -64.5t-63.5 -25.5q-31 0 -49.5 18.5t-18.5 47.5zM823 1647q0 39 26.5 64.5t61.5 25.5q31 0 50.5 -18.5 t19.5 -47.5q0 -39 -26.5 -64.5t-63.5 -25.5q-31 0 -49.5 18.5t-18.5 47.5z" />
<glyph unicode="&#xcc;" horiz-adv-x="413" d="M23 1823h143l205 -262h-113zM72 0l176 1438h106l-176 -1438h-106z" />
<glyph unicode="&#xcd;" horiz-adv-x="413" d="M72 0l176 1438h106l-176 -1438h-106zM260 1561l262 262h152l-293 -262h-121z" />
<glyph unicode="&#xce;" horiz-adv-x="413" d="M-4 1561l307 262h90l242 -262h-135l-160 178l-205 -178h-139zM72 0l176 1438h106l-176 -1438h-106z" />
<glyph unicode="&#xcf;" horiz-adv-x="413" d="M59 1647q0 39 27 64.5t62 25.5q31 0 50 -18.5t19 -47.5q0 -39 -26.5 -64.5t-63.5 -25.5q-31 0 -49.5 18.5t-18.5 47.5zM72 0l176 1438h106l-176 -1438h-106zM440 1647q0 39 26.5 64.5t61.5 25.5q31 0 50.5 -18.5t19.5 -47.5q0 -39 -26.5 -64.5t-63.5 -25.5 q-31 0 -49.5 18.5t-18.5 47.5z" />
<glyph unicode="&#xd0;" horiz-adv-x="1413" d="M10 674l21 90h133l84 674h481q567 0 567 -553q0 -420 -209.5 -662.5t-570.5 -242.5q-236 0 -442 47l80 647h-144zM190 109q168 -31 345 -31q303 0 478 214t175 572q0 475 -473 475h-373l-72 -575h344l-20 -90h-334z" />
<glyph unicode="&#xd1;" horiz-adv-x="1339" d="M72 0l174 1434l108 8l666 -1264l154 1260h106l-176 -1434l-109 -8l-663 1264l-154 -1260h-106zM457 1554q23 78 79 126.5t122 48.5q55 0 89 -18.5t59.5 -40t52 -40t69.5 -18.5q63 0 103 96l88 -18q-25 -72 -79 -121t-120 -49q-55 0 -89 17t-60.5 38.5t-54 40t-70.5 18.5 q-66 0 -103 -96z" />
<glyph unicode="&#xd2;" horiz-adv-x="1540" d="M127 549q0 422 196.5 665.5t542.5 243.5q262 0 409.5 -148.5t147.5 -420.5q0 -422 -196.5 -665.5t-542.5 -243.5q-260 0 -408.5 148t-148.5 421zM233 549q0 -219 117 -345t334 -126q293 0 463 214t170 597q0 219 -117 345t-334 126q-293 0 -463 -214t-170 -597zM660 1823 h143l205 -262h-113z" />
<glyph unicode="&#xd3;" horiz-adv-x="1540" d="M127 549q0 422 196.5 665.5t542.5 243.5q262 0 409.5 -148.5t147.5 -420.5q0 -422 -196.5 -665.5t-542.5 -243.5q-260 0 -408.5 148t-148.5 421zM233 549q0 -219 117 -345t334 -126q293 0 463 214t170 597q0 219 -117 345t-334 126q-293 0 -463 -214t-170 -597zM749 1561 l262 262h152l-293 -262h-121z" />
<glyph unicode="&#xd4;" horiz-adv-x="1540" d="M127 549q0 422 196.5 665.5t542.5 243.5q262 0 409.5 -148.5t147.5 -420.5q0 -422 -196.5 -665.5t-542.5 -243.5q-260 0 -408.5 148t-148.5 421zM233 549q0 -219 117 -345t334 -126q293 0 463 214t170 597q0 219 -117 345t-334 126q-293 0 -463 -214t-170 -597zM559 1561 l307 262h90l242 -262h-135l-160 178l-205 -178h-139z" />
<glyph unicode="&#xd5;" horiz-adv-x="1540" d="M127 549q0 422 196.5 665.5t542.5 243.5q262 0 409.5 -148.5t147.5 -420.5q0 -422 -196.5 -665.5t-542.5 -243.5q-260 0 -408.5 148t-148.5 421zM233 549q0 -219 117 -345t334 -126q293 0 463 214t170 597q0 219 -117 345t-334 126q-293 0 -463 -214t-170 -597zM557 1554 q23 78 79 126.5t122 48.5q55 0 89 -18.5t59.5 -40t52 -40t69.5 -18.5q63 0 103 96l88 -18q-25 -72 -79 -121t-120 -49q-55 0 -89 17t-60.5 38.5t-54 40t-70.5 18.5q-66 0 -103 -96z" />
<glyph unicode="&#xd6;" horiz-adv-x="1540" d="M127 549q0 422 196.5 665.5t542.5 243.5q262 0 409.5 -148.5t147.5 -420.5q0 -422 -196.5 -665.5t-542.5 -243.5q-260 0 -408.5 148t-148.5 421zM233 549q0 -219 117 -345t334 -126q293 0 463 214t170 597q0 219 -117 345t-334 126q-293 0 -463 -214t-170 -597zM622 1647 q0 39 27 64.5t62 25.5q31 0 50 -18.5t19 -47.5q0 -39 -26.5 -64.5t-63.5 -25.5q-31 0 -49.5 18.5t-18.5 47.5zM1003 1647q0 39 26.5 64.5t61.5 25.5q31 0 50.5 -18.5t19.5 -47.5q0 -39 -26.5 -64.5t-63.5 -25.5q-31 0 -49.5 18.5t-18.5 47.5z" />
<glyph unicode="&#xd7;" d="M129 346l375 375l-375 375l76 63l368 -368l369 368l76 -63l-375 -375l375 -375l-74 -65l-371 370l-368 -368z" />
<glyph unicode="&#xd8;" horiz-adv-x="1540" d="M63 -78l189 232q-125 152 -125 395q0 422 196.5 665.5t542.5 243.5q217 0 359 -106l172 211l90 -47l-189 -232q125 -152 125 -395q0 -422 -196.5 -665.5t-542.5 -243.5q-217 0 -360 106l-170 -211zM233 549q0 -193 89 -309l837 1030q-115 90 -293 90q-293 0 -463 -214 t-170 -597zM391 168q115 -90 293 -90q293 0 463 214t170 597q0 182 -88 309z" />
<glyph unicode="&#xd9;" horiz-adv-x="1339" d="M119 344l4 78l125 1016h106l-125 -1016l-4 -62q0 -135 92.5 -208.5t278.5 -73.5q408 0 453 344l125 1016h106l-125 -1016q-27 -217 -173 -329.5t-398 -112.5q-227 0 -346 92t-119 272zM559 1823h143l205 -262h-113z" />
<glyph unicode="&#xda;" horiz-adv-x="1339" d="M119 344l4 78l125 1016h106l-125 -1016l-4 -62q0 -135 92.5 -208.5t278.5 -73.5q408 0 453 344l125 1016h106l-125 -1016q-27 -217 -173 -329.5t-398 -112.5q-227 0 -346 92t-119 272zM649 1561l262 262h152l-293 -262h-121z" />
<glyph unicode="&#xdb;" horiz-adv-x="1339" d="M119 344l4 78l125 1016h106l-125 -1016l-4 -62q0 -135 92.5 -208.5t278.5 -73.5q408 0 453 344l125 1016h106l-125 -1016q-27 -217 -173 -329.5t-398 -112.5q-227 0 -346 92t-119 272zM459 1561l307 262h90l242 -262h-135l-160 178l-205 -178h-139z" />
<glyph unicode="&#xdc;" horiz-adv-x="1339" d="M119 344l4 78l125 1016h106l-125 -1016l-4 -62q0 -135 92.5 -208.5t278.5 -73.5q408 0 453 344l125 1016h106l-125 -1016q-27 -217 -173 -329.5t-398 -112.5q-227 0 -346 92t-119 272zM522 1647q0 39 27 64.5t62 25.5q31 0 50 -18.5t19 -47.5q0 -39 -26.5 -64.5 t-63.5 -25.5q-31 0 -49.5 18.5t-18.5 47.5zM903 1647q0 39 26.5 64.5t61.5 25.5q31 0 50.5 -18.5t19.5 -47.5q0 -39 -26.5 -64.5t-63.5 -25.5q-31 0 -49.5 18.5t-18.5 47.5z" />
<glyph unicode="&#xdd;" horiz-adv-x="1191" d="M123 1434l121 8l354 -719l528 719l127 -8l-610 -813l-76 -621h-106l76 621zM575 1561l262 262h152l-293 -262h-121z" />
<glyph unicode="&#xde;" horiz-adv-x="1159" d="M72 0l176 1438h106l-32 -267q160 18 243 19q250 0 390.5 -105.5t140.5 -296.5q0 -248 -172 -394t-475 -146q-80 0 -240 18l-31 -266h-106zM221 365q141 -18 240 -19q248 0 389 113.5t141 312.5q0 156 -114.5 238t-323.5 82q-102 0 -244 -19z" />
<glyph unicode="&#xdf;" horiz-adv-x="1116" d="M18 -426l195 1600q23 190 130.5 284t270.5 94q137 0 215 -69.5t78 -190.5q0 -139 -94 -282l-139 -211q139 -37 216 -135.5t77 -237.5q0 -184 -126 -315t-323 -131q-86 0 -178 32l27 94q90 -33 163 -32q143 0 237.5 100t94.5 240q0 123 -72.5 202.5t-201.5 100.5l-31 76 l172 260q74 121 74 227q0 80 -50.5 129t-150.5 49q-117 0 -193.5 -70.5t-93.5 -213.5l-194 -1592z" />
<glyph unicode="&#xe0;" horiz-adv-x="1040" d="M72 358q0 199 57 340.5t160.5 217t238.5 75.5q147 0 385 -108l-108 -883h-103l31 252q-221 -272 -405 -272q-123 0 -189.5 98t-66.5 280zM174 358q0 -127 37 -205.5t117 -78.5q88 0 204.5 96t221.5 260l49 397q-156 70 -275 70q-164 0 -259 -144.5t-95 -394.5zM459 1438 h115l135 -324h-99z" />
<glyph unicode="&#xe1;" horiz-adv-x="1040" d="M72 358q0 199 57 340.5t160.5 217t238.5 75.5q147 0 385 -108l-108 -883h-103l31 252q-221 -272 -405 -272q-123 0 -189.5 98t-66.5 280zM174 358q0 -127 37 -205.5t117 -78.5q88 0 204.5 96t221.5 260l49 397q-156 70 -275 70q-164 0 -259 -144.5t-95 -394.5zM500 1114 l209 324h123l-226 -324h-106z" />
<glyph unicode="&#xe2;" horiz-adv-x="1040" d="M72 358q0 199 57 340.5t160.5 217t238.5 75.5q147 0 385 -108l-108 -883h-103l31 252q-221 -272 -405 -272q-123 0 -189.5 98t-66.5 280zM174 358q0 -127 37 -205.5t117 -78.5q88 0 204.5 96t221.5 260l49 397q-156 70 -275 70q-164 0 -259 -144.5t-95 -394.5zM326 1114 l274 324h90l193 -324h-113l-135 234l-192 -234h-117z" />
<glyph unicode="&#xe3;" horiz-adv-x="1040" d="M72 358q0 199 57 340.5t160.5 217t238.5 75.5q147 0 385 -108l-108 -883h-103l31 252q-221 -272 -405 -272q-123 0 -189.5 98t-66.5 280zM174 358q0 -127 37 -205.5t117 -78.5q88 0 204.5 96t221.5 260l49 397q-156 70 -275 70q-164 0 -259 -144.5t-95 -394.5zM305 1186 q23 78 79 126t122 48q41 0 71.5 -18.5t56 -40t49.5 -40t52 -18.5q59 0 103 96l88 -18q-25 -72 -79 -121t-120 -49q-59 0 -129 57q-72 57 -104 58q-66 0 -103 -97z" />
<glyph unicode="&#xe4;" horiz-adv-x="1040" d="M72 358q0 199 57 340.5t160.5 217t238.5 75.5q147 0 385 -108l-108 -883h-103l31 252q-221 -272 -405 -272q-123 0 -189.5 98t-66.5 280zM174 358q0 -127 37 -205.5t117 -78.5q88 0 204.5 96t221.5 260l49 397q-156 70 -275 70q-164 0 -259 -144.5t-95 -394.5zM358 1210 q0 39 25.5 64.5t60.5 25.5q31 0 51.5 -18t20.5 -47q0 -39 -27.5 -64.5t-62.5 -25.5q-31 0 -49.5 18.5t-18.5 46.5zM739 1210q0 39 25.5 64.5t60.5 25.5q31 0 51.5 -18t20.5 -47q0 -39 -27.5 -64.5t-62.5 -25.5q-31 0 -49.5 18.5t-18.5 46.5z" />
<glyph unicode="&#xe5;" horiz-adv-x="1040" d="M72 358q0 199 57 340.5t160.5 217t238.5 75.5q147 0 385 -108l-108 -883h-103l31 252q-221 -272 -405 -272q-123 0 -189.5 98t-66.5 280zM174 358q0 -127 37 -205.5t117 -78.5q88 0 204.5 96t221.5 260l49 397q-156 70 -275 70q-164 0 -259 -144.5t-95 -394.5zM426 1235 q0 98 62.5 160.5t156.5 62.5q80 0 127 -45t47 -121q0 -98 -63 -160.5t-158 -62.5q-80 0 -126 45t-46 121zM520 1247q0 -41 24 -66.5t65 -25.5q51 0 83.5 36t32.5 89q0 41 -24.5 66.5t-65.5 25.5q-51 0 -83 -36t-32 -89z" />
<glyph unicode="&#xe6;" horiz-adv-x="1445" d="M10 182q0 180 156 265t485 106l19 186q0 158 -152 158q-119 0 -383 -88l-2 94q244 88 397 88q211 0 230 -184q125 184 348 184q104 0 175 -62.5t71 -152.5q0 -158 -152.5 -255t-464.5 -154q0 -141 49.5 -217t145.5 -76q102 0 328 127l36 -88q-121 -68 -202.5 -100.5 t-161.5 -32.5q-203 0 -268 188q-233 -188 -433 -188q-104 0 -162.5 52t-58.5 150zM111 201q0 -72 42 -99.5t91 -27.5q193 0 397 184l-4 98l4 103q-281 -23 -405.5 -82.5t-124.5 -175.5zM741 463q252 49 381 124t129 189q0 47 -37.5 84t-105.5 37q-150 0 -248 -114.5 t-119 -319.5z" />
<glyph unicode="&#xe7;" horiz-adv-x="886" d="M72 369q0 295 129 458.5t360 163.5q135 0 275 -30l-27 -95q-131 31 -252 31q-180 0 -281.5 -136t-101.5 -376q0 -311 195 -311q106 0 327 127l37 -88q-154 -90 -256 -117l-78 -107l37 5q51 0 96.5 -33t45.5 -107q0 -86 -67 -141t-175 -55q-70 0 -135 22l28 88 q53 -20 111 -20q55 0 94 22.5t39 71.5q0 63 -76 63l-67 -10l-56 64l80 121q-282 8 -282 389z" />
<glyph unicode="&#xe8;" horiz-adv-x="882" d="M72 369q0 289 129 455.5t344 166.5q104 0 175 -62.5t71 -152.5q0 -158 -153 -255t-464 -154q0 -141 49 -217t146 -76q102 0 327 127l37 -88q-121 -68 -202.5 -100.5t-161.5 -32.5q-297 0 -297 389zM178 463q252 49 381 124t129 189q0 47 -37.5 84t-105.5 37 q-150 0 -248 -114.5t-119 -319.5zM369 1438h115l135 -324h-99z" />
<glyph unicode="&#xe9;" horiz-adv-x="882" d="M72 369q0 289 129 455.5t344 166.5q104 0 175 -62.5t71 -152.5q0 -158 -153 -255t-464 -154q0 -141 49 -217t146 -76q102 0 327 127l37 -88q-121 -68 -202.5 -100.5t-161.5 -32.5q-297 0 -297 389zM178 463q252 49 381 124t129 189q0 47 -37.5 84t-105.5 37 q-150 0 -248 -114.5t-119 -319.5zM430 1114l209 324h123l-226 -324h-106z" />
<glyph unicode="&#xea;" horiz-adv-x="882" d="M72 369q0 289 129 455.5t344 166.5q104 0 175 -62.5t71 -152.5q0 -158 -153 -255t-464 -154q0 -141 49 -217t146 -76q102 0 327 127l37 -88q-121 -68 -202.5 -100.5t-161.5 -32.5q-297 0 -297 389zM178 463q252 49 381 124t129 189q0 47 -37.5 84t-105.5 37 q-150 0 -248 -114.5t-119 -319.5zM256 1114l274 324h90l193 -324h-113l-135 234l-192 -234h-117z" />
<glyph unicode="&#xeb;" horiz-adv-x="882" d="M72 369q0 289 129 455.5t344 166.5q104 0 175 -62.5t71 -152.5q0 -158 -153 -255t-464 -154q0 -141 49 -217t146 -76q102 0 327 127l37 -88q-121 -68 -202.5 -100.5t-161.5 -32.5q-297 0 -297 389zM178 463q252 49 381 124t129 189q0 47 -37.5 84t-105.5 37 q-150 0 -248 -114.5t-119 -319.5zM289 1210q0 39 25.5 64.5t60.5 25.5q31 0 51.5 -18t20.5 -47q0 -39 -27.5 -64.5t-62.5 -25.5q-31 0 -49.5 18.5t-18.5 46.5zM670 1210q0 39 25.5 64.5t60.5 25.5q31 0 51.5 -18t20.5 -47q0 -39 -27.5 -64.5t-62.5 -25.5q-31 0 -49.5 18.5 t-18.5 46.5z" />
<glyph unicode="&#xec;" horiz-adv-x="409" d="M62 1438h115l135 -324h-99zM72 0l116 967l105 8l-119 -975h-102z" />
<glyph unicode="&#xed;" horiz-adv-x="409" d="M72 0l116 967l105 8l-119 -975h-102zM205 1114l209 324h123l-226 -324h-106z" />
<glyph unicode="&#xee;" horiz-adv-x="409" d="M-20 1114l274 324h90l193 -324h-113l-135 234l-192 -234h-117zM72 0l116 967l105 8l-119 -975h-102z" />
<glyph unicode="&#xef;" horiz-adv-x="409" d="M4 1210q0 39 25.5 64.5t60.5 25.5q31 0 51.5 -18t20.5 -47q0 -39 -27.5 -64.5t-62.5 -25.5q-31 0 -49.5 18.5t-18.5 46.5zM72 0l116 967l105 8l-119 -975h-102zM385 1210q0 39 25.5 64.5t60.5 25.5q31 0 51.5 -18t20.5 -47q0 -39 -27.5 -64.5t-62.5 -25.5 q-31 0 -49.5 18.5t-18.5 46.5z" />
<glyph unicode="&#xf0;" horiz-adv-x="1021" d="M72 418q0 252 105.5 412.5t266.5 160.5q106 0 182 -61.5t146 -161.5q-33 281 -160 494l-290 -129l-21 92l260 116q-84 117 -199 211h148q78 -68 147 -168l291 129l23 -92l-264 -116q176 -309 176 -652q0 -283 -129 -478t-334 -195q-156 0 -252 121.5t-96 316.5zM178 418 q0 -152 68 -246t174 -94q147 0 245.5 150.5t108.5 377.5q-98 160 -172 223.5t-153 63.5q-121 0 -196 -137.5t-75 -337.5z" />
<glyph unicode="&#xf1;" horiz-adv-x="1064" d="M72 0l116 967l105 8l-31 -256q227 272 412 272q143 0 192 -73.5t49 -176.5l-4 -71l-82 -670h-102l82 678l4 61q0 158 -139 158q-88 0 -207 -94t-227 -262l-66 -541h-102zM293 1186q23 78 79 126t122 48q41 0 71.5 -18.5t56 -40t49.5 -40t52 -18.5q59 0 103 96l88 -18 q-25 -72 -79 -121t-120 -49q-59 0 -129 57q-72 57 -104 58q-66 0 -103 -97z" />
<glyph unicode="&#xf2;" horiz-adv-x="1038" d="M72 369q0 264 140 443t349 179q160 0 262.5 -96t102.5 -293q0 -268 -141.5 -445t-348.5 -177q-160 0 -262 96t-102 293zM174 369q0 -150 72.5 -222.5t189.5 -72.5q164 0 275.5 151.5t111.5 376.5q0 150 -72.5 222.5t-189.5 72.5q-164 0 -275.5 -151.5t-111.5 -376.5z M459 1438h115l135 -324h-99z" />
<glyph unicode="&#xf3;" horiz-adv-x="1038" d="M72 369q0 264 140 443t349 179q160 0 262.5 -96t102.5 -293q0 -268 -141.5 -445t-348.5 -177q-160 0 -262 96t-102 293zM174 369q0 -150 72.5 -222.5t189.5 -72.5q164 0 275.5 151.5t111.5 376.5q0 150 -72.5 222.5t-189.5 72.5q-164 0 -275.5 -151.5t-111.5 -376.5z M500 1114l209 324h123l-226 -324h-106z" />
<glyph unicode="&#xf4;" horiz-adv-x="1038" d="M72 369q0 264 140 443t349 179q160 0 262.5 -96t102.5 -293q0 -268 -141.5 -445t-348.5 -177q-160 0 -262 96t-102 293zM174 369q0 -150 72.5 -222.5t189.5 -72.5q164 0 275.5 151.5t111.5 376.5q0 150 -72.5 222.5t-189.5 72.5q-164 0 -275.5 -151.5t-111.5 -376.5z M326 1114l274 324h90l193 -324h-113l-135 234l-192 -234h-117z" />
<glyph unicode="&#xf5;" horiz-adv-x="1038" d="M72 369q0 264 140 443t349 179q160 0 262.5 -96t102.5 -293q0 -268 -141.5 -445t-348.5 -177q-160 0 -262 96t-102 293zM174 369q0 -150 72.5 -222.5t189.5 -72.5q164 0 275.5 151.5t111.5 376.5q0 150 -72.5 222.5t-189.5 72.5q-164 0 -275.5 -151.5t-111.5 -376.5z M313 1186q23 78 79 126t122 48q41 0 71.5 -18.5t56 -40t49.5 -40t52 -18.5q59 0 103 96l88 -18q-25 -72 -79 -121t-120 -49q-59 0 -129 57q-72 57 -104 58q-66 0 -103 -97z" />
<glyph unicode="&#xf6;" horiz-adv-x="1038" d="M72 369q0 264 140 443t349 179q160 0 262.5 -96t102.5 -293q0 -268 -141.5 -445t-348.5 -177q-160 0 -262 96t-102 293zM174 369q0 -150 72.5 -222.5t189.5 -72.5q164 0 275.5 151.5t111.5 376.5q0 150 -72.5 222.5t-189.5 72.5q-164 0 -275.5 -151.5t-111.5 -376.5z M352 1210q0 39 25.5 64.5t60.5 25.5q31 0 51.5 -18t20.5 -47q0 -39 -27.5 -64.5t-62.5 -25.5q-31 0 -49.5 18.5t-18.5 46.5zM733 1210q0 39 25.5 64.5t60.5 25.5q31 0 51.5 -18t20.5 -47q0 -39 -27.5 -64.5t-62.5 -25.5q-31 0 -49.5 18.5t-18.5 46.5z" />
<glyph unicode="&#xf7;" d="M82 674l8 94h975l-8 -94h-975zM487 295q0 37 24.5 61.5t61.5 24.5t61.5 -24.5t24.5 -61.5t-24.5 -61.5t-61.5 -24.5t-61.5 24.5t-24.5 61.5zM487 1147q0 37 24.5 61.5t61.5 24.5t61.5 -24.5t24.5 -61.5t-24.5 -61.5t-61.5 -24.5t-61.5 24.5t-24.5 61.5z" />
<glyph unicode="&#xf8;" horiz-adv-x="1038" d="M16 -82l136 182q-80 98 -80 269q0 264 140 443t349 179q125 0 211 -57l121 162l88 -43l-137 -183q82 -98 82 -268q0 -268 -141.5 -445t-348.5 -177q-123 0 -213 57l-121 -162zM174 369q0 -113 43 -183l496 668q-61 43 -152 43q-164 0 -275.5 -151.5t-111.5 -376.5z M283 117q61 -43 153 -43q164 0 275.5 151.5t111.5 376.5q0 106 -43 180z" />
<glyph unicode="&#xf9;" horiz-adv-x="1064" d="M102 231l4 70l82 666l105 8l-84 -682l-4 -62q0 -158 141 -157q90 0 209 96t223 260l66 537l104 8l-119 -975h-102l31 252q-227 -272 -412 -272q-143 0 -193.5 73.5t-50.5 177.5zM440 1438h115l135 -324h-99z" />
<glyph unicode="&#xfa;" horiz-adv-x="1064" d="M102 231l4 70l82 666l105 8l-84 -682l-4 -62q0 -158 141 -157q90 0 209 96t223 260l66 537l104 8l-119 -975h-102l31 252q-227 -272 -412 -272q-143 0 -193.5 73.5t-50.5 177.5zM481 1114l209 324h123l-226 -324h-106z" />
<glyph unicode="&#xfb;" horiz-adv-x="1064" d="M102 231l4 70l82 666l105 8l-84 -682l-4 -62q0 -158 141 -157q90 0 209 96t223 260l66 537l104 8l-119 -975h-102l31 252q-227 -272 -412 -272q-143 0 -193.5 73.5t-50.5 177.5zM307 1114l274 324h90l193 -324h-113l-135 234l-192 -234h-117z" />
<glyph unicode="&#xfc;" horiz-adv-x="1064" d="M102 231l4 70l82 666l105 8l-84 -682l-4 -62q0 -158 141 -157q90 0 209 96t223 260l66 537l104 8l-119 -975h-102l31 252q-227 -272 -412 -272q-143 0 -193.5 73.5t-50.5 177.5zM332 1210q0 39 25.5 64.5t60.5 25.5q31 0 51.5 -18t20.5 -47q0 -39 -27.5 -64.5 t-62.5 -25.5q-31 0 -49.5 18.5t-18.5 46.5zM713 1210q0 39 25.5 64.5t60.5 25.5q31 0 51.5 -18t20.5 -47q0 -39 -27.5 -64.5t-62.5 -25.5q-31 0 -49.5 18.5t-18.5 46.5z" />
<glyph unicode="&#xfd;" horiz-adv-x="954" d="M29 -381q172 168 321 381h-20l-264 967l108 8l232 -893q256 393 399 893l104 -10q-242 -842 -805 -1401zM447 1114l209 324h123l-226 -324h-106z" />
<glyph unicode="&#xfe;" horiz-adv-x="1034" d="M18 -426l242 1970l105 8l-105 -833q221 272 406 272q123 0 189.5 -98t66.5 -281q0 -199 -57.5 -340t-161 -216.5t-238.5 -75.5q-129 0 -287 65l-57 -463zM190 143q156 -70 275 -69q164 0 259 144t95 394q0 127 -37 206t-116 79q-88 0 -205 -96t-221 -260z" />
<glyph unicode="&#xff;" horiz-adv-x="954" d="M29 -381q172 168 321 381h-20l-264 967l108 8l232 -893q256 393 399 893l104 -10q-242 -842 -805 -1401zM276 1210q0 39 25.5 64.5t60.5 25.5q31 0 51.5 -18t20.5 -47q0 -39 -27.5 -64.5t-62.5 -25.5q-31 0 -49.5 18.5t-18.5 46.5zM657 1210q0 39 25.5 64.5t60.5 25.5 q31 0 51.5 -18t20.5 -47q0 -39 -27.5 -64.5t-62.5 -25.5q-31 0 -49.5 18.5t-18.5 46.5z" />
<glyph unicode="&#x152;" horiz-adv-x="2263" d="M127 549q0 422 196.5 665.5t542.5 243.5q375 0 494 -305l35 285h870l-20 -99h-756l-72 -581h662l-21 -99h-653l-70 -561h764l-18 -98h-862l34 285q-195 -305 -569 -305q-260 0 -408.5 148t-148.5 421zM233 549q0 -219 117 -345t334 -126q297 0 465 217t168 594 q0 219 -117 345t-334 126q-293 0 -463 -214t-170 -597z" />
<glyph unicode="&#x153;" horiz-adv-x="1622" d="M72 369q0 264 140 443t349 179q264 0 340 -225q129 225 383 225q104 0 175 -62.5t71 -152.5q0 -158 -152.5 -255t-464.5 -154q0 -141 49.5 -217t145.5 -76q102 0 328 127l37 -88q-121 -68 -203 -100.5t-162 -32.5q-227 0 -283 237q-66 -111 -167 -174t-222 -63 q-160 0 -262 96t-102 293zM174 369q0 -150 72.5 -222.5t189.5 -72.5q164 0 275.5 151.5t111.5 376.5q0 150 -72.5 222.5t-189.5 72.5q-164 0 -275.5 -151.5t-111.5 -376.5zM918 463q252 49 380.5 124t128.5 189q0 47 -37.5 84t-105.5 37q-150 0 -248 -114.5t-118 -319.5z " />
<glyph unicode="&#x178;" horiz-adv-x="1191" d="M123 1434l121 8l354 -719l528 719l127 -8l-610 -813l-76 -621h-106l76 621zM448 1647q0 39 27 64.5t62 25.5q31 0 50 -18.5t19 -47.5q0 -39 -26.5 -64.5t-63.5 -25.5q-31 0 -49.5 18.5t-18.5 47.5zM829 1647q0 39 26.5 64.5t61.5 25.5q31 0 50.5 -18.5t19.5 -47.5 q0 -39 -26.5 -64.5t-63.5 -25.5q-31 0 -49.5 18.5t-18.5 47.5z" />
<glyph unicode="&#x2c6;" horiz-adv-x="782" d="M166 1114l274 324h90l193 -324h-113l-135 234l-192 -234h-117z" />
<glyph unicode="&#x2dc;" horiz-adv-x="829" d="M176 1186q23 78 79 126t122 48q41 0 71.5 -18.5t56 -40t49.5 -40t52 -18.5q59 0 103 96l88 -18q-25 -72 -79 -121t-120 -49q-59 0 -129 57q-72 57 -104 58q-66 0 -103 -97z" />
<glyph unicode="&#x2000;" horiz-adv-x="911" />
<glyph unicode="&#x2001;" horiz-adv-x="1823" />
<glyph unicode="&#x2002;" horiz-adv-x="911" />
<glyph unicode="&#x2003;" horiz-adv-x="1823" />
<glyph unicode="&#x2004;" horiz-adv-x="607" />
<glyph unicode="&#x2005;" horiz-adv-x="455" />
<glyph unicode="&#x2006;" horiz-adv-x="303" />
<glyph unicode="&#x2007;" horiz-adv-x="303" />
<glyph unicode="&#x2008;" horiz-adv-x="227" />
<glyph unicode="&#x2009;" horiz-adv-x="364" />
<glyph unicode="&#x200a;" horiz-adv-x="101" />
<glyph unicode="&#x2010;" horiz-adv-x="542" d="M43 438l18 94h392l-19 -94h-391z" />
<glyph unicode="&#x2011;" horiz-adv-x="542" d="M43 438l18 94h392l-19 -94h-391z" />
<glyph unicode="&#x2012;" horiz-adv-x="542" d="M43 438l18 94h392l-19 -94h-391z" />
<glyph unicode="&#x2013;" horiz-adv-x="1155" d="M23 438l18 94h1044l-18 -94h-1044z" />
<glyph unicode="&#x2014;" horiz-adv-x="2172" d="M23 438l18 94h2042l-19 -94h-2041z" />
<glyph unicode="&#x2018;" horiz-adv-x="307" d="M143 1292q0 86 30 176.5t99 204.5l95 -10q-98 -164 -99 -309q0 -72 21 -162l-133 -10q-12 57 -13 110z" />
<glyph unicode="&#x2019;" horiz-adv-x="307" d="M125 1192q98 168 98 307q0 66 -20 164l133 10q12 -57 12 -110q0 -86 -29.5 -176.5t-99.5 -204.5z" />
<glyph unicode="&#x201a;" horiz-adv-x="307" d="M-53 -266q98 164 98 309q0 72 -20 162l131 10q14 -66 14 -125q-4 -156 -129 -366z" />
<glyph unicode="&#x201c;" horiz-adv-x="593" d="M143 1292q0 86 30 176.5t99 204.5l95 -10q-98 -164 -99 -309q0 -72 21 -162l-133 -10q-12 57 -13 110zM430 1292q0 86 29.5 176.5t99.5 204.5l94 -10q-98 -164 -98 -309q0 -72 20 -162l-133 -10q-12 57 -12 110z" />
<glyph unicode="&#x201d;" horiz-adv-x="593" d="M125 1192q98 168 98 307q0 66 -20 164l133 10q12 -57 12 -110q0 -86 -29.5 -176.5t-99.5 -204.5zM412 1192q98 168 98 307q0 66 -21 164l134 10q12 -57 12 -110q0 -86 -30 -176.5t-99 -204.5z" />
<glyph unicode="&#x201e;" horiz-adv-x="593" d="M-53 -266q98 164 98 309q0 72 -20 162l131 10q14 -66 14 -125q-4 -156 -129 -366zM233 -266q98 164 99 309q0 72 -21 162l131 10q14 -66 15 -125q-4 -156 -129 -366z" />
<glyph unicode="&#x2022;" horiz-adv-x="782" d="M72 719q0 141 89 230t230 89t230.5 -89t89.5 -230t-89.5 -230.5t-230.5 -89.5t-230 89.5t-89 230.5z" />
<glyph unicode="&#x2026;" horiz-adv-x="1576" d="M39 63q0 41 27.5 70t68.5 29q35 0 55.5 -20.5t20.5 -53.5q0 -41 -27.5 -69.5t-68.5 -28.5q-35 0 -55.5 20.5t-20.5 52.5zM629 63q0 41 27.5 70t68.5 29q35 0 55.5 -20.5t20.5 -53.5q0 -41 -28 -69.5t-68 -28.5q-35 0 -55.5 20.5t-20.5 52.5zM1219 63q0 41 27.5 70 t68.5 29q35 0 55.5 -20.5t20.5 -53.5q0 -41 -28 -69.5t-69 -28.5q-35 0 -55 20.5t-20 52.5z" />
<glyph unicode="&#x202f;" horiz-adv-x="364" />
<glyph unicode="&#x2039;" horiz-adv-x="559" d="M23 440l20 95l426 380l59 -84l-405 -352l317 -352l-75 -72z" />
<glyph unicode="&#x203a;" horiz-adv-x="559" d="M-16 139l407 353l-319 352l75 71l342 -385l-18 -94l-428 -381z" />
<glyph unicode="&#x205f;" horiz-adv-x="455" />
<glyph unicode="&#x20ac;" horiz-adv-x="1243" d="M-10 504l18 94h182q8 152 27 246h-186l20 94h191q72 244 242.5 382t400.5 138q178 0 352 -76l-33 -98q-160 76 -330 76q-180 0 -319 -109.5t-205 -312.5h705l-21 -94h-708q-25 -111 -29 -246h633l-19 -94h-614q10 -207 118.5 -316.5t301.5 -109.5q170 0 350 76l8 -99 q-193 -76 -373 -75q-238 0 -369.5 131t-142.5 393h-200z" />
<glyph unicode="&#x2122;" horiz-adv-x="1130" d="M96 1370l13 68h436l-13 -68h-180l-55 -448h-72l56 448h-185zM526 922l64 514l100 4l117 -432l225 432l101 -4l-64 -514h-72l50 403l-209 -401l-78 -4l-113 405l-49 -403h-72z" />
<glyph unicode="&#x25fc;" horiz-adv-x="972" d="M0 0v973h973v-973h-973z" />
<glyph unicode="&#xfb03;" horiz-adv-x="1701" d="M-266 -412l22 93q96 -29 160 -29q92 0 142.5 60.5t66.5 193.5l117 971h-166l20 94h158l29 246q43 336 313 335q80 0 180 -30l-20 -92q-96 29 -164 28q-90 0 -139.5 -57.5t-67.5 -196.5l-29 -233h512l29 246q43 336 313 335q80 0 181 -30l-21 -92q-96 29 -164 28 q-90 0 -139 -57.5t-68 -196.5l-28 -233h614l-119 -971h-102l106 877h-512l-118 -983q-41 -336 -312 -336q-80 0 -180 30l23 93q96 -29 159 -29q92 0 142.5 60.5t66.5 193.5l117 971h-512l-119 -983q-41 -336 -311 -336q-80 0 -180 30zM1487 1210q0 39 25.5 64.5t60.5 25.5 q31 0 51.5 -18t20.5 -47q0 -39 -28 -64.5t-63 -25.5q-31 0 -49 18.5t-18 46.5z" />
<glyph unicode="&#xfb04;" horiz-adv-x="1855" d="M-266 -412l22 93q96 -29 160 -29q92 0 142.5 60.5t66.5 193.5l117 971h-166l20 94h158l29 246q43 336 313 335q80 0 180 -30l-20 -92q-96 29 -164 28q-90 0 -139.5 -57.5t-67.5 -196.5l-29 -233h512l29 246q23 180 120 257.5t290 77.5q139 0 346 -30l-164 -1350 q0 -96 92 -96q66 0 184 35v-93q-121 -39 -204 -38q-176 0 -177 176l5 57l151 1223q-162 23 -246 22q-143 0 -208.5 -54t-86.5 -200l-28 -233h319l-20 -94h-312l-118 -983q-41 -336 -312 -336q-80 0 -180 30l23 93q96 -29 159 -29q92 0 142.5 60.5t66.5 193.5l117 971h-512 l-119 -983q-41 -336 -311 -336q-80 0 -180 30z" />
</font>
</defs>
</svg>
