<?xml version="1.0" standalone="no"?>
<!DOCTYPE svg PUBLIC "-//W3C//DTD SVG 1.1//EN" "http://www.w3.org/Graphics/SVG/1.1/DTD/svg11.dtd" >
<svg xmlns="http://www.w3.org/2000/svg">
<metadata></metadata>
<defs>
<font id="ms_gloriola_ii_stdbold" horiz-adv-x="1126" >
<font-face units-per-em="2048" ascent="1536" descent="-512" />
<missing-glyph horiz-adv-x="481" />
<glyph unicode="&#xfb01;" horiz-adv-x="1300" d="M20 700l21 308h133v135q0 410 344 409q92 0 236 -34l-27 -291q-74 18 -119 18q-47 0 -66.5 -30.5t-19.5 -106.5v-100h676v-1008h-348v700h-328v-700h-348v700h-154zM831 1300q0 84 54.5 138.5t138.5 54.5t138.5 -54.5t54.5 -138.5t-54.5 -138t-138.5 -54t-138.5 54.5 t-54.5 137.5z" />
<glyph unicode="&#xfb02;" horiz-adv-x="1392" d="M20 700l21 308h133v135q0 217 118 313t392 96q164 0 514 -36v-1168q0 -55 51 -55q43 0 117 16l27 -291q-35 -8 -65 -15t-61.5 -12t-66.5 -8t-80 -3q-123 0 -196.5 77.5t-73.5 210.5v967l-156 10q-94 0 -133 -32.5t-39 -114.5v-90h205l-20 -308h-185v-700h-348v700h-154z " />
<glyph horiz-adv-x="0" />
<glyph unicode="&#xd;" horiz-adv-x="0" />
<glyph unicode=" "  horiz-adv-x="481" />
<glyph unicode="&#x09;" horiz-adv-x="481" />
<glyph unicode="&#xa0;" horiz-adv-x="481" />
<glyph unicode="!" horiz-adv-x="716" d="M164 1438h389l-21 -957l-348 -20zM166 172q0 84 54 138.5t138 54.5t138.5 -54.5t54.5 -138.5t-54.5 -138t-138.5 -54t-138 54t-54 138z" />
<glyph unicode="&#x22;" horiz-adv-x="884" d="M61 1438h330l-41 -668h-248zM494 1438h329l-41 -668h-247z" />
<glyph unicode="#" d="M-23 303l21 307h156l41 217h-144l21 308h182l59 307l301 -8l-57 -299h168l59 307l301 -8l-57 -299h117l-21 -308h-155l-41 -217h143l-20 -307h-183l-59 -307l-301 8l57 299h-168l-59 -307l-301 8l57 299h-117zM457 610h168l41 217h-168z" />
<glyph unicode="$" horiz-adv-x="1220" d="M61 1006q0 383 406 440v221l287 21v-234q209 -18 352 -68l-66 -344q-94 27 -225 47.5t-227 20.5q-53 0 -85 -27.5t-32 -81.5q0 -37 17.5 -50t175.5 -52q193 -51 288 -108.5t151 -145.5t56 -213q0 -381 -405 -440v-221l-287 -21v234q-223 20 -352 67l65 344 q94 -27 225.5 -47t227.5 -20q53 0 85 27.5t32 78.5q0 39 -16.5 52.5t-176.5 54.5q-193 49 -288 106.5t-151.5 145.5t-56.5 213z" />
<glyph unicode="%" horiz-adv-x="1669" d="M41 1036q0 203 84 308.5t246 105.5q332 0 331 -414q0 -412 -331 -411q-330 -1 -330 411zM291 1036q0 -219 80 -219q82 0 82 219q0 217 -82 217q-80 0 -80 -217zM344 0l721 1438h260l-721 -1438h-260zM967 401q0 203 84 308.5t245 105.5q332 0 332 -414q0 -412 -332 -411 q-329 -1 -329 411zM1217 401q0 -219 79 -219q82 0 82 219q0 217 -82 217q-79 0 -79 -217z" />
<glyph unicode="&#x26;" horiz-adv-x="1409" d="M72 395q0 104 54 185.5t175 152.5q-156 186 -156 303q0 186 140.5 304t353.5 118q215 0 350 -111.5t135 -281.5q0 -113 -66.5 -197t-244.5 -172l164 -129l123 191l307 -148q-117 -188 -156 -237l158 -103l-186 -286l-209 137q-190 -141 -453 -141q-238 0 -363.5 107.5 t-125.5 307.5zM453 395q0 -39 29.5 -73.5t88.5 -34.5q82 0 162 43q-119 94 -221 188q-59 -55 -59 -123zM526 1036q0 -53 78 -143q139 80 139 160q0 37 -29.5 57t-74.5 20q-51 0 -82 -26.5t-31 -67.5z" />
<glyph unicode="'" horiz-adv-x="452" d="M61 1438h330l-41 -668h-248z" />
<glyph unicode="(" horiz-adv-x="811" d="M102 776q0 375 140.5 638t382.5 403l227 -205q-205 -154 -303 -350.5t-98 -485.5t99 -486.5t302 -348.5l-227 -205q-242 139 -382.5 402t-140.5 638z" />
<glyph unicode=")" horiz-adv-x="811" d="M-41 -59q211 160 306 359.5t95 475.5t-95 476t-306 360l227 205q242 -139 382.5 -402.5t140.5 -638.5t-140.5 -638t-382.5 -402z" />
<glyph unicode="*" horiz-adv-x="1069" d="M41 999l84 326l272 -131l-39 281l336 20l-39 -295l250 123l123 -313l-291 -54l195 -202l-260 -213l-146 270l-137 -256l-283 180l205 215z" />
<glyph unicode="+" d="M20 565l21 307h348v369l348 21v-390h369l-21 -307h-348v-368l-348 -21v389h-369z" />
<glyph unicode="," horiz-adv-x="548" d="M61 -334q90 197 91 361q0 131 -62 307l330 28q45 -127 45 -256q0 -201 -123 -468z" />
<glyph unicode="-" horiz-adv-x="686" d="M61 350l21 307h543l-21 -307h-543z" />
<glyph unicode="." horiz-adv-x="548" d="M82 172q0 84 54 138.5t138 54.5t138.5 -54.5t54.5 -138.5t-54.5 -138t-138.5 -54t-138 54t-54 138z" />
<glyph unicode="/" horiz-adv-x="776" d="M-102 -156l680 1872l301 -8l-680 -1872z" />
<glyph unicode="0" horiz-adv-x="1392" d="M82 719q0 365 153.5 552t460.5 187q305 0 460 -187.5t155 -551.5q0 -365 -153.5 -552t-461.5 -187q-305 0 -459.5 187t-154.5 552zM492 719q0 -391 204 -391q205 0 205 391t-205 391q-204 0 -204 -391z" />
<glyph unicode="1" horiz-adv-x="813" d="M20 905v377l383 156h308v-1438h-389v1028z" />
<glyph unicode="2" horiz-adv-x="1144" d="M41 1386q268 72 469 72q518 1 518 -491q0 -340 -461 -619h516l-20 -348h-1000l-20 348q301 197 448.5 346.5t147.5 272.5q0 143 -182 143q-123 0 -351 -68z" />
<glyph unicode="3" horiz-adv-x="1134" d="M41 51l65 344q238 -68 381 -67q195 0 195 102q0 61 -66 115h-290l20 348h229q66 53 66 115q0 102 -176 102q-123 0 -350 -68l-66 344q268 72 469 72q250 0 382 -98t132 -293q0 -207 -205 -336q246 -129 246 -360q0 -190 -148.5 -290.5t-416.5 -100.5q-258 0 -467 71z" />
<glyph unicode="4" horiz-adv-x="1196" d="M20 596q133 188 192.5 390t59.5 452h387q0 -260 -63.5 -447.5t-212.5 -394.5h242v268l389 21v-289h162l-21 -348h-141v-248h-389v248h-584z" />
<glyph unicode="5" horiz-adv-x="1114" d="M61 51l66 344q238 -68 360 -67q104 0 151.5 42t47.5 95q0 59 -43 87t-139 28h-381v858h874l-20 -348h-506v-232q96 20 176 21q197 0 311.5 -114t114.5 -316q0 -229 -142.5 -349t-422.5 -120q-231 0 -447 71z" />
<glyph unicode="6" horiz-adv-x="1253" d="M82 657q0 801 649 801q201 0 406 -51l-66 -344l-96 22q-113 25 -213 25q-117 0 -180.5 -55.5t-81.5 -208.5q135 70 284 69q199 0 313.5 -122.5t114.5 -337.5q0 -217 -148.5 -346t-408.5 -129q-268 0 -420.5 175t-152.5 502zM494 573q10 -145 48 -205.5t115 -60.5 q78 0 122 46t44 118q0 139 -141 139q-70 0 -188 -37z" />
<glyph unicode="7" horiz-adv-x="1019" d="M0 1090l20 348h979l21 -348q-225 -270 -320.5 -518t-95.5 -572h-389q0 340 105.5 599t334.5 491h-655z" />
<glyph unicode="8" horiz-adv-x="1249" d="M61 371q0 231 246 360q-205 129 -205 336q0 174 146 282.5t377 108.5q233 0 377.5 -108.5t144.5 -282.5q0 -207 -205 -336q246 -129 246 -360q0 -188 -146.5 -289.5t-416.5 -101.5t-417 101t-147 290zM451 410q0 -102 174 -103q174 0 174 103q0 53 -48 101t-126 75 q-80 -31 -127 -78t-47 -98zM492 1028q0 -29 26.5 -78t106.5 -78q80 29 106.5 78t26.5 78q0 47 -34 74.5t-99 27.5q-63 0 -98 -27.5t-35 -74.5z" />
<glyph unicode="9" horiz-adv-x="1253" d="M41 983q0 217 148.5 346t408.5 129q268 0 420.5 -175t152.5 -503q0 -801 -649 -800q-201 0 -405 51l65 344l99 -21q111 -26 211 -26q125 0 184 60.5t78 203.5q-135 -70 -285 -70q-199 0 -313.5 123t-114.5 338zM430 967q0 -140 141 -140q80 0 187 37q-10 145 -48 205.5 t-114 60.5q-78 0 -122 -46t-44 -117z" />
<glyph unicode=":" horiz-adv-x="548" d="M82 172q0 84 54 138.5t138 54.5t138.5 -54.5t54.5 -138.5t-54.5 -138t-138.5 -54t-138 54t-54 138zM82 836q0 84 54 138t138 54t138.5 -54t54.5 -138t-54.5 -138.5t-138.5 -54.5t-138 54.5t-54 138.5z" />
<glyph unicode=";" horiz-adv-x="548" d="M45 836q0 84 54.5 138t138.5 54t138 -54t54 -138t-54 -138.5t-138 -54.5t-138.5 54.5t-54.5 138.5zM61 -334q90 197 91 361q0 131 -62 307l330 28q45 -127 45 -256q0 -201 -123 -468z" />
<glyph unicode="&#x3c;" d="M61 569l21 308l868 401l113 -287l-645 -272l645 -273l-113 -286z" />
<glyph unicode="=" d="M20 258l21 307h1065l-21 -307h-1065zM20 872l21 308h1065l-21 -308h-1065z" />
<glyph unicode="&#x3e;" d="M63 446l646 273l-646 272l113 287l889 -410l-21 -307l-868 -401z" />
<glyph unicode="?" horiz-adv-x="1064" d="M41 1386q268 72 469 72q258 0 386 -102.5t128 -288.5q0 -121 -78 -226.5t-250 -174.5l-4 -185l-348 -20l-8 373q135 14 216 63t81 111q0 102 -176 102q-123 0 -351 -68zM326 172q0 84 54 138.5t138 54.5t138.5 -54.5t54.5 -138.5t-54.5 -138t-138.5 -54t-138 54t-54 138z " />
<glyph unicode="@" horiz-adv-x="2019" d="M82 313q0 344 125 593t356.5 380t542.5 131q399 0 615 -205.5t216 -576.5q0 -313 -132 -484t-371 -171q-190 0 -238 174q-86 -86 -186.5 -130t-192.5 -44q-143 0 -226 104t-83 289q0 272 143.5 445t386.5 173q264 0 467 -153l-65 -541q4 -35 37 -35q72 0 108.5 99.5 t36.5 273.5q0 248 -137 371.5t-379 123.5q-340 0 -524.5 -216t-184.5 -601q0 -238 130 -353.5t366 -115.5q172 0 330 70l110 -268q-201 -88 -440 -88q-381 0 -596 196.5t-215 558.5zM850 418q0 -121 57 -121q35 0 94.5 42t126.5 128l23 178q-63 39 -129 39q-72 0 -122 -62.5 t-50 -203.5z" />
<glyph unicode="A" horiz-adv-x="1366" d="M10 0l400 1427l538 21l408 -1448h-402l-57 236h-428l-57 -236h-402zM553 584h258l-129 526z" />
<glyph unicode="B" horiz-adv-x="1269" d="M102 20v1418h650q184 0 299.5 -102.5t115.5 -268.5q0 -207 -204 -336q245 -128 245 -358q0 -203 -162.5 -298t-447.5 -95q-96 0 -248.5 12t-247.5 28zM492 336l137 -8q88 0 138 27.5t50 74.5q0 61 -65 115h-260v-209zM492 893h219q66 53 65 115q0 82 -92 82h-192v-197z " />
<glyph unicode="C" horiz-adv-x="1218" d="M82 719q0 367 171 553t499 186q201 0 405 -51l-65 -344l-97 22q-113 25 -213 25q-160 0 -225 -93t-65 -298q0 -207 65.5 -299t224.5 -92q45 0 77 2t233 45l65 -344q-205 -51 -405 -51q-330 0 -500 187t-170 552z" />
<glyph unicode="D" horiz-adv-x="1409" d="M102 39v1399h557q328 0 498 -184.5t170 -540.5q0 -367 -193.5 -550t-560.5 -183q-221 0 -471 59zM492 338q55 -10 120 -10q305 0 306 379q0 383 -263 383h-163v-752z" />
<glyph unicode="E" horiz-adv-x="1140" d="M102 0v1438h977l-20 -348h-567v-197h464l-20 -348h-444v-197h587l-20 -348h-957z" />
<glyph unicode="F" horiz-adv-x="1099" d="M102 0v1438h977l-20 -348h-567v-281h464l-20 -348h-444v-461h-390z" />
<glyph unicode="G" horiz-adv-x="1366" d="M82 719q0 358 174 548.5t516 190.5q213 0 426 -51l-65 -344q-199 47 -330 47q-166 0 -238.5 -96t-72.5 -295q0 -213 67.5 -302t222.5 -89l92 4v166h-178l21 348h547v-776q-248 -90 -498 -90q-684 0 -684 739z" />
<glyph unicode="H" horiz-adv-x="1392" d="M102 0v1438h390v-545h409v545h389v-1438h-389v545h-409v-545h-390z" />
<glyph unicode="I" horiz-adv-x="593" d="M102 0v1438h390v-1438h-390z" />
<glyph unicode="J" horiz-adv-x="645" d="M-49 -94q100 90 151.5 174t51.5 190v1168h389v-1168q0 -190 -63.5 -321t-233.5 -268z" />
<glyph unicode="K" horiz-adv-x="1345" d="M102 0v1438h390v-582l415 592l439 -21l-506 -694l526 -723l-459 -20l-415 592v-582h-390z" />
<glyph unicode="L" horiz-adv-x="1079" d="M102 0v1438h390v-1090h546l-20 -348h-916z" />
<glyph unicode="M" horiz-adv-x="1835" d="M102 0v1427l498 21l315 -950l328 950l490 -21v-1427h-369v782l-256 -772l-381 -20l-256 792v-782h-369z" />
<glyph unicode="N" horiz-adv-x="1392" d="M102 0v1427l359 21l450 -778v768h379v-1428l-358 -20l-451 778v-768h-379z" />
<glyph unicode="O" horiz-adv-x="1515" d="M82 719q0 739 676 739t676 -739t-676 -739t-676 739zM492 719q0 -201 61 -296t205 -95q141 0 203.5 93t62.5 298q0 201 -61.5 296t-204.5 95q-141 0 -203.5 -93t-62.5 -298z" />
<glyph unicode="P" horiz-adv-x="1236" d="M102 0v1438h525q276 0 422.5 -134.5t146.5 -383.5q0 -240 -154.5 -380.5t-418.5 -140.5l-131 9v-408h-390zM492 758l100 -10q82 0 138 40.5t56 137.5q0 164 -200 164h-94v-332z" />
<glyph unicode="Q" horiz-adv-x="1515" d="M82 719q0 739 676 739t676 -739q0 -459 -267 -637q23 -72 48.5 -102.5t66.5 -30.5q25 0 127 31l45 -316q-150 -43 -285 -43q-127 0 -216 79t-142 282l-27 -2h-26q-676 0 -676 739zM492 719q0 -201 61 -296t205 -95q141 0 203.5 93t62.5 298q0 201 -61.5 296t-204.5 95 q-141 0 -203.5 -93t-62.5 -298z" />
<glyph unicode="R" horiz-adv-x="1286" d="M102 0v1438h504q276 0 429 -130t153 -376q0 -266 -203 -404l270 -518l-448 -20l-193 440q-66 0 -122 8v-438h-390zM492 768q51 -10 102 -10q205 0 205 184q0 82 -48.5 125t-162.5 43h-96v-342z" />
<glyph unicode="S" horiz-adv-x="1179" d="M41 1006q0 452 574 452h3q252 0 467 -72l-65 -344q-94 27 -225 47.5t-228 20.5q-53 0 -84.5 -27.5t-31.5 -81.5q0 -37 17 -50t175 -52q193 -51 288 -108.5t151.5 -145.5t56.5 -213q0 -452 -575 -452h-3q-252 0 -467 71l66 344q94 -27 225 -47t227 -20q53 0 85 27.5 t32 78.5q0 39 -16.5 52.5t-175.5 54.5q-193 49 -288 106.5t-151.5 145.5t-56.5 213z" />
<glyph unicode="T" horiz-adv-x="1196" d="M20 1090l21 348h1135l-21 -348h-362v-1090h-390v1090h-383z" />
<glyph unicode="U" horiz-adv-x="1392" d="M102 487v951h390v-906q0 -109 43 -156.5t161 -47.5q115 0 160 47t45 157v906h389v-951q0 -248 -151.5 -377.5t-442.5 -129.5q-293 0 -443.5 130t-150.5 377z" />
<glyph unicode="V" horiz-adv-x="1361" d="M10 1427l398 21l274 -1120l272 1120l398 -21l-402 -1427h-536z" />
<glyph unicode="W" horiz-adv-x="1941" d="M10 1427l389 21l205 -1061l172 1040l428 21l174 -1061l205 1061l348 -21l-342 -1427h-452l-156 780l-156 -780h-473z" />
<glyph unicode="X" horiz-adv-x="1363" d="M0 10l451 709l-451 708l451 21l231 -408l231 408l451 -21l-451 -708l451 -709l-449 -20l-233 407l-233 -407z" />
<glyph unicode="Y" horiz-adv-x="1363" d="M0 1427l451 21l231 -530l231 530l451 -21l-487 -888v-539h-390v539z" />
<glyph unicode="Z" horiz-adv-x="1187" d="M51 1090l21 348h1040l21 -348l-596 -742h600l-21 -348h-1040l-21 348l596 742h-600z" />
<glyph unicode="[" horiz-adv-x="761" d="M164 -164v1880h598l-21 -307h-229v-1266h250l-21 -307h-577z" />
<glyph unicode="\" horiz-adv-x="776" d="M-102 1708l301 8l680 -1872l-301 -8z" />
<glyph unicode="]" horiz-adv-x="761" d="M0 -164l20 307h230v1266h-250l20 307h578v-1880h-598z" />
<glyph unicode="^" horiz-adv-x="1073" d="M0 440l311 998h451l311 -998l-381 -20l-155 645l-156 -645z" />
<glyph unicode="_" horiz-adv-x="1019" d="M0 -326l20 267h1000l-21 -267h-999z" />
<glyph unicode="`" horiz-adv-x="761" d="M102 1458h385l172 -344h-286z" />
<glyph unicode="a" horiz-adv-x="1026" d="M41 276q0 152 107.5 227t424.5 109v35q0 74 -92 74q-104 0 -340 -64l-49 297q248 74 469 74q188 0 275.5 -89t87.5 -273v-666h-262l-37 72q-150 -92 -289 -92q-131 0 -213 80.5t-82 215.5zM373 299q0 -59 71 -59q41 0 129 24v129q-125 -18 -150.5 -28.5t-37.5 -25.5 t-12 -40z" />
<glyph unicode="b" horiz-adv-x="1177" d="M102 61v1471l349 20v-634q163 110 301 110h2q168 0 265 -142.5t97 -381.5q0 -524 -530 -524q-207 0 -484 81zM451 307q86 -20 139 -20q170 0 170 223q0 184 -129 184q-51 0 -180 -37v-350z" />
<glyph unicode="c" horiz-adv-x="923" d="M61 504q0 258 131.5 391t374.5 133q141 0 316 -35l-43 -299q-133 27 -232 27q-115 0 -152.5 -56.5t-37.5 -160.5t38 -160.5t152 -56.5q98 0 232 26l43 -299q-175 -34 -316 -34q-246 0 -376 134t-130 390z" />
<glyph unicode="d" horiz-adv-x="1177" d="M61 504q0 246 119 385t320 139q109 0 227 -45v549l348 20v-1552h-327l-21 90q-163 -110 -301 -110h-2q-168 0 -265.5 142t-97.5 382zM418 498q0 -90 29.5 -137.5t99.5 -47.5q51 0 180 37v350q-88 20 -139 21q-170 0 -170 -223z" />
<glyph unicode="e" horiz-adv-x="1048" d="M61 502q0 252 128 389t366 137q207 0 318.5 -123t113.5 -356q0 -74 -12 -160h-567q0 -123 176 -123q72 0 143.5 16.5t151.5 30.5l45 -268q-177 -65 -365 -65h-6q-238 0 -365 121.5t-127 400.5zM410 625h229v14q0 117 -109 117q-102 0 -120 -131z" />
<glyph unicode="f" horiz-adv-x="794" d="M20 700l21 308h133v135q0 213 94 311t275 98q100 0 252 -34l-27 -291q-88 18 -141 18q-59 0 -82 -30.5t-23 -106.5v-100h246l-20 -308h-226v-700h-348v700h-154z" />
<glyph unicode="g" horiz-adv-x="1081" d="M39 -168q0 143 174 258q-29 51 -29 117q0 104 70 184q-168 82 -168 291q0 174 113.5 260t314.5 86q98 0 176 -20h369l-21 -308h-92v-18q0 -174 -113.5 -258t-318.5 -84h-18q-12 -25 -13 -43q0 -57 64 -57h55q221 0 338 -79t117 -220q0 -174 -152.5 -278.5t-419.5 -104.5 q-217 0 -331.5 71.5t-114.5 202.5zM379 -123q0 -92 151 -92q88 0 135.5 26.5t47.5 73.5q0 35 -50.5 54.5t-138.5 19.5h-18l-82 6q-45 -39 -45 -88zM414 682q0 -96 100 -96q104 0 104 96q0 100 -104 100q-100 0 -100 -100z" />
<glyph unicode="h" horiz-adv-x="1187" d="M102 0v1532l349 20v-632q207 108 353 108h3q137 0 207.5 -87t70.5 -245v-696h-348v575q0 119 -104 119q-57 0 -182 -37v-657h-349z" />
<glyph unicode="i" horiz-adv-x="552" d="M84 1300q0 84 54 138.5t138 54.5t138.5 -54.5t54.5 -138.5t-54.5 -138t-138.5 -54t-138 54.5t-54 137.5zM102 0v997l349 21v-1018h-349z" />
<glyph unicode="j" horiz-adv-x="604" d="M-29 -240q90 82 136.5 156t46.5 170v911l348 21v-932q0 -174 -59.5 -292t-206.5 -236zM135 1300q0 84 54.5 138.5t138.5 54.5t138 -54.5t54 -138.5t-54 -138t-138 -54t-138.5 54.5t-54.5 137.5z" />
<glyph unicode="k" horiz-adv-x="1150" d="M102 0v1532l349 20v-895l256 361l393 -21l-346 -456l397 -531l-414 -20l-286 401v-391h-349z" />
<glyph unicode="l" horiz-adv-x="645" d="M102 268v1264l349 20v-1204q0 -55 51 -55q43 0 116 16l27 -291q-35 -8 -64.5 -15t-61.5 -12t-66.5 -8t-79.5 -3q-123 0 -197 77.5t-74 210.5z" />
<glyph unicode="m" horiz-adv-x="1740" d="M102 0v997l349 21v-98q193 108 330 108h2.5h3.5q139 0 206 -108q211 108 382 108h3q123 0 191.5 -84t68.5 -248v-696h-348v575q0 68 -22.5 93.5t-65.5 25.5t-160 -37l2 -45v-612h-348v575q0 68 -22.5 93.5t-65.5 25.5q-51 0 -157 -37v-657h-349z" />
<glyph unicode="n" horiz-adv-x="1187" d="M102 0v997l349 21v-98q207 108 353 108h3q137 0 207.5 -87t70.5 -245v-696h-348v575q0 68 -26.5 93.5t-77.5 25.5q-57 0 -182 -37v-657h-349z" />
<glyph unicode="o" horiz-adv-x="1167" d="M61 504q0 262 138.5 393t384.5 131t384 -131t138 -393q0 -264 -138.5 -394t-383.5 -130q-246 0 -384.5 130t-138.5 394zM418 504q0 -217 166 -217t166 217t-166 217t-166 -217z" />
<glyph unicode="p" horiz-adv-x="1177" d="M102 -432v1429l349 21v-100q163 110 301 110h2q168 0 265 -142.5t97 -381.5q0 -246 -118.5 -385t-319.5 -139q-109 0 -227 45v-437zM451 307q86 -20 139 -20q170 0 170 223q0 184 -129 184q-51 0 -180 -37v-350z" />
<glyph unicode="q" horiz-adv-x="1177" d="M61 504q0 524 531 524q207 0 483 -82v-1358l-348 -20v522q-163 -110 -301 -110h-2q-168 0 -265.5 142t-97.5 382zM418 498q0 -90 29.5 -137.5t99.5 -47.5q51 0 180 37v350q-88 20 -139 21q-170 0 -170 -223z" />
<glyph unicode="r" horiz-adv-x="860" d="M102 0v997l349 21v-158q80 92 140 130t128 38q53 0 121 -22l-39 -371q-115 37 -148 37q-51 0 -97 -34t-105 -118v-520h-349z" />
<glyph unicode="s" horiz-adv-x="942" d="M61 707q0 321 430 321h3q176 0 348 -49l-49 -285q-53 18 -151.5 32.5t-162.5 14.5q-72 0 -71 -45l4 -22q4 -12 41 -19q199 -41 272.5 -83t114.5 -108.5t41 -162.5q0 -321 -429 -321h-3q-176 0 -349 49l50 284q53 -18 151 -32.5t162 -14.5q72 0 72 45l-5 23q-4 12 -38 20 q-201 39 -274 81t-115 106.5t-42 165.5z" />
<glyph unicode="t" horiz-adv-x="835" d="M20 700l21 308h133v299l348 20v-319h246l-20 -308h-226v-276q0 -76 22.5 -106.5t82.5 -30.5q53 0 141 18l27 -291q-148 -34 -246 -34h-6q-182 0 -275.5 99t-93.5 310v311h-154z" />
<glyph unicode="u" horiz-adv-x="1187" d="M102 311v686l349 21v-586q0 -68 26.5 -93.5t77.5 -25.5q57 0 182 37v647l348 21v-1018h-327l-21 88q-207 -108 -353 -108h-3q-137 0 -208 87t-71 244z" />
<glyph unicode="v" horiz-adv-x="1073" d="M0 997l381 21l156 -645l155 645l381 -21l-311 -997h-451z" />
<glyph unicode="w" horiz-adv-x="1589" d="M0 997l360 21l136 -686l110 665l373 21l115 -686l135 686l360 -21l-270 -997h-399l-125 481l-125 -481h-400z" />
<glyph unicode="x" horiz-adv-x="1073" d="M0 10l309 494l-309 493l401 21l136 -266l135 266l401 -21l-309 -493l309 -494l-401 -20l-135 266l-136 -266z" />
<glyph unicode="y" horiz-adv-x="1073" d="M0 997l381 21l156 -645l155 645l381 -21l-446 -1429l-381 20l129 412h-64z" />
<glyph unicode="z" horiz-adv-x="987" d="M61 287l408 413h-397l20 308h813l21 -287l-408 -414h397l-20 -307h-813z" />
<glyph unicode="{" horiz-adv-x="837" d="M41 623l20 307h91q53 2 73.5 33.5t20.5 103.5v260q0 188 100 302t268 114q88 0 183 -37l-21 -295q-57 18 -86 19q-96 0 -96 -138v-157q0 -266 -154 -359q154 -92 154 -358v-158q0 -137 100 -137q12 0 103 20l-21 -299q-92 -35 -174 -34q-160 0 -258 115.5t-98 299.5v260 q0 76 -22.5 107t-82.5 31h-100z" />
<glyph unicode="|" horiz-adv-x="634" d="M164 -184v1900l307 21v-1901z" />
<glyph unicode="}" horiz-adv-x="837" d="M41 -154l20 295q57 -18 89 -18q94 0 94 137v158q0 266 153 358q-154 92 -153 359v157q0 137 -101 138q-12 0 -102 -21l20 299q92 35 175 35q160 0 258 -116t98 -300v-260q0 -76 22.5 -106.5t81.5 -30.5h101l-21 -307h-90q-53 -2 -73.5 -34t-20.5 -104v-260 q0 -190 -101.5 -302.5t-267.5 -112.5q-88 0 -182 36z" />
<glyph unicode="~" d="M23 586q6 182 114.5 307t255.5 125q88 0 141.5 -24.5t86 -55.5t55 -55.5t51.5 -24.5q18 0 42 25.5t30 99.5l305 -45q-6 -180 -113.5 -306t-257.5 -126q-90 0 -142 24.5t-85 55t-54.5 55.5t-52.5 25q-18 0 -41.5 -26t-29.5 -99z" />
<glyph unicode="&#xa1;" horiz-adv-x="716" d="M164 -430l20 956l348 21l21 -977h-389zM166 836q0 84 54 138t138 54t138.5 -54t54.5 -138t-54.5 -138.5t-138.5 -54.5t-138 54.5t-54 138.5z" />
<glyph unicode="&#xa2;" horiz-adv-x="991" d="M61 903q0 449 365 535v229l287 21v-234q59 -4 217 -33l-45 -319q-145 31 -256 31q-115 0 -163 -55.5t-48 -182.5q0 -131 47 -185.5t164 -54.5q111 0 256 31l45 -301q-117 -25 -217 -33v-213l-287 -20v248q-365 86 -365 536z" />
<glyph unicode="&#xa3;" horiz-adv-x="1171" d="M61 348q197 129 252 209h-231l22 266h189q-66 80 -87.5 145.5t-21.5 135.5q0 164 125 259t332 95q244 0 457 -51l-72 -344q-68 16 -180.5 31.5t-163.5 15.5q-82 0 -86 -61q0 -37 22 -54q94 -70 130 -172h323l-22 -266h-310q-53 -147 -159 -207h530l-23 -336v-14h-995z " />
<glyph unicode="&#xa4;" d="M23 410l137 137q-29 80 -29 172q0 90 29 170l-137 139l245 217l123 -125q76 31 172 31q92 0 170 -31l125 125l246 -217l-139 -139q31 -78 30 -170q0 -96 -30 -172l139 -137l-246 -217l-125 122q-80 -29 -170 -28q-92 0 -172 28l-123 -122zM416 719q0 -66 41 -107t106 -41 q66 0 107 41t41 107t-41 106.5t-107 40.5t-106.5 -40.5t-40.5 -106.5z" />
<glyph unicode="&#xa5;" horiz-adv-x="1363" d="M0 1427l451 21l231 -530l231 530l451 -21l-301 -546h154l-21 -267h-278l-41 -75v-7h340l-21 -266h-319v-266h-390v266h-337l20 266h317v7l-43 75h-294l20 267h129z" />
<glyph unicode="&#xa6;" horiz-adv-x="634" d="M164 -184v786l307 21v-787zM164 930v786l307 21v-787z" />
<glyph unicode="&#xa7;" horiz-adv-x="1404" d="M61 881q0 272 188.5 424.5t522.5 152.5q250 0 467 -51l-65 -344q-76 20 -197 35q0 -106 44 -220t140 -264q96 -152 139 -264t43 -215q0 -272 -188 -424.5t-522 -152.5q-250 0 -467 51l65 344q78 -20 195 -35q0 199 -182 483q-96 152 -139.5 264.5t-43.5 215.5zM430 881 q0 -63 36 -141t144 -257q178 -291 183 -565q182 43 182 217q0 63 -36 142t-144 255q-182 293 -183 566q-182 -43 -182 -217z" />
<glyph unicode="&#xa8;" horiz-adv-x="1024" d="M102 1300q0 72 46 118t118 46t118 -46t46 -118t-46 -117.5t-118 -45.5t-118 46t-46 117zM594 1300q0 72 46 118t118 46t118 -46t46 -118t-46.5 -117.5t-117.5 -45.5q-72 0 -118 46t-46 117z" />
<glyph unicode="&#xa9;" horiz-adv-x="1601" d="M61 719q0 328 206 533.5t534 205.5t533.5 -205.5t205.5 -533.5t-206 -533.5t-533 -205.5q-328 0 -534 205.5t-206 533.5zM293 719q0 -238 143.5 -383.5t364.5 -145.5q223 0 365.5 146.5t142.5 382.5q0 238 -143.5 383t-364.5 145t-364.5 -146t-143.5 -382zM446 719 q0 408 375 407q111 0 226 -30l-43 -211l-52 12q-65 14 -110 14q-68 0 -108 -41t-40 -151q0 -111 40 -152t108 -41q14 0 26.5 1t135.5 26l43 -211q-115 -31 -226 -31q-375 0 -375 408z" />
<glyph unicode="&#xaa;" horiz-adv-x="647" d="M23 991q0 96 66.5 142.5t256.5 68.5v10q0 35 -49 35q-76 0 -209 -37l-35 205q168 43 301 43q111 0 171.5 -51t60.5 -180v-412h-178l-31 47q-68 -61 -168 -61q-74 0 -130 49t-56 141zM250 1008q0 -27 37 -27q31 0 59 12v64q-96 -8 -96 -49z" />
<glyph unicode="&#xab;" horiz-adv-x="1255" d="M41 422l20 184l369 371l232 -260l-209 -213l209 -213l-232 -260zM594 422l20 184l369 371l231 -260l-208 -213l208 -213l-231 -260z" />
<glyph unicode="&#xac;" d="M20 565l21 307h1055v-675l-348 -21v389h-728z" />
<glyph unicode="&#xad;" horiz-adv-x="686" d="M61 350l21 307h543l-21 -307h-543z" />
<glyph unicode="&#xae;" horiz-adv-x="864" d="M61 1087q0 166 101.5 268.5t269.5 102.5q166 0 268.5 -101.5t102.5 -269.5q0 -166 -101.5 -268t-269.5 -102q-166 0 -268.5 101t-102.5 269zM178 1087q0 -117 70.5 -190.5t183.5 -73.5t183.5 74t70.5 190q0 117 -70.5 191t-183.5 74t-183.5 -74t-70.5 -191zM279 887v397 h149q76 0 119 -37t43 -108q0 -78 -55 -113q8 -31 28 -31l33 11l14 -107q-51 -18 -82 -18q-80 0 -108 114l-23 2v-110h-118zM397 1104l25 -4q47 0 47 43q0 39 -49 39h-23v-78z" />
<glyph unicode="&#xaf;" horiz-adv-x="882" d="M102 1137l21 245h657l-20 -245h-658z" />
<glyph unicode="&#xb0;" horiz-adv-x="720" d="M41 1139q0 141 89 230t230 89t230.5 -89t89.5 -230t-89 -230.5t-231 -89.5q-141 0 -230 89.5t-89 230.5zM276 1139q0 -94 84 -95q84 0 84 95q0 94 -84 94t-84 -94z" />
<glyph unicode="&#xb1;" d="M20 0l21 307h1065l-21 -307h-1065zM20 709l21 307h348v307l348 20v-327h369l-21 -307h-348v-308l-348 -20v328h-369z" />
<glyph unicode="&#xb2;" horiz-adv-x="686" d="M25 1716q188 41 286 41q316 0 316 -276q0 -184 -281 -344h316l-15 -195h-608l-12 195q182 111 272 193.5t90 150.5q0 80 -110 80q-88 0 -213 -37z" />
<glyph unicode="&#xb3;" horiz-adv-x="686" d="M25 971l41 192q141 -39 231 -39q119 0 119 58q0 35 -41 65h-176l12 193h139q41 33 41 65q0 55 -108 56q-84 0 -213 -37l-41 192q188 41 286 41q150 0 232 -54t82 -165q0 -117 -125 -186q150 -74 149 -203q0 -113 -95 -165t-249 -52q-162 0 -284 39z" />
<glyph unicode="&#xb4;" horiz-adv-x="761" d="M102 1114l172 344h385l-270 -344h-287z" />
<glyph unicode="&#xb5;" horiz-adv-x="1187" d="M102 -432v1429l349 21v-586q0 -119 104 -119q72 0 182 37v647l348 21v-1018h-327l-21 88q-197 -109 -323 -108l-64 6l84 -398z" />
<glyph unicode="&#xb6;" horiz-adv-x="1112" d="M72 1118q0 141 89 230.5t230 89.5h721l-8 -201h-113v-1237h-209v1237h-127v-1237h-188v799h-76q-141 0 -230 89t-89 230z" />
<glyph unicode="&#xb7;" horiz-adv-x="548" d="M82 719q0 84 54 138t138 54t138.5 -54t54.5 -138t-54.5 -138.5t-138.5 -54.5t-138 54.5t-54 138.5z" />
<glyph unicode="&#xb8;" horiz-adv-x="643" d="M102 -418l33 168q80 -25 135 -24q55 0 56 22q0 33 -47 33q-27 0 -62 -14l-74 127l66 126h221l-84 -94l27 2q74 0 123 -54t49 -124q0 -84 -71 -138t-200 -54q-86 0 -172 24z" />
<glyph unicode="&#xb9;" horiz-adv-x="665" d="M49 942l14 195h170v379l-184 -68v211l234 86h188v-608h162l-12 -195h-572z" />
<glyph unicode="&#xba;" horiz-adv-x="733" d="M35 1128q0 162 87 246t245 84t244.5 -84t86.5 -246q0 -160 -87 -243.5t-244 -83.5q-158 0 -245 83.5t-87 243.5zM281 1128q0 -115 86 -114q88 0 88 114q0 119 -88 119q-86 0 -86 -119z" />
<glyph unicode="&#xbb;" horiz-adv-x="1255" d="M41 291l209 213l-209 213l231 260l390 -391l-21 -185l-369 -370zM594 291l209 213l-209 213l231 260l389 -391l-20 -185l-369 -370z" />
<glyph unicode="&#xbc;" horiz-adv-x="1617" d="M41 635l14 194h170v379l-184 -67v211l233 86h189v-609h162l-13 -194h-571zM336 0l721 1438h260l-721 -1438h-260zM915 334q82 104 118 216t36 253h236q0 -141 -41 -252t-127 -217h120v125l240 12v-137h80l-12 -195h-68v-139h-240v139h-329z" />
<glyph unicode="&#xbd;" horiz-adv-x="1691" d="M41 635l14 194h170v379l-184 -67v211l233 86h189v-609h162l-13 -194h-571zM336 0l721 1438h260l-721 -1438h-260zM1014 774q190 41 286 41q316 0 316 -276q0 -184 -281 -344h316l-15 -195h-608l-12 195q182 111 272 193.5t90 150.5q0 80 -110 79q-88 0 -213 -36z" />
<glyph unicode="&#xbe;" horiz-adv-x="1622" d="M41 664l41 192q141 -39 231 -39q119 0 119 57q0 35 -41 66h-176l12 193h140q41 33 41 65q0 55 -109 55q-84 0 -213 -36l-41 192q190 41 287 41q150 0 231.5 -54.5t81.5 -164.5q0 -117 -125 -187q150 -74 150 -202q0 -113 -95.5 -165t-248.5 -52q-162 0 -285 39zM340 0 l721 1438h260l-721 -1438h-260zM920 334q82 104 117.5 216t35.5 253h236q0 -141 -41 -252t-127 -217h121v125l239 12v-137h80l-12 -195h-68v-139h-239v139h-330z" />
<glyph unicode="&#xbf;" horiz-adv-x="1064" d="M41 -59q0 121 78 226t250 175l4 184l348 21l8 -373q-135 -14 -216 -63.5t-81 -110.5q0 -102 176 -102q123 0 350 67l66 -344q-268 -72 -469 -72q-256 0 -385 102.5t-129 289.5zM354 836q0 84 54.5 138t138.5 54t138 -54t54 -138t-54 -138.5t-138 -54.5t-138.5 54.5 t-54.5 138.5z" />
<glyph unicode="&#xc0;" horiz-adv-x="1366" d="M10 0l400 1427l538 21l408 -1448h-402l-57 236h-428l-57 -236h-402zM249 1843h467l234 -303h-369zM553 584h258l-129 526z" />
<glyph unicode="&#xc1;" horiz-adv-x="1366" d="M10 0l400 1427l538 21l408 -1448h-402l-57 236h-428l-57 -236h-402zM393 1540l234 303h467l-332 -303h-369zM553 584h258l-129 526z" />
<glyph unicode="&#xc2;" horiz-adv-x="1366" d="M10 0l400 1427l538 21l408 -1448h-402l-57 236h-428l-57 -236h-402zM249 1540l215 303h435l215 -303h-355l-82 123l-81 -123h-347zM553 584h258l-129 526z" />
<glyph unicode="&#xc3;" horiz-adv-x="1366" d="M10 0l400 1427l538 21l408 -1448h-402l-57 236h-428l-57 -236h-402zM295 1571q4 131 76 217t176 86q117 0 217 -94q18 -18 31 -19q49 0 55 88l220 -37q-8 -139 -81 -221t-171 -82q-117 0 -217 97q-18 16 -31 16q-49 0 -55 -88zM553 584h258l-129 526z" />
<glyph unicode="&#xc4;" horiz-adv-x="1366" d="M10 0l400 1427l538 21l408 -1448h-402l-57 236h-428l-57 -236h-402zM272 1694q0 72 46 118t118 46t118 -46.5t46 -117.5q0 -72 -46 -118t-118 -46t-118 46t-46 118zM553 584h258l-129 526zM764 1694q0 72 46 118t118 46t118 -46.5t46 -117.5q0 -72 -46.5 -118t-117.5 -46 q-72 0 -118 46t-46 118z" />
<glyph unicode="&#xc5;" horiz-adv-x="1366" d="M10 0l400 1427l172 7q-70 25 -111 84t-41 139q0 106 70.5 172.5t181.5 66.5t181.5 -66.5t70.5 -172.5q0 -74 -36 -130.5t-95 -84.5l145 6l408 -1448h-402l-57 236h-428l-57 -236h-402zM553 584h258l-129 526zM614 1657q0 -72 68 -72t68 72t-68 72t-68 -72z" />
<glyph unicode="&#xc6;" horiz-adv-x="1961" d="M-20 0l727 1438h1194l-21 -348h-567v-197h465l-21 -348h-444v-197h588l-21 -348h-956v236h-400l-106 -236h-438zM680 584h244v540z" />
<glyph unicode="&#xc7;" horiz-adv-x="1218" d="M82 719q0 367 171 553t499 186q201 0 405 -51l-65 -344l-97 22q-113 25 -213 25q-160 0 -225 -93t-65 -298q0 -207 65.5 -299t224.5 -92q45 0 77 2t233 45l65 -344q-152 -41 -330 -49l-49 -56l27 2q74 0 123 -54t49 -124q0 -84 -70.5 -138t-199.5 -54q-86 0 -172 24 l32 168q80 -25 135 -24q55 0 56 22q0 33 -47 33q-27 0 -62 -14l-74 127l48 94q-262 33 -401.5 214t-139.5 517z" />
<glyph unicode="&#xc8;" horiz-adv-x="1140" d="M102 0v1438h977l-20 -348h-567v-197h464l-20 -348h-444v-197h587l-20 -348h-957zM178 1843h467l234 -303h-369z" />
<glyph unicode="&#xc9;" horiz-adv-x="1140" d="M102 0v1438h977l-20 -348h-567v-197h464l-20 -348h-444v-197h587l-20 -348h-957zM301 1540l234 303h467l-332 -303h-369z" />
<glyph unicode="&#xca;" horiz-adv-x="1140" d="M102 0v1438h977l-20 -348h-567v-197h464l-20 -348h-444v-197h587l-20 -348h-957zM157 1540l215 303h435l215 -303h-355l-82 123l-81 -123h-347z" />
<glyph unicode="&#xcb;" horiz-adv-x="1140" d="M102 0v1438h977l-20 -348h-567v-197h464l-20 -348h-444v-197h587l-20 -348h-957zM180 1694q0 72 46 118t118 46t118 -46.5t46 -117.5q0 -72 -46 -118t-118 -46t-118 46t-46 118zM672 1694q0 72 46 118t118 46t118 -46.5t46 -117.5q0 -72 -46.5 -118t-117.5 -46 q-72 0 -118 46t-46 118z" />
<glyph unicode="&#xcc;" horiz-adv-x="593" d="M-207 1843h467l234 -303h-369zM102 0v1438h390v-1438h-390z" />
<glyph unicode="&#xcd;" horiz-adv-x="593" d="M100 1540l234 303h467l-332 -303h-369zM102 0v1438h390v-1438h-390z" />
<glyph unicode="&#xce;" horiz-adv-x="593" d="M-136 1540l215 303h435l215 -303h-355l-82 123l-81 -123h-347zM102 0v1438h390v-1438h-390z" />
<glyph unicode="&#xcf;" horiz-adv-x="593" d="M-113 1694q0 72 46 118t118 46t118 -46.5t46 -117.5q0 -72 -46 -118t-118 -46t-118 46t-46 118zM102 0v1438h390v-1438h-390zM379 1694q0 72 46 118t118 46t118 -46.5t46 -117.5q0 -72 -46.5 -118t-117.5 -46q-72 0 -118 46t-46 118z" />
<glyph unicode="&#xd0;" horiz-adv-x="1409" d="M0 596l20 246h82v596h557q328 0 498 -184.5t170 -540.5q0 -367 -193.5 -550t-560.5 -183q-221 0 -471 59v557h-102zM492 338q55 -10 120 -10q305 0 306 379q0 383 -263 383h-163v-248h186l-21 -246h-165v-258z" />
<glyph unicode="&#xd1;" horiz-adv-x="1392" d="M102 0v1427l359 21l450 -778v768h379v-1428l-358 -20l-451 778v-768h-379zM309 1571q4 131 76 217t176 86q117 0 217 -94q18 -18 31 -19q49 0 55 88l220 -37q-8 -139 -81 -221t-171 -82q-117 0 -217 97q-18 16 -31 16q-49 0 -55 -88z" />
<glyph unicode="&#xd2;" horiz-adv-x="1515" d="M82 719q0 739 676 739t676 -739t-676 -739t-676 739zM325 1843h467l234 -303h-369zM492 719q0 -201 61 -296t205 -95q141 0 203.5 93t62.5 298q0 201 -61.5 296t-204.5 95q-141 0 -203.5 -93t-62.5 -298z" />
<glyph unicode="&#xd3;" horiz-adv-x="1515" d="M82 719q0 739 676 739t676 -739t-676 -739t-676 739zM489 1540l234 303h467l-332 -303h-369zM492 719q0 -201 61 -296t205 -95q141 0 203.5 93t62.5 298q0 201 -61.5 296t-204.5 95q-141 0 -203.5 -93t-62.5 -298z" />
<glyph unicode="&#xd4;" horiz-adv-x="1515" d="M82 719q0 739 676 739t676 -739t-676 -739t-676 739zM325 1540l215 303h435l215 -303h-355l-82 123l-81 -123h-347zM492 719q0 -201 61 -296t205 -95q141 0 203.5 93t62.5 298q0 201 -61.5 296t-204.5 95q-141 0 -203.5 -93t-62.5 -298z" />
<glyph unicode="&#xd5;" horiz-adv-x="1515" d="M82 719q0 739 676 739t676 -739t-676 -739t-676 739zM370 1571q4 131 76 217t176 86q117 0 217 -94q18 -18 31 -19q49 0 55 88l220 -37q-8 -139 -81 -221t-171 -82q-117 0 -217 97q-18 16 -31 16q-49 0 -55 -88zM492 719q0 -201 61 -296t205 -95q141 0 203.5 93t62.5 298 q0 201 -61.5 296t-204.5 95q-141 0 -203.5 -93t-62.5 -298z" />
<glyph unicode="&#xd6;" horiz-adv-x="1515" d="M82 719q0 739 676 739t676 -739t-676 -739t-676 739zM348 1694q0 72 46 118t118 46t118 -46.5t46 -117.5q0 -72 -46 -118t-118 -46t-118 46t-46 118zM492 719q0 -201 61 -296t205 -95q141 0 203.5 93t62.5 298q0 201 -61.5 296t-204.5 95q-141 0 -203.5 -93t-62.5 -298z M840 1694q0 72 46 118t118 46t118 -46.5t46 -117.5q0 -72 -46.5 -118t-117.5 -46q-72 0 -118 46t-46 118z" />
<glyph unicode="&#xd7;" d="M23 410l309 309l-309 309l245 217l295 -295l295 295l246 -217l-309 -309l309 -309l-246 -217l-295 294l-295 -294z" />
<glyph unicode="&#xd8;" horiz-adv-x="1515" d="M82 719q0 739 676 739q176 0 317 -55l137 221l170 -76l-151 -241q203 -180 203 -588q0 -739 -676 -739q-188 0 -318 53l-137 -219l-172 75l152 242q-201 180 -201 588zM492 719q0 -131 24 -213l363 581q-49 23 -121 23q-141 0 -203.5 -93t-62.5 -298zM637 350 q47 -23 121 -22q141 0 203.5 93t62.5 298q0 125 -27 213z" />
<glyph unicode="&#xd9;" horiz-adv-x="1392" d="M102 487v951h390v-906q0 -109 43 -156.5t161 -47.5q115 0 160 47t45 157v906h389v-951q0 -248 -151.5 -377.5t-442.5 -129.5q-293 0 -443.5 130t-150.5 377zM264 1843h467l234 -303h-369z" />
<glyph unicode="&#xda;" horiz-adv-x="1392" d="M102 487v951h390v-906q0 -109 43 -156.5t161 -47.5q115 0 160 47t45 157v906h389v-951q0 -248 -151.5 -377.5t-442.5 -129.5q-293 0 -443.5 130t-150.5 377zM428 1540l234 303h467l-332 -303h-369z" />
<glyph unicode="&#xdb;" horiz-adv-x="1392" d="M102 487v951h390v-906q0 -109 43 -156.5t161 -47.5q115 0 160 47t45 157v906h389v-951q0 -248 -151.5 -377.5t-442.5 -129.5q-293 0 -443.5 130t-150.5 377zM264 1540l215 303h435l215 -303h-355l-82 123l-81 -123h-347z" />
<glyph unicode="&#xdc;" horiz-adv-x="1392" d="M102 487v951h390v-906q0 -109 43 -156.5t161 -47.5q115 0 160 47t45 157v906h389v-951q0 -248 -151.5 -377.5t-442.5 -129.5q-293 0 -443.5 130t-150.5 377zM286 1694q0 72 46 118t118 46t118 -46.5t46 -117.5q0 -72 -46 -118t-118 -46t-118 46t-46 118zM778 1694 q0 72 46 118t118 46t118 -46.5t46 -117.5q0 -72 -46.5 -118t-117.5 -46q-72 0 -118 46t-46 118z" />
<glyph unicode="&#xdd;" horiz-adv-x="1363" d="M0 1427l451 21l231 -530l231 530l451 -21l-487 -888v-539h-390v539zM413 1540l234 303h467l-332 -303h-369z" />
<glyph unicode="&#xde;" horiz-adv-x="1236" d="M102 0v1438h390v-209l131 8q264 0 418.5 -140.5t154.5 -377.5q0 -238 -155.5 -378t-417.5 -140l-131 8v-209h-390zM492 559l100 -10q195 0 194 170q0 170 -194 170l-100 -10v-320z" />
<glyph unicode="&#xdf;" horiz-adv-x="1275" d="M102 0v1053q0 252 121 375.5t387 123.5q205 0 326 -105.5t121 -275.5q0 -143 -88 -282l-49 -82q139 -49 211.5 -162t72.5 -248q0 -182 -114.5 -299.5t-294.5 -117.5q-156 0 -250 51l49 282q47 -29 106 -28q59 0 99.5 40t40.5 115q0 76 -81 142.5t-173 76.5l-23 144 l127 215q33 57 33 108t-29.5 85t-83.5 34q-78 0 -118.5 -50t-40.5 -142v-1053h-349z" />
<glyph unicode="&#xe0;" horiz-adv-x="1026" d="M41 276q0 152 107.5 227t424.5 109v35q0 74 -92 74q-104 0 -340 -64l-49 297q248 74 469 74q188 0 275.5 -89t87.5 -273v-666h-262l-37 72q-150 -92 -289 -92q-131 0 -213 80.5t-82 215.5zM192 1458h385l172 -344h-286zM373 301q-1 -61 71 -61q41 0 129 24v129 q-125 -18 -150.5 -28.5t-37.5 -25.5t-12 -38z" />
<glyph unicode="&#xe1;" horiz-adv-x="1026" d="M41 276q0 152 107.5 227t424.5 109v35q0 74 -92 74q-104 0 -340 -64l-49 297q248 74 469 74q188 0 275.5 -89t87.5 -273v-666h-262l-37 72q-150 -92 -289 -92q-131 0 -213 80.5t-82 215.5zM313 1114l172 344h385l-270 -344h-287zM373 301q-1 -61 71 -61q41 0 129 24v129 q-125 -18 -150.5 -28.5t-37.5 -25.5t-12 -38z" />
<glyph unicode="&#xe2;" horiz-adv-x="1026" d="M41 276q0 152 107.5 227t424.5 109v35q0 74 -92 74q-104 0 -340 -64l-49 297q248 74 469 74q188 0 275.5 -89t87.5 -273v-666h-262l-37 72q-150 -92 -289 -92q-131 0 -213 80.5t-82 215.5zM131 1114l195 344h373l194 -344h-313l-72 158l-71 -158h-306zM373 301 q-1 -61 71 -61q41 0 129 24v129q-125 -18 -150.5 -28.5t-37.5 -25.5t-12 -38z" />
<glyph unicode="&#xe3;" horiz-adv-x="1026" d="M41 276q0 152 107.5 227t424.5 109v35q0 74 -92 74q-104 0 -340 -64l-49 297q248 74 469 74q188 0 275.5 -89t87.5 -273v-666h-262l-37 72q-150 -92 -289 -92q-131 0 -213 80.5t-82 215.5zM139 1155q4 131 76 217t176 86q115 0 201 -94q14 -18 27 -18q49 0 55 88l219 -37 q-8 -139 -81 -221t-171 -82q-115 0 -198 96q-16 16 -29 16q-49 0 -55 -88zM373 301q-1 -61 71 -61q41 0 129 24v129q-125 -18 -150.5 -28.5t-37.5 -25.5t-12 -38z" />
<glyph unicode="&#xe4;" horiz-adv-x="1026" d="M41 276q0 152 107.5 227t424.5 109v35q0 74 -92 74q-104 0 -340 -64l-49 297q248 74 469 74q188 0 275.5 -89t87.5 -273v-666h-262l-37 72q-150 -92 -289 -92q-131 0 -213 80.5t-82 215.5zM102 1300q0 72 46 118t118 46t118 -46t46 -118t-46 -117.5t-118 -45.5t-118 46 t-46 117zM373 301q-1 -61 71 -61q41 0 129 24v129q-125 -18 -150.5 -28.5t-37.5 -25.5t-12 -38zM594 1300q0 72 46 118t118 46t118 -46t46 -118t-46.5 -117.5t-117.5 -45.5q-72 0 -118 46t-46 117z" />
<glyph unicode="&#xe5;" horiz-adv-x="1026" d="M41 276q0 152 107.5 227t424.5 109v35q0 74 -92 74q-104 0 -340 -64l-49 297q248 74 469 74q188 0 275.5 -89t87.5 -273v-666h-262l-37 72q-150 -92 -289 -92q-131 0 -213 80.5t-82 215.5zM280 1309q0 106 71 172.5t181 66.5q111 0 181.5 -66.5t70.5 -172.5t-70.5 -173 t-181.5 -67t-181.5 67t-70.5 173zM373 301q-1 -61 71 -61q41 0 129 24v129q-125 -18 -150.5 -28.5t-37.5 -25.5t-12 -38zM465 1309q0 -72 67 -72q68 0 68 72t-68 71q-67 1 -67 -71z" />
<glyph unicode="&#xe6;" horiz-adv-x="1560" d="M41 276q0 152 107.5 227t424.5 109v35q0 74 -92 74q-104 0 -340 -64l-49 297q229 74 434 74q180 0 260 -96q113 96 281 96q197 0 313.5 -132t116.5 -364q0 -66 -10 -143h-567q0 -123 176 -123q72 0 143.5 16.5t151.5 30.5l45 -268q-181 -65 -371 -65q-254 0 -373 131 q-203 -131 -356 -131q-131 0 -213 80.5t-82 215.5zM373 301q-1 -61 71 -61q74 0 156 43q-8 27 -20 108q-135 -14 -171 -32.5t-36 -57.5zM922 625h229v14q0 117 -109 117q-102 0 -120 -131z" />
<glyph unicode="&#xe7;" horiz-adv-x="923" d="M61 504q0 258 131.5 391t374.5 133q141 0 316 -35l-43 -299q-133 27 -232 27q-115 0 -152.5 -56.5t-37.5 -160.5t38 -160.5t152 -56.5q98 0 232 26l43 -299q-133 -25 -248 -32l-49 -56l26 2q74 0 123 -54t49 -124q0 -84 -70.5 -138t-199.5 -54q-86 0 -172 24l33 168 q80 -25 135 -24q55 0 55 22q0 33 -47 33q-27 0 -61 -14l-74 127l49 98q-168 31 -269.5 153.5t-101.5 358.5z" />
<glyph unicode="&#xe8;" horiz-adv-x="1048" d="M61 502q0 252 128 389t366 137q207 0 318.5 -123t113.5 -356q0 -74 -12 -160h-567q0 -123 176 -123q72 0 143.5 16.5t151.5 30.5l45 -268q-180 -66 -371 -65q-238 0 -365 121.5t-127 400.5zM184 1458h385l172 -344h-286zM410 625h229v14q0 117 -109 117q-102 0 -120 -131 z" />
<glyph unicode="&#xe9;" horiz-adv-x="1048" d="M61 502q0 252 128 389t366 137q207 0 318.5 -123t113.5 -356q0 -74 -12 -160h-567q0 -123 176 -123q72 0 143.5 16.5t151.5 30.5l45 -268q-180 -66 -371 -65q-238 0 -365 121.5t-127 400.5zM327 1114l172 344h385l-270 -344h-287zM410 625h229v14q0 117 -109 117 q-102 0 -120 -131z" />
<glyph unicode="&#xea;" horiz-adv-x="1048" d="M61 502q0 252 128 389t366 137q207 0 318.5 -123t113.5 -356q0 -74 -12 -160h-567q0 -123 176 -123q72 0 143.5 16.5t151.5 30.5l45 -268q-180 -66 -371 -65q-238 0 -365 121.5t-127 400.5zM163 1114l195 344h373l194 -344h-313l-72 158l-71 -158h-306zM410 625h229v14 q0 117 -109 117q-102 0 -120 -131z" />
<glyph unicode="&#xeb;" horiz-adv-x="1048" d="M61 502q0 252 128 389t366 137q207 0 318.5 -123t113.5 -356q0 -74 -12 -160h-567q0 -123 176 -123q72 0 143.5 16.5t151.5 30.5l45 -268q-180 -66 -371 -65q-238 0 -365 121.5t-127 400.5zM122 1300q0 72 46 118t118 46t118 -46t46 -118t-46 -117.5t-118 -45.5t-118 46 t-46 117zM410 625h229v14q0 117 -109 117q-102 0 -120 -131zM614 1300q0 72 46 118t118 46t118 -46t46 -118t-46.5 -117.5t-117.5 -45.5q-72 0 -118 46t-46 117z" />
<glyph unicode="&#xec;" horiz-adv-x="552" d="M-105 1458h385l172 -344h-286zM102 0v997l349 21v-1018h-349z" />
<glyph unicode="&#xed;" horiz-adv-x="552" d="M100 1114l172 344h385l-270 -344h-287zM102 0v997l349 21v-1018h-349z" />
<glyph unicode="&#xee;" horiz-adv-x="552" d="M-105 1114l195 344h373l194 -344h-313l-72 158l-71 -158h-306zM102 0v997l349 21v-1018h-349z" />
<glyph unicode="&#xef;" horiz-adv-x="552" d="M-134 1300q0 72 46 118t118 46t118 -46t46 -118t-46 -117.5t-118 -45.5t-118 46t-46 117zM102 0v997l349 21v-1018h-349zM358 1300q0 72 46 118t118 46t118 -46t46 -118t-46.5 -117.5t-117.5 -45.5q-72 0 -118 46t-46 117z" />
<glyph unicode="&#xf0;" horiz-adv-x="1187" d="M61 504q0 246 119 385t320 139q72 0 149 -20q-31 72 -82 149l-278 -100l-58 219l191 67q-100 111 -234 209h424q51 -35 113 -98l272 100l58 -219l-176 -65q227 -328 227 -709q0 -268 -141.5 -424.5t-380.5 -156.5q-246 0 -384.5 130t-138.5 394zM418 504q0 -217 166 -217 q82 0 126 73.5t46 208.5q-2 70 -13 125q-87 27 -155 27q-170 0 -170 -217z" />
<glyph unicode="&#xf1;" horiz-adv-x="1187" d="M102 0v997l349 21v-98q209 109 356 108q137 0 207.5 -87t70.5 -245v-696h-348v575q0 68 -26.5 93.5t-77.5 25.5q-57 0 -182 -37v-657h-349zM217 1155q4 131 76 217t176 86q115 0 201 -94q14 -18 27 -18q49 0 55 88l219 -37q-8 -139 -81 -221t-171 -82q-115 0 -198 96 q-16 16 -29 16q-49 0 -55 -88z" />
<glyph unicode="&#xf2;" horiz-adv-x="1167" d="M61 504q0 262 138.5 393t384.5 131t384 -131t138 -393q0 -264 -138.5 -394t-383.5 -130q-246 0 -384.5 130t-138.5 394zM243 1458h385l172 -344h-286zM418 504q0 -217 166 -217t166 217t-166 217t-166 -217z" />
<glyph unicode="&#xf3;" horiz-adv-x="1167" d="M61 504q0 262 138.5 393t384.5 131t384 -131t138 -393q0 -264 -138.5 -394t-383.5 -130q-246 0 -384.5 130t-138.5 394zM366 1114l172 344h385l-270 -344h-287zM418 504q0 -217 166 -217t166 217t-166 217t-166 -217z" />
<glyph unicode="&#xf4;" horiz-adv-x="1167" d="M61 504q0 262 138.5 393t384.5 131t384 -131t138 -393q0 -264 -138.5 -394t-383.5 -130q-246 0 -384.5 130t-138.5 394zM202 1114l195 344h373l194 -344h-313l-72 158l-71 -158h-306zM418 504q0 -217 166 -217t166 217t-166 217t-166 -217z" />
<glyph unicode="&#xf5;" horiz-adv-x="1167" d="M61 504q0 262 138.5 393t384.5 131t384 -131t138 -393q0 -264 -138.5 -394t-383.5 -130q-246 0 -384.5 130t-138.5 394zM206 1155q4 131 76 217t176 86q115 0 201 -94q14 -18 27 -18q49 0 55 88l219 -37q-8 -139 -81 -221t-171 -82q-115 0 -198 96q-16 16 -29 16 q-49 0 -55 -88zM418 504q0 -217 166 -217t166 217t-166 217t-166 -217z" />
<glyph unicode="&#xf6;" horiz-adv-x="1167" d="M61 504q0 262 138.5 393t384.5 131t384 -131t138 -393q0 -264 -138.5 -394t-383.5 -130q-246 0 -384.5 130t-138.5 394zM176 1300q0 72 46 118t118 46t118 -46t46 -118t-46 -117.5t-118 -45.5t-118 46t-46 117zM418 504q0 -217 166 -217t166 217t-166 217t-166 -217z M668 1300q0 72 46 118t118 46t118 -46t46 -118t-46.5 -117.5t-117.5 -45.5q-72 0 -118 46t-46 117z" />
<glyph unicode="&#xf7;" d="M20 565l21 307h1065l-21 -307h-1065zM371 266q0 84 54 138.5t138 54.5t138.5 -54.5t54.5 -138.5t-54.5 -138t-138.5 -54t-138 54t-54 138zM371 1171q0 84 54 138.5t138 54.5t138.5 -54.5t54.5 -138.5t-54.5 -138t-138.5 -54t-138 54t-54 138z" />
<glyph unicode="&#xf8;" horiz-adv-x="1167" d="M61 504q0 262 138.5 393t384.5 131q125 0 227 -37l115 183l129 -56l-123 -192q174 -133 174 -422q0 -264 -138.5 -394t-383.5 -130q-127 0 -228 34l-114 -180l-129 57l120 191q-172 135 -172 422zM418 504q0 -68 12 -111l205 322l-51 6q-166 0 -166 -217zM530 291l25 -4 h29q166 0 166 217q0 57 -15 110z" />
<glyph unicode="&#xf9;" horiz-adv-x="1187" d="M102 311v686l349 21v-586q0 -68 26.5 -93.5t77.5 -25.5q57 0 182 37v647l348 21v-1018h-327l-21 88q-209 -109 -356 -108q-137 0 -208 87t-71 244zM254 1458h385l172 -344h-286z" />
<glyph unicode="&#xfa;" horiz-adv-x="1187" d="M102 311v686l349 21v-586q0 -68 26.5 -93.5t77.5 -25.5q57 0 182 37v647l348 21v-1018h-327l-21 88q-209 -109 -356 -108q-137 0 -208 87t-71 244zM376 1114l172 344h385l-270 -344h-287z" />
<glyph unicode="&#xfb;" horiz-adv-x="1187" d="M102 311v686l349 21v-586q0 -68 26.5 -93.5t77.5 -25.5q57 0 182 37v647l348 21v-1018h-327l-21 88q-209 -109 -356 -108q-137 0 -208 87t-71 244zM213 1114l195 344h373l194 -344h-313l-72 158l-71 -158h-306z" />
<glyph unicode="&#xfc;" horiz-adv-x="1187" d="M102 311v686l349 21v-586q0 -68 26.5 -93.5t77.5 -25.5q57 0 182 37v647l348 21v-1018h-327l-21 88q-209 -109 -356 -108q-137 0 -208 87t-71 244zM184 1300q0 72 46 118t118 46t118 -46t46 -118t-46 -117.5t-118 -45.5t-118 46t-46 117zM676 1300q0 72 46 118t118 46 t118 -46t46 -118t-46.5 -117.5t-117.5 -45.5q-72 0 -118 46t-46 117z" />
<glyph unicode="&#xfd;" horiz-adv-x="1073" d="M0 997l381 21l156 -645l155 645l381 -21l-446 -1429l-381 20l129 412h-64zM321 1114l172 344h385l-270 -344h-287z" />
<glyph unicode="&#xfe;" horiz-adv-x="1177" d="M102 -432v1964l349 20v-634q164 111 303 110q168 0 265 -142.5t97 -381.5q0 -246 -118.5 -385t-319.5 -139q-109 0 -227 45v-437zM451 307q86 -20 139 -20q170 0 170 223q0 184 -129 184q-51 0 -180 -37v-350z" />
<glyph unicode="&#xff;" horiz-adv-x="1073" d="M0 997l381 21l156 -645l155 645l381 -21l-446 -1429l-381 20l129 412h-64zM127 1300q0 72 46 118t118 46t118 -46t46 -118t-46 -117.5t-118 -45.5t-118 46t-46 117zM619 1300q0 72 46 118t118 46t118 -46t46 -118t-46.5 -117.5t-117.5 -45.5q-72 0 -118 46t-46 117z" />
<glyph unicode="&#x152;" horiz-adv-x="2062" d="M82 719q0 358 152.5 548.5t422.5 190.5q229 0 367 -119v99h977l-21 -348h-567v-197h465l-20 -348h-445v-197h588l-21 -348h-956v96q-139 -117 -367 -116q-272 0 -423.5 191t-151.5 548zM492 719q0 -201 61 -296t205 -95q141 0 203.5 93t62.5 298q0 201 -61.5 296 t-204.5 95q-141 0 -203.5 -93t-62.5 -298z" />
<glyph unicode="&#x153;" horiz-adv-x="1736" d="M61 504q0 244 143.5 384t379.5 140q221 0 342 -135q115 135 317 135q197 0 313.5 -132t116.5 -364q0 -66 -10 -143h-567q14 -102 176 -102q72 0 143.5 16t151.5 31l45 -289q-180 -66 -371 -65q-221 0 -323 126q-119 -127 -334 -126q-236 0 -379.5 140t-143.5 384z M418 504q0 -217 166 -217t166 217t-166 217t-166 -217zM1098 625h229v14q1 117 -108 117q-102 0 -121 -131z" />
<glyph unicode="&#x178;" horiz-adv-x="1363" d="M0 1427l451 21l231 -530l231 530l451 -21l-487 -888v-539h-390v539zM272 1694q0 72 46 118t118 46t118 -46.5t46 -117.5q0 -72 -46 -118t-118 -46t-118 46t-46 118zM764 1694q0 72 46 118t118 46t118 -46.5t46 -117.5q0 -72 -46.5 -118t-117.5 -46q-72 0 -118 46t-46 118 z" />
<glyph unicode="&#x2c6;" horiz-adv-x="966" d="M102 1114l195 344h373l194 -344h-313l-72 158l-71 -158h-306z" />
<glyph unicode="&#x2dc;" horiz-adv-x="958" d="M102 1155q4 131 76 217t176 86q115 0 201 -94q14 -18 27 -18q49 0 55 88l219 -37q-8 -139 -81 -221t-171 -82q-115 0 -198 96q-16 16 -29 16q-49 0 -55 -88z" />
<glyph unicode="&#x2000;" horiz-adv-x="948" />
<glyph unicode="&#x2001;" horiz-adv-x="1896" />
<glyph unicode="&#x2002;" horiz-adv-x="948" />
<glyph unicode="&#x2003;" horiz-adv-x="1896" />
<glyph unicode="&#x2004;" horiz-adv-x="632" />
<glyph unicode="&#x2005;" horiz-adv-x="474" />
<glyph unicode="&#x2006;" horiz-adv-x="316" />
<glyph unicode="&#x2007;" horiz-adv-x="316" />
<glyph unicode="&#x2008;" horiz-adv-x="237" />
<glyph unicode="&#x2009;" horiz-adv-x="379" />
<glyph unicode="&#x200a;" horiz-adv-x="105" />
<glyph unicode="&#x2010;" horiz-adv-x="686" d="M61 350l21 307h543l-21 -307h-543z" />
<glyph unicode="&#x2011;" horiz-adv-x="686" d="M61 350l21 307h543l-21 -307h-543z" />
<glyph unicode="&#x2012;" horiz-adv-x="686" d="M61 350l21 307h543l-21 -307h-543z" />
<glyph unicode="&#x2013;" horiz-adv-x="1134" d="M41 350l20 307h1033l-21 -307h-1032z" />
<glyph unicode="&#x2014;" horiz-adv-x="2152" d="M41 350l20 307h2030l-20 -307h-2030z" />
<glyph unicode="&#x2018;" horiz-adv-x="552" d="M84 1331q0 201 123 469l280 -28q-90 -197 -90 -361q0 -131 62 -307l-330 -29q-45 127 -45 256z" />
<glyph unicode="&#x2019;" horiz-adv-x="552" d="M82 1104q90 197 90 360q0 131 -61 308l329 28q45 -127 45 -256q0 -201 -123 -469z" />
<glyph unicode="&#x201a;" horiz-adv-x="552" d="M82 -334q90 197 90 361q0 131 -61 307l329 28q45 -127 45 -256q0 -201 -123 -468z" />
<glyph unicode="&#x201c;" horiz-adv-x="1024" d="M84 1331q0 201 123 469l280 -28q-90 -197 -90 -361q0 -131 62 -307l-330 -29q-45 127 -45 256zM555 1331q0 201 123 469l280 -28q-90 -197 -90 -361q0 -131 62 -307l-330 -29q-45 127 -45 256z" />
<glyph unicode="&#x201d;" horiz-adv-x="1024" d="M82 1104q90 197 90 360q0 131 -61 308l329 28q45 -127 45 -256q0 -201 -123 -469zM553 1104q90 197 90 360q0 131 -61 308l329 28q45 -127 45 -256q0 -201 -122 -469z" />
<glyph unicode="&#x201e;" horiz-adv-x="1024" d="M82 -334q90 197 90 361q0 131 -61 307l329 28q45 -127 45 -256q0 -201 -123 -468zM553 -334q90 197 90 361q0 131 -61 307l329 28q45 -127 45 -256q0 -201 -122 -468z" />
<glyph unicode="&#x2022;" horiz-adv-x="761" d="M61 719q0 141 89.5 230t230.5 89t230 -89t89 -230t-89 -230.5t-230 -89.5t-230.5 89.5t-89.5 230.5z" />
<glyph unicode="&#x2026;" horiz-adv-x="2084" d="M82 172q0 84 54 138.5t138 54.5t138.5 -54.5t54.5 -138.5t-54.5 -138t-138.5 -54t-138 54t-54 138zM850 172q0 84 54 138.5t138 54.5t138.5 -54.5t54.5 -138.5t-54.5 -138t-138.5 -54t-138 54t-54 138zM1618 172q0 84 54 138.5t138 54.5t138.5 -54.5t54.5 -138.5 t-54.5 -138t-138.5 -54t-138 54t-54 138z" />
<glyph unicode="&#x202f;" horiz-adv-x="379" />
<glyph unicode="&#x2039;" horiz-adv-x="702" d="M41 422l20 184l369 371l232 -260l-209 -213l209 -213l-232 -260z" />
<glyph unicode="&#x203a;" horiz-adv-x="702" d="M41 291l209 213l-209 213l231 260l390 -391l-21 -185l-369 -370z" />
<glyph unicode="&#x205f;" horiz-adv-x="474" />
<glyph unicode="&#x20ac;" horiz-adv-x="1218" d="M0 412l20 266h123v82h-143l20 266h160q119 432 594 432q190 0 383 -51l-61 -344q-170 39 -207 42t-72 3q-139 0 -199 -82h359l-21 -266h-403v-82h342l-21 -266h-256q59 -84 199 -84q63 0 102 6t177 39l61 -342q-193 -51 -383 -51q-475 0 -594 432h-180z" />
<glyph unicode="&#x2122;" horiz-adv-x="1277" d="M0 1284l8 154h473l-8 -154h-145v-383h-174v383h-154zM526 901v533l222 8l124 -330l123 330l222 -8v-533h-166v260l-93 -256l-172 -8l-94 264v-260h-166z" />
<glyph unicode="&#x25fc;" horiz-adv-x="1013" d="M0 0v1014h1014v-1014h-1014z" />
<glyph unicode="&#xfb03;" horiz-adv-x="1976" d="M20 700l21 308h133v135q0 213 94 311t275 98q100 0 252 -34l-27 -291q-88 18 -141 18q-59 0 -82 -30.5t-23 -106.5v-100h328v135q0 410 344 409q92 0 236 -34l-27 -291q-74 18 -119 18q-47 0 -66.5 -30.5t-19.5 -106.5v-100h676v-1008h-348v700h-328v-700h-348v700h-328 v-700h-348v700h-154zM1507 1300q0 84 54.5 138.5t138.5 54.5t138 -54.5t54 -138.5t-54 -138t-138 -54t-138.5 54.5t-54.5 137.5z" />
<glyph unicode="&#xfb04;" horiz-adv-x="2068" d="M20 700l21 308h133v135q0 213 94 311t275 98q100 0 252 -34l-27 -291q-88 18 -141 18q-59 0 -82 -30.5t-23 -106.5v-100h328v135q0 217 117.5 313t392.5 96q164 0 514 -36v-1168q0 -55 51 -55q43 0 117 16l26 -291q-35 -8 -64.5 -15t-61 -12t-66.5 -8t-80 -3 q-123 0 -196.5 77.5t-73.5 210.5v967l-156 10q-94 0 -133 -32.5t-39 -114.5v-90h205l-21 -308h-184v-700h-348v700h-328v-700h-348v700h-154z" />
</font>
</defs>
</svg>
