<?xml version="1.0" standalone="no"?>
<!DOCTYPE svg PUBLIC "-//W3C//DTD SVG 1.1//EN" "http://www.w3.org/Graphics/SVG/1.1/DTD/svg11.dtd" >
<svg xmlns="http://www.w3.org/2000/svg">
<metadata></metadata>
<defs>
<font id="ms_gloriola_ii_stdSBdIt" horiz-adv-x="1132" >
<font-face units-per-em="2048" ascent="1536" descent="-512" />
<missing-glyph horiz-adv-x="501" />
<glyph unicode="&#xfb01;" horiz-adv-x="1247" d="M-240 -410l54 242q78 -20 143 -20q72 0 102.5 42t40.5 123l93 768h-156l49 254h139l19 162q49 391 374 391q82 0 218 -32l-52 -242q-66 20 -127 20q-66 0 -92 -42t-37 -123l-16 -134h659l-120 -999h-287l90 745h-375l-96 -796q-27 -205 -125 -298t-266 -93q-88 0 -232 32 zM897 1260q0 74 54 130t132 56q66 0 106 -39t40 -100q0 -80 -54.5 -134.5t-132.5 -54.5q-66 0 -105.5 39t-39.5 103z" />
<glyph unicode="&#xfb02;" horiz-adv-x="1355" d="M-240 -410l54 242q78 -20 143 -20q72 0 102.5 42t40.5 123l93 768h-156l49 254h139l19 162q27 205 145.5 298t378.5 93q166 0 467 -34l-150 -1223q0 -55 64 -55q47 0 129 20l-6 -242q-156 -39 -260 -38q-106 0 -163.5 60t-57.5 157l4 57l127 1032q-115 12 -179 12 q-113 0 -158.5 -40.5t-58.5 -133.5l-14 -125h233l-49 -254h-217l-96 -796q-27 -205 -125 -298t-266 -93q-88 0 -232 32z" />
<glyph horiz-adv-x="0" />
<glyph unicode="&#xd;" horiz-adv-x="0" />
<glyph unicode=" "  horiz-adv-x="501" />
<glyph unicode="&#x09;" horiz-adv-x="501" />
<glyph unicode="&#xa0;" horiz-adv-x="501" />
<glyph unicode="!" horiz-adv-x="714" d="M125 125q0 80 54 134t132 54q66 0 108 -40t42 -103q0 -76 -54.5 -132t-134.5 -56q-66 0 -106.5 40.5t-40.5 102.5zM184 434l107 1004h319l-139 -985z" />
<glyph unicode="&#x22;" horiz-adv-x="782" d="M117 825l41 613h276l-110 -613h-207zM496 825l41 613h274l-109 -613h-206z" />
<glyph unicode="#" d="M-20 330l18 254h164l61 272h-157l16 254h192l74 332l252 -8l-72 -324h236l72 332l251 -8l-69 -324h131l-19 -254h-163l-62 -272h160l-18 -254h-193l-74 -334l-252 8l72 326h-235l-72 -334l-252 8l70 326h-131zM416 584h235l62 272h-236z" />
<glyph unicode="$" horiz-adv-x="1187" d="M45 55l88 283q100 -37 295 -64l39 320q-193 72 -271.5 166t-78.5 219q0 193 117.5 315.5t336.5 153.5l29 223l242 17l-29 -234q188 -12 342 -70l-90 -282q-109 37 -287 61l-39 -315q193 -76 270.5 -166t77.5 -215q0 -195 -114.5 -319.5t-339.5 -157.5l-27 -223l-241 -17 l28 234q-193 12 -348 71zM430 1016q0 -31 16.5 -48.5t61.5 -37.5l29 229q-55 -18 -81 -58t-26 -85zM670 283q104 41 104 145q0 35 -21.5 52.5t-54.5 31.5z" />
<glyph unicode="%" horiz-adv-x="1644" d="M80 940q0 242 102.5 376t284.5 134q285 0 285 -309q0 -240 -102.5 -376t-287.5 -136q-282 0 -282 311zM248 0l932 1438h225l-930 -1438h-227zM289 928q0 -131 86 -131q74 0 121 93t47 259q0 133 -88 133q-76 0 -121 -95t-45 -259zM899 299q0 242 102.5 376t284.5 134 q285 0 285 -309q0 -240 -102.5 -376t-286.5 -136q-283 0 -283 311zM1108 287q0 -131 86 -131q74 0 121 93t47 259q0 133 -88 133q-76 0 -121 -95t-45 -259z" />
<glyph unicode="&#x26;" horiz-adv-x="1304" d="M37 309q0 274 287 420q-162 117 -162 293q0 207 146.5 321.5t400.5 114.5q203 0 436 -74l-88 -282q-209 72 -344 72q-111 0 -172.5 -44.5t-61.5 -123.5q0 -84 76 -146h750l-52 -287h-188l-94 -772l-322 -18l27 223q-104 -27 -213 -26q-199 0 -312.5 88t-113.5 241z M362 389q0 -125 191 -125q76 0 158 21l34 288h-260q-123 -70 -123 -184z" />
<glyph unicode="'" horiz-adv-x="403" d="M117 825l41 613h276l-110 -613h-207z" />
<glyph unicode="(" horiz-adv-x="770" d="M100 575q0 412 173 733.5t481 485.5l172 -172q-537 -332 -537 -1020q0 -426 328 -672l-211 -172q-195 117 -300.5 323.5t-105.5 493.5z" />
<glyph unicode=")" horiz-adv-x="770" d="M-129 -70q537 338 537 1020q0 428 -328 672l211 172q195 -117 300 -323.5t105 -493.5q0 -410 -172 -730.5t-481 -488.5z" />
<glyph unicode="*" horiz-adv-x="1040" d="M90 1024l105 272l270 -129l4 297l283 19l-70 -309l283 120l71 -262l-309 -63l172 -219l-240 -179l-124 277l-183 -264l-219 149l236 232z" />
<glyph unicode="+" d="M37 592l16 254h369v387l287 16v-403h387l-17 -254h-370v-385l-287 -19v404h-385z" />
<glyph unicode="," horiz-adv-x="512" d="M-51 -317q68 115 98.5 210t30.5 201q0 90 -25 207l283 25q18 -76 18 -150q0 -109 -37.5 -227.5t-134.5 -290.5z" />
<glyph unicode="-" horiz-adv-x="651" d="M27 373l49 254h504l-50 -254h-503z" />
<glyph unicode="." horiz-adv-x="512" d="M25 125q0 80 54 134t132 54q66 0 106.5 -40t40.5 -103q0 -76 -54 -132t-134 -56q-66 0 -105.5 40.5t-39.5 102.5z" />
<glyph unicode="/" horiz-adv-x="733" d="M-201 -156l903 1872l256 -8l-903 -1872z" />
<glyph unicode="0" horiz-adv-x="1378" d="M88 541q0 426 190.5 671.5t507.5 245.5q514 0 514 -561q0 -426 -190 -671.5t-506 -245.5q-258 0 -387 144.5t-129 416.5zM420 545q0 -279 203 -279q154 0 249 167t95 456q0 285 -205 285q-158 0 -250 -171t-92 -458z" />
<glyph unicode="1" horiz-adv-x="782" d="M66 977l36 309l402 152h256l-176 -1438h-318l133 1104z" />
<glyph unicode="2" horiz-adv-x="1118" d="M-14 0l16 287q371 246 544 418t173 317q0 152 -199 152q-133 0 -358 -72l-21 282q256 74 457 74q217 0 329.5 -94t112.5 -279q0 -236 -152.5 -419.5t-457.5 -378.5h569l-49 -287h-964z" />
<glyph unicode="3" horiz-adv-x="1105" d="M-27 55l88 283q201 -72 369 -72q256 0 256 168q0 82 -82 139h-299l53 287h244q119 80 119 184q0 129 -199 130q-133 0 -360 -72l-19 282q248 74 455 74q221 0 336 -83t115 -240q0 -256 -246 -406q201 -115 201 -311q0 -205 -157 -321.5t-435 -116.5q-240 0 -439 75z" />
<glyph unicode="4" horiz-adv-x="1183" d="M-4 281l18 286q172 201 259 404t122 467h318q-33 -252 -117 -444.5t-279 -426.5h308l37 297l321 19l-41 -316h201l-53 -286h-183l-33 -281h-317l33 281h-594z" />
<glyph unicode="5" horiz-adv-x="1087" d="M-6 55l88 283q201 -72 350 -72q117 0 190.5 53.5t73.5 157.5q0 135 -221 135h-352l102 826h832l-51 -285h-529l-37 -309q98 18 176 18q190 0 293 -94t103 -264q0 -248 -158 -386t-440 -138q-221 0 -420 75z" />
<glyph unicode="6" horiz-adv-x="1222" d="M80 508q0 436 198.5 693t528.5 257q199 0 383 -57l-92 -283q-135 39 -187.5 47.5t-115.5 8.5q-279 0 -355 -369q176 90 344 90q170 0 269.5 -94t99.5 -271q0 -252 -166 -401t-434 -149q-227 0 -350 137t-123 391zM414 516q0 -266 172 -266q115 0 180 71.5t65 178.5 q1 143 -153 143q-102 0 -264 -65v-62z" />
<glyph unicode="7" horiz-adv-x="1001" d="M68 1153l51 285h952l-18 -285q-270 -283 -402.5 -544t-173.5 -609h-319q47 367 187 638t407 515h-684z" />
<glyph unicode="8" horiz-adv-x="1230" d="M29 311q0 270 325 426q-197 113 -196 297q0 178 149.5 301t401.5 123q211 0 336.5 -91t125.5 -249q0 -135 -77.5 -226t-200.5 -157q236 -125 235 -321q0 -207 -159.5 -320.5t-438.5 -113.5q-236 0 -368.5 81.5t-132.5 249.5zM352 371q0 -55 52.5 -88t156.5 -33 q123 0 186.5 44t63.5 122q0 114 -199 196q-135 -51 -197.5 -115.5t-62.5 -125.5zM475 1036q0 -114 162 -180q113 39 163 100.5t50 110.5q0 47 -40 84t-132 37q-94 0 -148.5 -44t-54.5 -108z" />
<glyph unicode="9" horiz-adv-x="1222" d="M43 39l92 280q131 -37 188.5 -45t114.5 -8q274 0 355 367q-176 -90 -344 -90q-174 0 -270.5 97t-96.5 269q0 248 163 398.5t435 150.5q227 0 351 -136t124 -392q0 -289 -90 -504t-258 -330.5t-381 -115.5q-193 0 -383 59zM401 940q0 -143 154 -143q106 0 264 63l2 31v31 q0 266 -174 266q-115 0 -180.5 -72t-65.5 -176z" />
<glyph unicode=":" horiz-adv-x="512" d="M25 125q0 80 54 134t132 54q66 0 106.5 -40t40.5 -103q0 -76 -54 -132t-134 -56q-66 0 -105.5 40.5t-39.5 102.5zM111 827q0 80 54 134.5t132 54.5q66 0 106.5 -40t40.5 -104q0 -76 -54 -132t-134 -56q-66 0 -105.5 41t-39.5 102z" />
<glyph unicode=";" horiz-adv-x="512" d="M-51 -317q68 115 98.5 210t30.5 201q0 90 -25 207l283 25q18 -76 18 -150q0 -109 -37.5 -227.5t-134.5 -290.5zM82 827q0 76 55 132.5t133 56.5q66 0 107 -40t41 -104q0 -76 -54.5 -132t-134.5 -56q-66 0 -106.5 41t-40.5 102z" />
<glyph unicode="&#x3c;" d="M68 596l16 254l889 412l94 -238l-702 -305l702 -305l-94 -236z" />
<glyph unicode="=" d="M37 293l16 254h1043l-17 -254h-1042zM37 893l16 254h1043l-17 -254h-1042z" />
<glyph unicode="&#x3e;" d="M66 414l700 305l-700 305l94 238l905 -418l-16 -254l-889 -412z" />
<glyph unicode="?" horiz-adv-x="1038" d="M137 1389q256 70 455 69q215 0 332.5 -84t117.5 -241q0 -152 -100 -279t-295 -199l-29 -202l-286 -19l37 365q160 23 254 92.5t94 157.5q0 57 -49.5 91t-147.5 34q-135 0 -364 -68zM272 125q0 80 54.5 134t132.5 54q66 0 106.5 -40t40.5 -103q0 -76 -54 -132t-134 -56 q-66 0 -106 40.5t-40 102.5z" />
<glyph unicode="@" horiz-adv-x="2066" d="M90 313q0 518 272.5 811t745.5 293q399 0 613 -204.5t214 -577.5q0 -311 -130 -483t-363 -172q-197 0 -236 198q-90 -94 -191.5 -146t-195.5 -52q-137 0 -216 102t-79 287q0 287 143.5 454.5t368.5 167.5q236 0 447 -141l-68 -561q0 -74 60 -74q92 0 145 110.5t53 309.5 q0 270 -148.5 407.5t-416.5 137.5q-354 0 -555 -225.5t-201 -641.5q0 -258 140.5 -388t402.5 -130q182 0 348 74l92 -223q-201 -88 -440 -88q-379 0 -592 195.5t-213 559.5zM807 403q0 -162 80 -161q49 0 123.5 56t148.5 161l31 231q-86 47 -166 47q-104 0 -160.5 -89 t-56.5 -245z" />
<glyph unicode="A" horiz-adv-x="1347" d="M-61 0l604 1430l440 16l262 -1446h-325l-46 274h-491l-111 -274h-333zM487 559h349l-99 608z" />
<glyph unicode="B" horiz-adv-x="1253" d="M35 23l174 1415h620q162 0 261.5 -84t99.5 -230q0 -244 -244 -393q203 -115 203 -313q0 -207 -166 -322.5t-475 -115.5q-231 0 -473 43zM385 281q96 -14 182 -15q131 0 199 46t68 122q0 82 -84 139h-328zM457 860h286q119 82 119 189q0 45 -29.5 74.5t-89.5 29.5h-249z " />
<glyph unicode="C" horiz-adv-x="1224" d="M90 559q0 291 93 492.5t264 304t405 102.5q209 0 393 -57l-90 -283q-141 39 -194 47.5t-121 8.5q-414 0 -414 -584q0 -182 81 -253t220 -71q127 0 332 53l18 -282q-201 -57 -407 -57q-285 0 -432.5 147t-147.5 432z" />
<glyph unicode="D" horiz-adv-x="1411" d="M37 37l172 1401h539q283 0 433 -140.5t150 -427.5q0 -422 -218 -656t-617 -234q-229 0 -459 57zM385 281q66 -14 178 -15q203 0 317.5 147.5t114.5 417.5q0 322 -286 322h-215z" />
<glyph unicode="E" horiz-adv-x="1134" d="M33 0l176 1438h950l-51 -285h-614l-37 -293h514l-53 -287h-496l-37 -286h633l-51 -287h-934z" />
<glyph unicode="F" horiz-adv-x="1089" d="M33 0l176 1438h950l-51 -285h-614l-45 -362h514l-54 -285h-495l-62 -506h-319z" />
<glyph unicode="G" horiz-adv-x="1370" d="M90 557q0 428 205 664.5t577 236.5q213 0 410 -57l-90 -283q-189 56 -332 56q-217 0 -325.5 -152t-108.5 -434q0 -176 80 -249t227 -73q86 0 156 19l29 235h-236l53 287h537l-90 -737q-262 -90 -500 -90q-297 0 -444.5 147t-147.5 430z" />
<glyph unicode="H" horiz-adv-x="1380" d="M33 0l176 1438h319l-71 -578h512l71 578h318l-176 -1438h-318l70 573h-512l-70 -573h-319z" />
<glyph unicode="I" horiz-adv-x="548" d="M33 0l176 1438h319l-176 -1438h-319z" />
<glyph unicode="J" horiz-adv-x="600" d="M-145 -133q117 92 181 180t79 203l145 1188h320l-146 -1188q-23 -186 -104.5 -312t-257.5 -257z" />
<glyph unicode="K" horiz-adv-x="1300" d="M33 0l176 1438h319l-75 -615l551 623l368 -16l-643 -711l488 -711l-373 -16l-416 624l-76 -616h-319z" />
<glyph unicode="L" horiz-adv-x="1073" d="M33 0l176 1438h319l-143 -1151h592l-51 -287h-893z" />
<glyph unicode="M" horiz-adv-x="1802" d="M33 0l176 1430l403 16l250 -1043l514 1043l406 -16l-176 -1430h-303l110 897l-432 -889l-319 -16l-216 905l-110 -897h-303z" />
<glyph unicode="N" horiz-adv-x="1380" d="M33 0l174 1430l299 16l432 -907l111 899h309l-176 -1430l-297 -16l-432 907l-109 -899h-311z" />
<glyph unicode="O" horiz-adv-x="1521" d="M86 569q0 412 209 650.5t559 238.5q287 0 436.5 -151.5t149.5 -438.5q0 -412 -209 -650t-559 -238q-287 0 -436.5 151.5t-149.5 437.5zM416 578q0 -312 272 -312q190 0 306 157t116 439q0 311 -272 312q-190 0 -306 -160t-116 -436z" />
<glyph unicode="P" horiz-adv-x="1218" d="M33 0l176 1438h483q240 0 378 -101.5t138 -312.5q0 -274 -178 -435t-469 -161q-45 0 -155 12l-54 -440h-319zM440 727q86 -12 133 -12q141 0 219 71.5t78 192.5q0 174 -245 174h-131z" />
<glyph unicode="Q" horiz-adv-x="1521" d="M86 569q0 412 209 650.5t559 238.5q287 0 436.5 -151.5t149.5 -438.5q0 -297 -105.5 -497.5t-285.5 -298.5q25 -180 137 -181q33 0 139 31l6 -260q-156 -41 -268 -41q-125 0 -210 80t-116 281l-32 -2h-33q-287 0 -436.5 151.5t-149.5 437.5zM416 578q0 -312 272 -312 q190 0 306 157t116 439q0 311 -272 312q-190 0 -306 -160t-116 -436z" />
<glyph unicode="R" horiz-adv-x="1269" d="M33 0l176 1438h465q242 0 380 -98.5t138 -305.5q0 -340 -274 -487l227 -539l-367 -16l-172 473h-43q-66 0 -153 10l-58 -475h-319zM442 748q86 -12 133 -13q139 0 218 67.5t79 192.5q0 172 -247 172h-131z" />
<glyph unicode="S" horiz-adv-x="1167" d="M35 55l88 283q90 -33 210 -52.5t214 -19.5q98 0 147 52.5t49 121.5q0 45 -53 71t-115 46q-213 70 -292.5 120t-128 122.5t-48.5 179.5q0 225 157 352t444 127q242 0 438 -74l-90 -282q-215 72 -422 72q-96 0 -144.5 -52.5t-48.5 -117.5q0 -45 54.5 -71t115.5 -44 q211 -72 291 -122t128 -122t48 -178q0 -223 -152.5 -355t-451.5 -132q-240 0 -438 75z" />
<glyph unicode="T" horiz-adv-x="1177" d="M78 1153l51 285h1124l-51 -285h-395l-141 -1153h-318l141 1153h-411z" />
<glyph unicode="U" horiz-adv-x="1380" d="M84 383l6 88l119 967h319l-116 -932l-4 -53q0 -98 55 -142.5t176 -44.5q135 0 202.5 57.5t82.5 182.5l116 932h318l-119 -967q-29 -240 -191.5 -365.5t-443.5 -125.5q-256 0 -388 103t-132 300z" />
<glyph unicode="V" horiz-adv-x="1343" d="M113 1430l323 16l182 -1174l469 1174l328 -16l-606 -1430h-436z" />
<glyph unicode="W" horiz-adv-x="1945" d="M113 1430l323 16l105 -1131l350 1115l369 16l81 -1131l377 1131l299 -16l-536 -1430h-373l-100 905l-318 -905h-389z" />
<glyph unicode="X" horiz-adv-x="1351" d="M-59 8l553 723l-379 699l354 16l236 -465l335 465l381 -16l-555 -721l379 -701l-354 -16l-238 463l-336 -463z" />
<glyph unicode="Y" horiz-adv-x="1320" d="M100 1430l363 16l215 -578l354 578l373 -16l-598 -871l-70 -559h-317l67 559z" />
<glyph unicode="Z" horiz-adv-x="1185" d="M0 0l16 287l760 866h-655l53 285h1024l-18 -285l-760 -866h655l-49 -287h-1026z" />
<glyph unicode="[" horiz-adv-x="706" d="M63 -164l230 1880h536l-47 -254h-231l-170 -1372h250l-47 -254h-521z" />
<glyph unicode="\" horiz-adv-x="733" d="M27 1708l247 8l455 -1872l-248 -8z" />
<glyph unicode="]" horiz-adv-x="706" d="M-98 -164l47 254h231l170 1372h-250l47 254h519l-230 -1880h-534z" />
<glyph unicode="^" horiz-adv-x="1044" d="M-20 449l450 989h371l207 -989l-314 -19l-114 705l-287 -705z" />
<glyph unicode="_" horiz-adv-x="995" d="M-113 -283l43 224h971l-45 -224h-969z" />
<glyph unicode="`" horiz-adv-x="700" d="M201 1454h313l135 -340h-235z" />
<glyph unicode="a" horiz-adv-x="1120" d="M33 385q0 297 142 466t400 169q186 0 459 -105l-110 -915h-287l20 188q-204 -208 -357 -208h-1q-121 0 -193.5 112.5t-72.5 292.5zM330 420q0 -166 82 -166q49 0 126.5 59.5t155.5 163.5l29 240q-90 49 -170 49q-104 0 -163.5 -93t-59.5 -253z" />
<glyph unicode="b" horiz-adv-x="1118" d="M43 84l178 1452l291 16l-92 -741q205 209 358 209q121 0 193.5 -111.5t72.5 -294.5q0 -297 -142 -465.5t-400 -168.5q-186 0 -459 104zM354 283q84 -49 170 -50q104 0 164 93.5t60 253.5q0 165 -81 165h-1q-49 0 -127 -59t-156 -166z" />
<glyph unicode="c" horiz-adv-x="915" d="M45 389q0 293 149.5 462t403.5 169q135 0 303 -35l-67 -248q-143 29 -234 29q-262 0 -262 -340q0 -188 137 -188q98 0 299 96l39 -238q-219 -116 -380 -116h-3q-180 0 -282.5 111.5t-102.5 297.5z" />
<glyph unicode="d" horiz-adv-x="1120" d="M33 385q0 287 141 461t365 174q98 0 217 -41l67 557l291 16l-190 -1552h-289l22 188q-204 -208 -357 -208h-1q-121 0 -193.5 112.5t-72.5 292.5zM330 420q0 -166 82 -166q49 0 126.5 59.5t155.5 163.5l29 240q-90 49 -170 49q-104 0 -163.5 -93t-59.5 -253z" />
<glyph unicode="e" horiz-adv-x="962" d="M33 389q0 291 150.5 461t400.5 170q145 0 235 -73t90 -189q0 -158 -138 -269.5t-439 -148.5v-12q0 -104 108 -105q109 0 322 105l41 -232q-227 -116 -386 -116h-3q-180 0 -280.5 111.5t-100.5 297.5zM332 539q135 20 214 67t79 113q0 27 -20.5 45t-57.5 18 q-74 0 -137.5 -65.5t-77.5 -177.5z" />
<glyph unicode="f" horiz-adv-x="765" d="M-240 -410l54 242q78 -20 143 -20q72 0 102.5 42t40.5 123l93 768h-156l49 254h139l19 162q49 391 393 391q86 0 229 -32l-51 -242q-74 20 -145 20q-72 0 -101.5 -42t-40.5 -123l-16 -134h264l-49 -254h-248l-96 -796q-27 -205 -125 -298t-266 -93q-88 0 -232 32z" />
<glyph unicode="g" horiz-adv-x="1126" d="M8 -369l66 250q220 -69 333 -69h3q96 0 158.5 54t74.5 140l21 182q-204 -208 -360 -208h-1q-119 0 -191.5 113.5t-72.5 291.5q0 297 143.5 466t397.5 169q188 0 460 -105l-108 -884q-29 -221 -176.5 -347t-378.5 -126q-195 0 -369 73zM334 420q0 -166 84 -166 q49 0 126 59.5t154 163.5l31 240q-90 49 -170 49q-106 0 -165.5 -92t-59.5 -254z" />
<glyph unicode="h" horiz-adv-x="1157" d="M33 0l188 1536l289 16l-90 -741q213 209 393 209q139 0 187.5 -75t48.5 -179l-5 -76l-83 -690h-287l78 659q0 86 -78 86q-100 0 -291 -225l-64 -520h-286z" />
<glyph unicode="i" horiz-adv-x="518" d="M33 0l121 989l290 19l-125 -1008h-286zM168 1260q0 74 53 130t131 56q66 0 106 -39t40 -100q0 -80 -53.5 -134.5t-131.5 -54.5q-66 0 -105.5 39t-39.5 103z" />
<glyph unicode="j" horiz-adv-x="573" d="M-139 -274q104 84 164.5 164.5t72.5 185.5l111 913l291 19l-115 -932q-18 -162 -92 -281t-238 -237zM223 1260q0 74 54.5 130t132.5 56q66 0 105.5 -39t39.5 -100q0 -80 -54.5 -134.5t-131.5 -54.5q-66 0 -106 39t-40 103z" />
<glyph unicode="k" horiz-adv-x="1097" d="M33 0l188 1536l289 16l-115 -925l350 381l334 -19l-442 -463l367 -518l-340 -16l-293 428l-52 -420h-286z" />
<glyph unicode="l" horiz-adv-x="624" d="M59 197q0 23 162 1339l289 16l-156 -1257q0 -55 66 -55q47 0 129 20l-6 -242q-156 -38 -255 -38h-5q-106 0 -165 59t-59 158z" />
<glyph unicode="m" horiz-adv-x="1716" d="M33 0l121 989l290 19l-24 -195q199 207 366 207q203 0 220 -211q215 211 380 211q221 0 222 -254l-4 -76l-84 -690h-287l76 662q0 83 -68 83h-2q-90 0 -256 -225l-63 -520h-287l78 666q0 79 -70 79h-2q-37 0 -103.5 -54t-152.5 -171l-64 -520h-286z" />
<glyph unicode="n" horiz-adv-x="1157" d="M33 0l121 989l290 19l-24 -197q213 209 393 209q139 0 187.5 -75t48.5 -179l-5 -76l-83 -690h-287l78 659q0 86 -78 86q-100 0 -291 -225l-64 -520h-286z" />
<glyph unicode="o" horiz-adv-x="1079" d="M33 412q0 266 155.5 437t401.5 171q207 0 311.5 -111.5t104.5 -320.5q0 -266 -155.5 -437t-401.5 -171q-205 0 -310.5 111.5t-105.5 320.5zM326 425q0 -192 153 -192q100 0 166 98.5t66 250.5q0 184 -152 184q-96 0 -164.5 -100t-68.5 -241z" />
<glyph unicode="p" horiz-adv-x="1118" d="M-20 -430l174 1419l290 19l-26 -197q205 209 360 209q119 0 191.5 -113.5t72.5 -292.5q0 -285 -139 -459.5t-366 -174.5q-106 0 -215 40l-54 -434zM354 283q84 -49 170 -50q104 0 164 93.5t60 253.5q0 165 -83 165h-1q-49 0 -126 -59t-155 -166z" />
<glyph unicode="q" horiz-adv-x="1120" d="M33 385q0 297 142 466t400 169q186 0 459 -105l-162 -1329l-288 -16l73 618q-204 -208 -357 -208h-1q-121 0 -193.5 112.5t-72.5 292.5zM330 420q0 -166 82 -166q49 0 126.5 59.5t155.5 163.5l29 240q-90 49 -170 49q-104 0 -163.5 -93t-59.5 -253z" />
<glyph unicode="r" horiz-adv-x="825" d="M33 0l121 989l290 19l-24 -191q90 102 163.5 152.5t149.5 50.5q51 0 111 -23l-70 -303q-80 29 -131 29q-57 0 -116.5 -46t-143.5 -161l-64 -516h-286z" />
<glyph unicode="s" horiz-adv-x="921" d="M33 33l69 235q131 -49 295 -49q47 0 83 20.5t36 67.5q0 31 -30.5 45.5t-84.5 28.5q-184 49 -251.5 118.5t-67.5 174.5q0 174 116.5 260t321.5 86q170 0 326 -53l-70 -238q-137 51 -293 51q-113 0 -112 -84v-10q4 -31 114 -61q129 -37 187.5 -74t94.5 -90t36 -133 q0 -168 -115 -258t-328 -90q-176 0 -327 53z" />
<glyph unicode="t" horiz-adv-x="815" d="M37 745l49 254h139l37 301l289 17l-39 -318h264l-49 -254h-248l-51 -446q0 -49 35 -49q53 0 205 82l41 -240q-197 -112 -336 -112h-2q-115 0 -176.5 63t-61.5 182l2 43l60 477h-158z" />
<glyph unicode="u" horiz-adv-x="1157" d="M66 229l6 80l82 680l290 19l-82 -672q0 -82 80 -82q100 0 291 223l60 512l290 19l-122 -1008h-287l22 188q-208 -208 -391 -208h-2q-141 0 -189 73.5t-48 175.5z" />
<glyph unicode="v" horiz-adv-x="1044" d="M45 989l317 19l111 -693q158 303 260 693l309 -19q-139 -555 -426 -989h-362z" />
<glyph unicode="w" horiz-adv-x="1570" d="M45 989l301 19l80 -734l238 715l317 19l63 -734q162 322 236 734l293 -19q-119 -565 -377 -989h-330l-94 580l-231 -580h-332z" />
<glyph unicode="x" horiz-adv-x="1032" d="M-72 8l377 492l-256 489l326 19l143 -301l207 301l336 -19l-385 -489l264 -492l-340 -16l-143 301l-207 -301z" />
<glyph unicode="y" horiz-adv-x="1044" d="M31 -293q139 129 258 293h-35l-209 989l317 19l113 -703q158 297 262 703l310 -19q-229 -895 -797 -1438z" />
<glyph unicode="z" horiz-adv-x="962" d="M0 0l10 238l510 507h-430l49 254h781l-11 -237l-512 -508h441l-47 -254h-791z" />
<glyph unicode="{" horiz-adv-x="792" d="M41 649l47 254h82q66 4 94.5 46t38.5 120l33 272q23 182 129 287t266 105q70 0 146 -25l-48 -244l-69 6q-119 0 -139 -159l-23 -189q-39 -262 -195 -346q80 -51 97.5 -124.5t17.5 -135.5l-6 -86q-27 -211 -27 -231q0 -115 115 -115l78 6l-47 -248q-78 -20 -144 -20 q-133 0 -212.5 82t-79.5 237l4 72l32 270l5 52q0 45 -17.5 79.5t-89.5 34.5h-88z" />
<glyph unicode="|" horiz-adv-x="589" d="M-10 -182l233 1898l258 19l-233 -1899z" />
<glyph unicode="}" horiz-adv-x="792" d="M-59 -156l47 244l71 -6q123 0 140 160l24 188q29 258 193 346q-82 51 -98.5 124t-16.5 134l6 88l27 234q0 115 -115 114l-78 -8l47 248q78 20 144 21q133 0 213 -82t80 -238l-4 -70l-35 -272l-4 -49q0 -47 17 -82t89 -35h90l-49 -254h-82q-66 -2 -93.5 -45t-37.5 -121 l-35 -270q-20 -178 -127.5 -285.5t-265.5 -107.5q-70 0 -147 24z" />
<glyph unicode="~" d="M27 586q37 174 148.5 281.5t242.5 107.5q88 0 139 -27.5t85 -60.5t58.5 -60.5t61.5 -27.5q76 0 110 141l252 -37q-37 -176 -148.5 -283.5t-244.5 -107.5q-88 0 -138 27.5t-83 60.5t-58.5 60.5t-64.5 27.5q-72 0 -111 -141z" />
<glyph unicode="&#xa1;" horiz-adv-x="714" d="M61 -440l138 987l286 16l-104 -1003h-320zM211 827q0 76 55.5 132.5t132.5 56.5q66 0 107 -40t41 -104q0 -76 -54.5 -132t-134.5 -56q-66 0 -106.5 41t-40.5 102z" />
<glyph unicode="&#xa2;" horiz-adv-x="993" d="M90 797q0 270 118 437t337 210l28 227l242 17l-29 -234q111 -10 228 -37l-68 -250q-139 37 -262 37q-301 0 -301 -373q0 -219 229 -219q115 0 271 35l4 -248q-113 -31 -234 -39l-26 -215l-242 -16l31 242q-326 63 -326 426z" />
<glyph unicode="&#xa3;" horiz-adv-x="1142" d="M12 0l8 287q100 66 187.5 135.5t128.5 152.5h-264l47 224h219l-27 51q-57 102 -57 205q0 182 125 292.5t338 110.5q229 0 420 -51l-95 -283q-70 18 -176 34t-151 16q-63 0 -96 -35t-33 -92q0 -29 51 -99q53 -80 65 -149h342l-47 -224h-319q-76 -193 -236 -288h584 l-53 -287h-961z" />
<glyph unicode="&#xa4;" d="M49 393l139 142q-38 84 -38 184t38 184l-139 141l203 181l129 -129q84 39 184 39t185 -39l129 129l204 -181l-141 -141q39 -84 39 -184t-39 -184l141 -142l-202 -178l-131 127q-84 -39 -185 -39q-100 0 -184 39l-129 -127zM389 719q0 -80 49 -129t127 -49q80 0 129 49 t49 129t-49 130t-129 50q-78 0 -127 -50t-49 -130z" />
<glyph unicode="&#xa5;" horiz-adv-x="1320" d="M98 272l45 224h336l8 63l-26 59h-320l45 224h174l-260 588l363 16l215 -578l354 578l373 -16l-404 -588h191l-45 -224h-299l-41 -59l-8 -63h350l-45 -224h-334l-33 -272h-317l33 272h-355z" />
<glyph unicode="&#xa6;" horiz-adv-x="589" d="M-10 -182l96 786l258 17l-96 -785zM127 932l96 784l258 19l-96 -787z" />
<glyph unicode="&#xa7;" horiz-adv-x="1349" d="M39 -383l90 283q106 -33 244 -47q8 51 8 102q0 168 -119 401q-96 182 -130 283.5t-34 200.5q0 281 201 449.5t535 168.5q236 0 438 -59l-92 -283q-104 33 -246 47q-8 -53 -8 -102q0 -174 121 -399q84 -154 123.5 -271t39.5 -213q0 -281 -199.5 -450.5t-535.5 -169.5 q-233 0 -436 59zM403 870q0 -100 86 -274l76 -156q119 -244 119 -454q0 -61 -10 -127q104 27 168.5 98.5t64.5 187.5q0 100 -84 275l-75 155q-121 248 -121 459q0 59 8 123q-104 -27 -168 -98.5t-64 -188.5z" />
<glyph unicode="&#xa8;" horiz-adv-x="944" d="M178 1264q0 68 48.5 113.5t111.5 45.5q57 0 92 -33.5t35 -86.5q0 -70 -47 -117t-113 -47q-57 0 -92 34.5t-35 90.5zM643 1264q0 68 47 113.5t113 45.5q55 0 91 -33.5t36 -86.5q0 -70 -47 -117t-115 -47q-57 0 -91 34.5t-34 90.5z" />
<glyph unicode="&#xa9;" horiz-adv-x="1607" d="M61 610q0 236 110 430.5t304.5 306t423.5 111.5q293 0 474 -172t181 -459q0 -236 -109.5 -430t-304 -305.5t-423.5 -111.5q-297 0 -476.5 171.5t-179.5 458.5zM262 637q0 -215 133 -345t346 -130q258 0 435.5 183t177.5 456q0 213 -128 344t-349 131 q-264 0 -439.5 -183.5t-175.5 -455.5zM444 631q0 233 113 363t320 130q119 0 221 -32l-58 -183q-111 31 -172 31q-102 0 -156.5 -71.5t-54.5 -204.5q0 -166 156 -166q66 0 180 30l15 -182q-111 -33 -232 -33q-164 0 -248 82t-84 236z" />
<glyph unicode="&#xaa;" horiz-adv-x="714" d="M94 1065q0 182 91 289.5t259 107.5q121 0 299 -67l-71 -576h-203l12 111q-123 -123 -219 -123q-76 0 -122 73.5t-46 184.5zM307 1090q0 -86 41 -86q59 0 158 122l14 127q-45 27 -92 27q-49 0 -85 -44t-36 -146z" />
<glyph unicode="&#xab;" horiz-adv-x="1169" d="M14 426l37 162l416 375l164 -232l-277 -248l217 -247l-217 -199zM516 426l37 162l416 375l164 -232l-277 -248l217 -247l-217 -199z" />
<glyph unicode="&#xac;" d="M37 592l16 254h1034v-639l-286 -19v404h-764z" />
<glyph unicode="&#xad;" horiz-adv-x="651" d="M27 373l49 254h504l-50 -254h-503z" />
<glyph unicode="&#xae;" horiz-adv-x="870" d="M109 1032q0 184 121.5 305t299.5 121q152 0 241 -89t89 -226q0 -184 -122 -305t-300 -121q-152 0 -240.5 87t-88.5 228zM219 1049q0 -106 61.5 -170t172.5 -64q127 0 213 89t86 224q0 104 -62.5 168t-169.5 64h-2q-127 0 -213 -89t-86 -222zM311 887l47 397h144 q150 0 149 -119q0 -94 -78 -139q8 -41 29 -41l39 10v-96q-51 -18 -82 -18q-76 0 -94 120h-14l-17 3l-12 -117h-111zM446 1102l29 -4q55 0 64 49q0 43 -54 43h-28z" />
<glyph unicode="&#xaf;" horiz-adv-x="866" d="M164 1147l41 207h639l-41 -207h-639z" />
<glyph unicode="&#xb0;" horiz-adv-x="704" d="M104 1108q0 152 99.5 251t245.5 99q123 0 195.5 -70.5t72.5 -187.5q0 -152 -99.5 -251t-242.5 -99q-123 0 -197 70.5t-74 187.5zM305 1135q0 -92 92 -93q53 0 86 36t33 96q0 92 -92 92q-53 0 -86 -36t-33 -95z" />
<glyph unicode="&#xb1;" d="M37 0l16 254h1043l-17 -254h-1042zM37 700l16 254h369v340l287 17v-357h387l-17 -254h-370v-340l-287 -18v358h-385z" />
<glyph unicode="&#xb2;" horiz-adv-x="673" d="M76 942l10 168q209 127 315.5 216t106.5 175q0 82 -117 82q-98 0 -217 -41l-14 166q152 43 278 43q275 0 275 -223q0 -109 -84 -211.5t-269 -206.5h336l-34 -168h-586z" />
<glyph unicode="&#xb3;" horiz-adv-x="673" d="M68 973l55 166q127 -41 227 -41q143 0 144 84q0 39 -52 75h-178l33 164h147q66 49 66 99q0 63 -115 63q-88 0 -219 -41l-16 166q160 43 280 43q276 0 277 -184q0 -143 -148 -219q123 -66 123 -174q0 -115 -92 -179.5t-262 -64.5q-158 0 -270 43z" />
<glyph unicode="&#xb4;" horiz-adv-x="700" d="M158 1114l209 340h325l-286 -340h-248z" />
<glyph unicode="&#xb5;" horiz-adv-x="1157" d="M-20 -430l174 1419l290 19l-82 -672q0 -82 80 -82q100 0 291 223l60 512l290 19l-122 -1008h-287l22 188q-209 -209 -393 -208q-35 0 -59 12l12 -406z" />
<glyph unicode="&#xb6;" horiz-adv-x="1091" d="M72 1118q0 141 89 230.5t230 89.5h701l-9 -174h-116v-1264h-185v1264h-137v-1264h-168v799h-86q-141 0 -230 89t-89 230z" />
<glyph unicode="&#xb7;" horiz-adv-x="512" d="M94 696q0 80 54.5 134.5t132.5 54.5q66 0 107.5 -40t41.5 -104q0 -76 -54 -132t-134 -56q-66 0 -107 41t-41 102z" />
<glyph unicode="&#xb8;" horiz-adv-x="628" d="M-31 -418l49 148q70 -25 127 -25q76 0 76 43q0 41 -51 41q-20 0 -64 -16l-57 112l88 135h195l-82 -104h8q152 0 152 -145q0 -98 -76 -155.5t-203 -57.5q-82 0 -162 24z" />
<glyph unicode="&#xb9;" horiz-adv-x="651" d="M80 942l33 168h182l51 432l-201 -72l23 183l242 86h163l-77 -629h178l-33 -168h-561z" />
<glyph unicode="&#xba;" horiz-adv-x="686" d="M92 1081q0 172 101.5 275.5t257.5 103.5q266 0 266 -278q0 -166 -99.5 -270.5t-259.5 -104.5q-266 0 -266 274zM301 1094q0 -107 82 -107q51 0 87 53.5t36 141.5q0 96 -80 96q-51 0 -87 -52t-38 -132z" />
<glyph unicode="&#xbb;" horiz-adv-x="1169" d="M-8 268l278 248l-219 248l217 199l342 -392l-37 -161l-417 -373zM494 268l278 248l-219 248l217 199l342 -392l-37 -161l-418 -373z" />
<glyph unicode="&#xbc;" horiz-adv-x="1591" d="M41 641l35 168h180l53 432l-203 -72l23 183l242 86h164l-76 -629h176l-33 -168h-561zM242 0l932 1438h225l-930 -1438h-227zM836 150l10 167q98 106 151.5 219t71.5 261h201q-20 -156 -74.5 -262.5t-157.5 -217.5h156l16 144l207 12l-20 -156h104l-33 -167h-92l-18 -150 h-203l19 150h-338z" />
<glyph unicode="&#xbd;" horiz-adv-x="1648" d="M41 641l35 168h180l53 432l-203 -72l23 183l242 86h164l-76 -629h176l-33 -168h-561zM242 0l932 1438h225l-930 -1438h-227zM922 0l10 168q209 127 315.5 216t106.5 175q0 82 -117 82q-98 0 -217 -41l-14 166q156 43 278 43q275 0 275 -223q0 -219 -351 -418h334 l-35 -168h-585z" />
<glyph unicode="&#xbe;" horiz-adv-x="1583" d="M43 672l55 166q131 -41 228 -41q143 0 143 84q0 41 -51 75h-176l30 164h148q66 49 65 99q0 63 -114 63q-88 0 -219 -41l-17 166q160 43 283 43q274 0 274 -184q0 -141 -145 -219q123 -66 123 -175q0 -117 -95.5 -180t-261.5 -63q-158 0 -270 43zM229 0l932 1438h225 l-929 -1438h-228zM829 150l11 167q98 106 151 219t72 261h201q-20 -156 -74.5 -262.5t-157.5 -217.5h156l16 144l207 12l-20 -156h104l-33 -167h-92l-18 -150h-203l18 150h-338z" />
<glyph unicode="&#xbf;" horiz-adv-x="1038" d="M-47 -135q0 156 102.5 283.5t294.5 193.5l29 205l285 16l-37 -362q-160 -27 -253 -94.5t-93 -155.5q0 -125 194 -125q131 0 365 65l18 -282q-274 -70 -455 -70q-215 0 -332.5 84t-117.5 242zM389 829q0 78 56.5 132.5t132.5 54.5q66 0 106.5 -40t40.5 -102 q0 -74 -53 -132t-135 -58q-66 0 -107 41t-41 104z" />
<glyph unicode="&#xc0;" horiz-adv-x="1347" d="M-61 0l604 1430l440 16l262 -1446h-325l-46 274h-491l-111 -274h-333zM418 1839h381l205 -293h-302zM487 559h349l-99 608z" />
<glyph unicode="&#xc1;" horiz-adv-x="1347" d="M-61 0l604 1430l440 16l262 -1446h-325l-46 274h-491l-111 -274h-333zM487 559h349l-99 608zM541 1546l262 293h393l-344 -293h-311z" />
<glyph unicode="&#xc2;" horiz-adv-x="1347" d="M-61 0l604 1430l440 16l262 -1446h-325l-46 274h-491l-111 -274h-333zM375 1546l264 293h348l195 -293h-295l-90 135l-123 -135h-299zM487 559h349l-99 608z" />
<glyph unicode="&#xc3;" horiz-adv-x="1347" d="M-61 0l604 1430l440 16l262 -1446h-325l-46 274h-491l-111 -274h-333zM412 1567q23 123 98.5 196.5t167.5 73.5q57 0 95 -17.5t65 -39t45.5 -39t38.5 -17.5q51 0 74 91l184 -33q-23 -119 -98.5 -195t-167.5 -76q-59 0 -96 17.5t-64 39t-45 40t-39 18.5q-53 0 -76 -90z M487 559h349l-99 608z" />
<glyph unicode="&#xc4;" horiz-adv-x="1347" d="M-61 0l604 1430l440 16l262 -1446h-325l-46 274h-491l-111 -274h-333zM420 1665q0 70 48 116t114 46q57 0 92 -34t35 -87q0 -70 -48 -117t-114 -47q-57 0 -92 35t-35 88zM487 559h349l-99 608zM885 1665q0 70 48 116t114 46q55 0 90 -34t35 -87q0 -70 -48 -117t-114 -47 q-55 0 -90 35t-35 88z" />
<glyph unicode="&#xc5;" horiz-adv-x="1347" d="M-61 0l604 1430l127 4q-117 47 -117 180q0 113 78 186.5t188 73.5q98 0 155.5 -54.5t57.5 -142.5q0 -82 -43 -144.5t-108 -90.5l102 4l262 -1446h-325l-46 274h-491l-111 -274h-333zM487 559h349l-99 608zM715 1630q0 -66 67 -65q41 0 64.5 27.5t23.5 68.5q0 66 -69 65 q-41 0 -63.5 -26.5t-22.5 -69.5z" />
<glyph unicode="&#xc6;" horiz-adv-x="1941" d="M-104 0l946 1438h1124l-51 -285h-615l-36 -293h514l-54 -287h-495l-37 -286h633l-53 -287h-932l32 274h-444l-172 -274h-360zM594 559h313l76 617z" />
<glyph unicode="&#xc7;" horiz-adv-x="1224" d="M90 559q0 291 93 492.5t264 304t405 102.5q209 0 393 -57l-90 -283q-141 39 -194 47.5t-121 8.5q-414 0 -414 -584q0 -182 81 -253t220 -71q127 0 332 53l18 -282q-154 -45 -323 -53l-52 -68h9q152 0 151 -145q0 -98 -75.5 -155.5t-202.5 -57.5q-82 0 -162 24l49 148 q70 -25 127 -25q76 0 76 43q0 41 -51 41q-20 0 -64 -16l-57 112l65 101q-477 55 -477 573z" />
<glyph unicode="&#xc8;" horiz-adv-x="1134" d="M33 0l176 1438h950l-51 -285h-614l-37 -293h514l-53 -287h-496l-37 -286h633l-51 -287h-934zM365 1839h381l205 -293h-302z" />
<glyph unicode="&#xc9;" horiz-adv-x="1134" d="M33 0l176 1438h950l-51 -285h-614l-37 -293h514l-53 -287h-496l-37 -286h633l-51 -287h-934zM442 1546l262 293h393l-344 -293h-311z" />
<glyph unicode="&#xca;" horiz-adv-x="1134" d="M33 0l176 1438h950l-51 -285h-614l-37 -293h514l-53 -287h-496l-37 -286h633l-51 -287h-934zM293 1546l264 293h348l195 -293h-295l-90 135l-123 -135h-299z" />
<glyph unicode="&#xcb;" horiz-adv-x="1134" d="M33 0l176 1438h950l-51 -285h-614l-37 -293h514l-53 -287h-496l-37 -286h633l-51 -287h-934zM338 1665q0 70 48 116t114 46q57 0 92 -34t35 -87q0 -70 -48 -117t-114 -47q-57 0 -92 35t-35 88zM803 1665q0 70 48 116t114 46q55 0 90 -34t35 -87q0 -70 -48 -117t-114 -47 q-55 0 -90 35t-35 88z" />
<glyph unicode="&#xcc;" horiz-adv-x="548" d="M-41 1839h381l205 -293h-302zM33 0l176 1438h319l-176 -1438h-319z" />
<glyph unicode="&#xcd;" horiz-adv-x="548" d="M33 0l176 1438h319l-176 -1438h-319zM221 1546l262 293h393l-344 -293h-311z" />
<glyph unicode="&#xce;" horiz-adv-x="548" d="M-20 1546l264 293h348l195 -293h-295l-90 135l-123 -135h-299zM33 0l176 1438h319l-176 -1438h-319z" />
<glyph unicode="&#xcf;" horiz-adv-x="548" d="M22 1665q0 70 48 116t114 46q57 0 92 -34t35 -87q0 -70 -48 -117t-114 -47q-57 0 -92 35t-35 88zM33 0l176 1438h319l-176 -1438h-319zM487 1665q0 70 48 116t114 46q55 0 90 -34t35 -87q0 -70 -48 -117t-114 -47q-55 0 -90 35t-35 88z" />
<glyph unicode="&#xd0;" horiz-adv-x="1411" d="M-2 616l41 207h94l76 615h539q283 0 433 -140.5t150 -427.5q0 -422 -218 -656t-617 -234q-229 0 -459 57l72 579h-111zM385 281q66 -14 178 -15q203 0 317.5 147.5t114.5 417.5q0 322 -286 322h-215l-41 -330h225l-41 -207h-211z" />
<glyph unicode="&#xd1;" horiz-adv-x="1380" d="M33 0l174 1430l299 16l432 -907l111 899h309l-176 -1430l-297 -16l-432 907l-109 -899h-311zM428 1567q23 123 98.5 196.5t167.5 73.5q57 0 95 -17.5t65 -39t45.5 -39t38.5 -17.5q51 0 74 91l184 -33q-23 -119 -98.5 -195t-167.5 -76q-59 0 -96 17.5t-64 39t-45 40 t-39 18.5q-53 0 -76 -90z" />
<glyph unicode="&#xd2;" horiz-adv-x="1521" d="M86 569q0 412 209 650.5t559 238.5q287 0 436.5 -151.5t149.5 -438.5q0 -412 -209 -650t-559 -238q-287 0 -436.5 151.5t-149.5 437.5zM416 578q0 -312 272 -312q190 0 306 157t116 439q0 311 -272 312q-190 0 -306 -160t-116 -436zM516 1839h381l205 -293h-302z" />
<glyph unicode="&#xd3;" horiz-adv-x="1521" d="M86 569q0 412 209 650.5t559 238.5q287 0 436.5 -151.5t149.5 -438.5q0 -412 -209 -650t-559 -238q-287 0 -436.5 151.5t-149.5 437.5zM416 578q0 -312 272 -312q190 0 306 157t116 439q0 311 -272 312q-190 0 -306 -160t-116 -436zM635 1546l262 293h393l-344 -293h-311 z" />
<glyph unicode="&#xd4;" horiz-adv-x="1521" d="M86 569q0 412 209 650.5t559 238.5q287 0 436.5 -151.5t149.5 -438.5q0 -412 -209 -650t-559 -238q-287 0 -436.5 151.5t-149.5 437.5zM416 578q0 -312 272 -312q190 0 306 157t116 439q0 311 -272 312q-190 0 -306 -160t-116 -436zM465 1546l264 293h348l195 -293h-295 l-90 135l-123 -135h-299z" />
<glyph unicode="&#xd5;" horiz-adv-x="1521" d="M86 569q0 412 209 650.5t559 238.5q287 0 436.5 -151.5t149.5 -438.5q0 -412 -209 -650t-559 -238q-287 0 -436.5 151.5t-149.5 437.5zM416 578q0 -312 272 -312q190 0 306 157t116 439q0 311 -272 312q-190 0 -306 -160t-116 -436zM500 1567q23 123 98.5 196.5 t167.5 73.5q57 0 95 -17.5t65 -39t45.5 -39t38.5 -17.5q51 0 74 91l184 -33q-23 -119 -98.5 -195t-167.5 -76q-59 0 -96 17.5t-64 39t-45 40t-39 18.5q-53 0 -76 -90z" />
<glyph unicode="&#xd6;" horiz-adv-x="1521" d="M86 569q0 412 209 650.5t559 238.5q287 0 436.5 -151.5t149.5 -438.5q0 -412 -209 -650t-559 -238q-287 0 -436.5 151.5t-149.5 437.5zM416 578q0 -312 272 -312q190 0 306 157t116 439q0 311 -272 312q-190 0 -306 -160t-116 -436zM508 1665q0 70 48 116t114 46 q57 0 92 -34t35 -87q0 -70 -48 -117t-114 -47q-57 0 -92 35t-35 88zM973 1665q0 70 48 116t114 46q55 0 90 -34t35 -87q0 -70 -48 -117t-114 -47q-55 0 -90 35t-35 88z" />
<glyph unicode="&#xd7;" d="M49 393l326 326l-326 325l203 181l313 -314l314 314l204 -181l-325 -325l325 -326l-202 -178l-316 313l-313 -313z" />
<glyph unicode="&#xd8;" horiz-adv-x="1521" d="M39 -102l186 243q-139 152 -139 428q0 412 209 650.5t559 238.5q188 0 322 -69l167 221l142 -70l-185 -244q139 -152 140 -428q0 -412 -209 -650t-559 -238q-190 0 -322 67l-166 -219zM416 578q0 -90 22 -154l545 715q-59 35 -145 35q-190 0 -306 -160t-116 -436z M543 299q57 -33 145 -33q190 0 306 157t116 439q0 90 -25 152z" />
<glyph unicode="&#xd9;" horiz-adv-x="1380" d="M84 383l6 88l119 967h319l-116 -932l-4 -53q0 -98 55 -142.5t176 -44.5q135 0 202.5 57.5t82.5 182.5l116 932h318l-119 -967q-29 -240 -191.5 -365.5t-443.5 -125.5q-256 0 -388 103t-132 300zM445 1839h381l205 -293h-302z" />
<glyph unicode="&#xda;" horiz-adv-x="1380" d="M84 383l6 88l119 967h319l-116 -932l-4 -53q0 -98 55 -142.5t176 -44.5q135 0 202.5 57.5t82.5 182.5l116 932h318l-119 -967q-29 -240 -191.5 -365.5t-443.5 -125.5q-256 0 -388 103t-132 300zM563 1546l262 293h393l-344 -293h-311z" />
<glyph unicode="&#xdb;" horiz-adv-x="1380" d="M84 383l6 88l119 967h319l-116 -932l-4 -53q0 -98 55 -142.5t176 -44.5q135 0 202.5 57.5t82.5 182.5l116 932h318l-119 -967q-29 -240 -191.5 -365.5t-443.5 -125.5q-256 0 -388 103t-132 300zM393 1546l264 293h348l195 -293h-295l-90 135l-123 -135h-299z" />
<glyph unicode="&#xdc;" horiz-adv-x="1380" d="M84 383l6 88l119 967h319l-116 -932l-4 -53q0 -98 55 -142.5t176 -44.5q135 0 202.5 57.5t82.5 182.5l116 932h318l-119 -967q-29 -240 -191.5 -365.5t-443.5 -125.5q-256 0 -388 103t-132 300zM436 1665q0 70 48 116t114 46q57 0 92 -34t35 -87q0 -70 -48 -117t-114 -47 q-57 0 -92 35t-35 88zM901 1665q0 70 48 116t114 46q55 0 90 -34t35 -87q0 -70 -48 -117t-114 -47q-55 0 -90 35t-35 88z" />
<glyph unicode="&#xdd;" horiz-adv-x="1320" d="M100 1430l363 16l215 -578l354 578l373 -16l-598 -871l-70 -559h-317l67 559zM535 1546l262 293h393l-344 -293h-311z" />
<glyph unicode="&#xde;" horiz-adv-x="1218" d="M33 0l176 1438h319l-28 -224q98 10 162 11q242 0 380 -113t138 -317q0 -264 -177.5 -423t-465.5 -159q-66 0 -158 10l-27 -223h-319zM414 510q86 -12 133 -12q139 0 218 69.5t79 186.5q0 98 -67.5 142t-174.5 44q-51 0 -137 -12z" />
<glyph unicode="&#xdf;" horiz-adv-x="1236" d="M-18 -424l184 1507q29 238 157 353.5t369 115.5q178 0 276.5 -85t98.5 -226q0 -162 -117 -321l-80 -115q125 -41 188.5 -138.5t63.5 -217.5q0 -193 -132 -331t-328 -138q-137 0 -228 47l70 235q53 -31 119 -31q82 0 141 60.5t59 157.5q0 80 -66.5 144t-170.5 81l-13 127 l160 225q51 80 51 154q0 119 -122 118q-184 0 -209 -215l-185 -1505z" />
<glyph unicode="&#xe0;" horiz-adv-x="1120" d="M33 385q0 297 142 466t400 169q186 0 459 -105l-110 -915h-287l20 188q-205 -209 -358 -208q-121 0 -193.5 112.5t-72.5 292.5zM330 420q0 -166 82 -166q49 0 126.5 59.5t155.5 163.5l29 240q-90 49 -170 49q-104 0 -163.5 -93t-59.5 -253zM348 1454h313l135 -340h-235z " />
<glyph unicode="&#xe1;" horiz-adv-x="1120" d="M33 385q0 297 142 466t400 169q186 0 459 -105l-110 -915h-287l20 188q-205 -209 -358 -208q-121 0 -193.5 112.5t-72.5 292.5zM330 420q0 -166 82 -166q49 0 126.5 59.5t155.5 163.5l29 240q-90 49 -170 49q-104 0 -163.5 -93t-59.5 -253zM432 1114l209 340h325 l-286 -340h-248z" />
<glyph unicode="&#xe2;" horiz-adv-x="1120" d="M33 385q0 297 142 466t400 169q186 0 459 -105l-110 -915h-287l20 188q-205 -209 -358 -208q-121 0 -193.5 112.5t-72.5 292.5zM283 1114l248 340h301l161 -340h-258l-71 176l-117 -176h-264zM330 420q0 -166 82 -166q49 0 126.5 59.5t155.5 163.5l29 240q-90 49 -170 49 q-104 0 -163.5 -93t-59.5 -253z" />
<glyph unicode="&#xe3;" horiz-adv-x="1120" d="M33 385q0 297 142 466t400 169q186 0 459 -105l-110 -915h-287l20 188q-205 -209 -358 -208q-121 0 -193.5 112.5t-72.5 292.5zM270 1163q23 123 98.5 197t167.5 74q55 0 89 -17.5t57.5 -39t39 -39t31.5 -17.5q51 0 76 90l182 -33q-23 -119 -98.5 -194.5t-167.5 -75.5 q-55 0 -90 17.5t-57.5 39t-38 39t-31.5 17.5q-53 0 -76 -91zM330 420q0 -166 82 -166q49 0 126.5 59.5t155.5 163.5l29 240q-90 49 -170 49q-104 0 -163.5 -93t-59.5 -253z" />
<glyph unicode="&#xe4;" horiz-adv-x="1120" d="M33 385q0 297 142 466t400 169q186 0 459 -105l-110 -915h-287l20 188q-205 -209 -358 -208q-121 0 -193.5 112.5t-72.5 292.5zM272 1264q0 68 48.5 113.5t111.5 45.5q57 0 92 -33.5t35 -86.5q0 -70 -47 -117t-113 -47q-57 0 -92 34.5t-35 90.5zM330 420q0 -166 82 -166 q49 0 126.5 59.5t155.5 163.5l29 240q-90 49 -170 49q-104 0 -163.5 -93t-59.5 -253zM737 1264q0 68 47 113.5t113 45.5q55 0 91 -33.5t36 -86.5q0 -70 -47 -117t-115 -47q-57 0 -91 34.5t-34 90.5z" />
<glyph unicode="&#xe5;" horiz-adv-x="1120" d="M33 385q0 297 142 466t400 169q186 0 459 -105l-110 -915h-287l20 188q-205 -209 -358 -208q-121 0 -193.5 112.5t-72.5 292.5zM330 420q0 -166 82 -166q49 0 126.5 59.5t155.5 163.5l29 240q-90 49 -170 49q-104 0 -163.5 -93t-59.5 -253zM405 1266q0 113 78 186.5 t188 73.5q98 0 155.5 -54.5t57.5 -142.5q0 -109 -75.5 -184.5t-192.5 -75.5q-98 0 -154.5 54.5t-56.5 142.5zM567 1282q0 -66 68 -65q41 0 64.5 27.5t23.5 68.5q0 66 -70 65q-41 0 -63.5 -26.5t-22.5 -69.5z" />
<glyph unicode="&#xe6;" horiz-adv-x="1488" d="M-12 217q0 180 133 266t457 115l8 86q0 82 -101 82q-109 0 -356 -70l-10 246q238 78 432 78q98 0 153.5 -33t71.5 -108q129 141 334 141q145 0 235.5 -73t90.5 -189q0 -158 -138.5 -269.5t-439.5 -148.5v-12q0 -104 109 -105q109 0 321 105l41 -232q-229 -117 -389 -116 q-209 0 -307 149q-213 -150 -381 -149q-117 0 -190.5 63t-73.5 174zM262 272q0 -73 84 -73q104 0 223 82l-8 102v25q-170 -14 -234.5 -45t-64.5 -91zM858 539q135 20 214 67t79 113q0 27 -20.5 45t-57.5 18q-74 0 -137.5 -65.5t-77.5 -177.5z" />
<glyph unicode="&#xe7;" horiz-adv-x="915" d="M45 389q0 293 149.5 462t403.5 169q135 0 303 -35l-67 -248q-143 29 -234 29q-262 0 -262 -340q0 -188 137 -188q98 0 299 96l39 -238q-152 -80 -268 -104l-60 -76h9q152 0 151 -145q0 -98 -75.5 -155.5t-202.5 -57.5q-82 0 -162 24l49 148q70 -25 127 -25q76 0 76 43 q0 41 -51 41q-20 0 -64 -16l-57 112l65 101q-145 25 -225 131t-80 272z" />
<glyph unicode="&#xe8;" horiz-adv-x="962" d="M33 389q0 291 150.5 461t400.5 170q145 0 235 -73t90 -189q0 -158 -138 -269.5t-439 -148.5v-12q0 -104 108 -105q109 0 322 105l41 -232q-229 -117 -389 -116q-180 0 -280.5 111.5t-100.5 297.5zM295 1454h313l135 -340h-235zM332 539q135 20 214 67t79 113 q0 27 -20.5 45t-57.5 18q-74 0 -137.5 -65.5t-77.5 -177.5z" />
<glyph unicode="&#xe9;" horiz-adv-x="962" d="M33 389q0 291 150.5 461t400.5 170q145 0 235 -73t90 -189q0 -158 -138 -269.5t-439 -148.5v-12q0 -104 108 -105q109 0 322 105l41 -232q-229 -117 -389 -116q-180 0 -280.5 111.5t-100.5 297.5zM332 539q135 20 214 67t79 113q0 27 -20.5 45t-57.5 18 q-74 0 -137.5 -65.5t-77.5 -177.5zM369 1114l209 340h325l-286 -340h-248z" />
<glyph unicode="&#xea;" horiz-adv-x="962" d="M33 389q0 291 150.5 461t400.5 170q145 0 235 -73t90 -189q0 -158 -138 -269.5t-439 -148.5v-12q0 -104 108 -105q109 0 322 105l41 -232q-229 -117 -389 -116q-180 0 -280.5 111.5t-100.5 297.5zM217 1114l248 340h301l161 -340h-258l-71 176l-117 -176h-264zM332 539 q135 20 214 67t79 113q0 27 -20.5 45t-57.5 18q-74 0 -137.5 -65.5t-77.5 -177.5z" />
<glyph unicode="&#xeb;" horiz-adv-x="962" d="M33 389q0 291 150.5 461t400.5 170q145 0 235 -73t90 -189q0 -158 -138 -269.5t-439 -148.5v-12q0 -104 108 -105q109 0 322 105l41 -232q-229 -117 -389 -116q-180 0 -280.5 111.5t-100.5 297.5zM207 1264q0 68 48.5 113.5t111.5 45.5q57 0 92 -33.5t35 -86.5 q0 -70 -47 -117t-113 -47q-57 0 -92 34.5t-35 90.5zM332 539q135 20 214 67t79 113q0 27 -20.5 45t-57.5 18q-74 0 -137.5 -65.5t-77.5 -177.5zM672 1264q0 68 47 113.5t113 45.5q55 0 91 -33.5t36 -86.5q0 -70 -47 -117t-115 -47q-57 0 -91 34.5t-34 90.5z" />
<glyph unicode="&#xec;" horiz-adv-x="518" d="M11 1454h313l135 -340h-235zM33 0l121 989l290 19l-125 -1008h-286z" />
<glyph unicode="&#xed;" horiz-adv-x="518" d="M33 0l121 989l290 19l-125 -1008h-286zM166 1114l209 340h325l-286 -340h-248z" />
<glyph unicode="&#xee;" horiz-adv-x="518" d="M-43 1114l248 340h301l161 -340h-258l-71 176l-117 -176h-264zM33 0l121 989l290 19l-125 -1008h-286z" />
<glyph unicode="&#xef;" horiz-adv-x="518" d="M-41 1264q0 68 48.5 113.5t111.5 45.5q57 0 92 -33.5t35 -86.5q0 -70 -47 -117t-113 -47q-57 0 -92 34.5t-35 90.5zM33 0l121 989l290 19l-125 -1008h-286zM424 1264q0 68 47 113.5t113 45.5q55 0 91 -33.5t36 -86.5q0 -70 -47 -117t-115 -47q-57 0 -91 34.5t-34 90.5z " />
<glyph unicode="&#xf0;" horiz-adv-x="1105" d="M33 424q0 250 112.5 423t274.5 173q147 0 289 -170q-33 182 -115 334l-295 -109l-29 189l217 79q-90 115 -206 209h354q63 -55 115 -112l282 104l29 -186l-203 -76q154 -266 154 -582q0 -317 -150.5 -518.5t-386.5 -201.5q-205 0 -323.5 118.5t-118.5 325.5zM330 444 q0 -92 42 -150t126 -58q78 0 137 85t78 234q-109 188 -224 188q-68 0 -113.5 -74.5t-45.5 -224.5z" />
<glyph unicode="&#xf1;" horiz-adv-x="1157" d="M33 0l121 989l290 19l-24 -197q213 209 393 209q139 0 187.5 -75t48.5 -179l-5 -76l-83 -690h-287l78 659q0 86 -78 86q-100 0 -291 -225l-64 -520h-286zM281 1163q23 123 98.5 197t167.5 74q55 0 89 -17.5t57.5 -39t39 -39t31.5 -17.5q51 0 76 90l182 -33 q-23 -119 -98.5 -194.5t-167.5 -75.5q-55 0 -90 17.5t-57.5 39t-38 39t-31.5 17.5q-53 0 -76 -91z" />
<glyph unicode="&#xf2;" horiz-adv-x="1079" d="M33 412q0 266 155.5 437t401.5 171q207 0 311.5 -111.5t104.5 -320.5q0 -266 -155.5 -437t-401.5 -171q-205 0 -310.5 111.5t-105.5 320.5zM326 428q-1 -195 153 -195q100 0 166 98.5t66 250.5q0 184 -152 184q-96 0 -164.5 -99.5t-68.5 -238.5zM346 1454h313l135 -340 h-235z" />
<glyph unicode="&#xf3;" horiz-adv-x="1079" d="M33 412q0 266 155.5 437t401.5 171q207 0 311.5 -111.5t104.5 -320.5q0 -266 -155.5 -437t-401.5 -171q-205 0 -310.5 111.5t-105.5 320.5zM326 428q-1 -195 153 -195q100 0 166 98.5t66 250.5q0 184 -152 184q-96 0 -164.5 -99.5t-68.5 -238.5zM416 1114l209 340h325 l-286 -340h-248z" />
<glyph unicode="&#xf4;" horiz-adv-x="1079" d="M33 412q0 266 155.5 437t401.5 171q207 0 311.5 -111.5t104.5 -320.5q0 -266 -155.5 -437t-401.5 -171q-205 0 -310.5 111.5t-105.5 320.5zM264 1114l248 340h301l161 -340h-258l-71 176l-117 -176h-264zM326 428q-1 -195 153 -195q100 0 166 98.5t66 250.5 q0 184 -152 184q-96 0 -164.5 -99.5t-68.5 -238.5z" />
<glyph unicode="&#xf5;" horiz-adv-x="1079" d="M33 412q0 266 155.5 437t401.5 171q207 0 311.5 -111.5t104.5 -320.5q0 -266 -155.5 -437t-401.5 -171q-205 0 -310.5 111.5t-105.5 320.5zM254 1163q23 123 98.5 197t167.5 74q55 0 89 -17.5t57.5 -39t39 -39t31.5 -17.5q51 0 76 90l182 -33q-23 -119 -98.5 -194.5 t-167.5 -75.5q-55 0 -90 17.5t-57.5 39t-38 39t-31.5 17.5q-53 0 -76 -91zM326 428q-1 -195 153 -195q100 0 166 98.5t66 250.5q0 184 -152 184q-96 0 -164.5 -99.5t-68.5 -238.5z" />
<glyph unicode="&#xf6;" horiz-adv-x="1079" d="M33 412q0 266 155.5 437t401.5 171q207 0 311.5 -111.5t104.5 -320.5q0 -266 -155.5 -437t-401.5 -171q-205 0 -310.5 111.5t-105.5 320.5zM252 1264q0 68 48.5 113.5t111.5 45.5q57 0 92 -33.5t35 -86.5q0 -70 -47 -117t-113 -47q-57 0 -92 34.5t-35 90.5zM326 428 q-1 -195 153 -195q100 0 166 98.5t66 250.5q0 184 -152 184q-96 0 -164.5 -99.5t-68.5 -238.5zM717 1264q0 68 47 113.5t113 45.5q55 0 91 -33.5t36 -86.5q0 -70 -47 -117t-115 -47q-57 0 -91 34.5t-34 90.5z" />
<glyph unicode="&#xf7;" d="M37 592l16 254h1043l-17 -254h-1042zM399 274q0 72 47 119t119 47t119 -47t47 -119t-47 -118.5t-119 -46.5t-119 47t-47 118zM399 1165q0 72 47 119t119 47t119 -47t47 -119t-47 -119t-119 -47t-119 47.5t-47 118.5z" />
<glyph unicode="&#xf8;" horiz-adv-x="1079" d="M-12 -102l147 196q-102 113 -102 318q0 266 155.5 437t401.5 171q123 0 213 -43l133 178l113 -53l-148 -195q104 -111 105 -319q0 -266 -155.5 -437t-401.5 -171q-125 0 -213 40l-134 -176zM326 428l6 -74l299 398q-29 14 -72 14q-96 0 -164.5 -99.5t-68.5 -238.5z M406 248q28 -15 73 -15q100 0 166 98.5t66 239.5l-6 74z" />
<glyph unicode="&#xf9;" horiz-adv-x="1157" d="M66 229l6 80l82 680l290 19l-82 -672q0 -82 80 -82q100 0 291 223l60 512l290 19l-122 -1008h-287l22 188q-209 -209 -393 -208q-141 0 -189 73.5t-48 175.5zM373 1454h313l135 -340h-235z" />
<glyph unicode="&#xfa;" horiz-adv-x="1157" d="M66 229l6 80l82 680l290 19l-82 -672q0 -82 80 -82q100 0 291 223l60 512l290 19l-122 -1008h-287l22 188q-209 -209 -393 -208q-141 0 -189 73.5t-48 175.5zM443 1114l209 340h325l-286 -340h-248z" />
<glyph unicode="&#xfb;" horiz-adv-x="1157" d="M66 229l6 80l82 680l290 19l-82 -672q0 -82 80 -82q100 0 291 223l60 512l290 19l-122 -1008h-287l22 188q-209 -209 -393 -208q-141 0 -189 73.5t-48 175.5zM275 1114l248 340h301l161 -340h-258l-71 176l-117 -176h-264z" />
<glyph unicode="&#xfc;" horiz-adv-x="1157" d="M66 229l6 80l82 680l290 19l-82 -672q0 -82 80 -82q100 0 291 223l60 512l290 19l-122 -1008h-287l22 188q-209 -209 -393 -208q-141 0 -189 73.5t-48 175.5zM276 1264q0 68 48.5 113.5t111.5 45.5q57 0 92 -33.5t35 -86.5q0 -70 -47 -117t-113 -47q-57 0 -92 34.5 t-35 90.5zM741 1264q0 68 47 113.5t113 45.5q55 0 91 -33.5t36 -86.5q0 -70 -47 -117t-115 -47q-57 0 -91 34.5t-34 90.5z" />
<glyph unicode="&#xfd;" horiz-adv-x="1044" d="M31 -293q139 129 258 293h-35l-209 989l317 19l113 -703q158 297 262 703l310 -19q-229 -895 -797 -1438zM391 1114l209 340h325l-286 -340h-248z" />
<glyph unicode="&#xfe;" horiz-adv-x="1118" d="M-20 -430l241 1966l289 16l-92 -741q205 209 360 209q119 0 191.5 -113.5t72.5 -292.5q0 -285 -139 -459.5t-366 -174.5q-106 0 -215 40l-54 -434zM354 283q84 -49 170 -50q104 0 164 93.5t60 253.5q0 166 -84 165q-49 0 -126 -59t-155 -166z" />
<glyph unicode="&#xff;" horiz-adv-x="1044" d="M31 -293q139 129 258 293h-35l-209 989l317 19l113 -703q158 297 262 703l310 -19q-229 -895 -797 -1438zM219 1264q0 68 48.5 113.5t111.5 45.5q57 0 92 -33.5t35 -86.5q0 -70 -47 -117t-113 -47q-57 0 -92 34.5t-35 90.5zM684 1264q0 68 47 113.5t113 45.5 q55 0 91 -33.5t36 -86.5q0 -70 -47 -117t-115 -47q-57 0 -91 34.5t-34 90.5z" />
<glyph unicode="&#x152;" horiz-adv-x="2113" d="M86 569q0 412 186.5 650.5t499.5 238.5q264 0 399 -168l19 148h950l-53 -285h-614l-37 -293h514l-54 -287h-495l-37 -286h633l-51 -287h-932l16 137q-174 -158 -422 -157q-252 0 -387 149.5t-135 439.5zM416 578q0 -312 272 -312q190 0 306 157t116 439q0 311 -272 312 q-190 0 -306 -160t-116 -436z" />
<glyph unicode="&#x153;" horiz-adv-x="1634" d="M33 412q0 266 155.5 437t401.5 171q223 0 309 -158q137 158 356 158q145 0 235.5 -73t90.5 -189q0 -158 -138 -269.5t-439 -148.5v-12q0 -104 108 -105q109 0 322 105l41 -232q-229 -117 -390 -116q-197 0 -276 159q-135 -160 -360 -159q-205 0 -310.5 111.5 t-105.5 320.5zM326 428q-1 -195 153 -195q100 0 166 98.5t66 250.5q0 184 -152 184q-96 0 -164.5 -99.5t-68.5 -238.5zM1004 539q135 20 213.5 67t78.5 113q0 27 -20 45t-57 18q-74 0 -137.5 -65.5t-77.5 -177.5z" />
<glyph unicode="&#x178;" horiz-adv-x="1320" d="M100 1430l363 16l215 -578l354 578l373 -16l-598 -871l-70 -559h-317l67 559zM407 1665q0 70 48 116t114 46q57 0 92 -34t35 -87q0 -70 -48 -117t-114 -47q-57 0 -92 35t-35 88zM872 1665q0 70 48 116t114 46q55 0 90 -34t35 -87q0 -70 -48 -117t-114 -47q-55 0 -90 35 t-35 88z" />
<glyph unicode="&#x2c6;" horiz-adv-x="921" d="M158 1114l248 340h301l161 -340h-258l-71 176l-117 -176h-264z" />
<glyph unicode="&#x2dc;" horiz-adv-x="925" d="M166 1163q23 123 98.5 197t167.5 74q55 0 89 -17.5t57.5 -39t39 -39t31.5 -17.5q51 0 76 90l182 -33q-23 -119 -98.5 -194.5t-167.5 -75.5q-55 0 -90 17.5t-57.5 39t-38 39t-31.5 17.5q-53 0 -76 -91z" />
<glyph unicode="&#x2000;" horiz-adv-x="937" />
<glyph unicode="&#x2001;" horiz-adv-x="1874" />
<glyph unicode="&#x2002;" horiz-adv-x="937" />
<glyph unicode="&#x2003;" horiz-adv-x="1874" />
<glyph unicode="&#x2004;" horiz-adv-x="624" />
<glyph unicode="&#x2005;" horiz-adv-x="468" />
<glyph unicode="&#x2006;" horiz-adv-x="312" />
<glyph unicode="&#x2007;" horiz-adv-x="312" />
<glyph unicode="&#x2008;" horiz-adv-x="234" />
<glyph unicode="&#x2009;" horiz-adv-x="374" />
<glyph unicode="&#x200a;" horiz-adv-x="104" />
<glyph unicode="&#x2010;" horiz-adv-x="651" d="M27 373l49 254h504l-50 -254h-503z" />
<glyph unicode="&#x2011;" horiz-adv-x="651" d="M27 373l49 254h504l-50 -254h-503z" />
<glyph unicode="&#x2012;" horiz-adv-x="651" d="M27 373l49 254h504l-50 -254h-503z" />
<glyph unicode="&#x2013;" horiz-adv-x="1140" d="M6 373l49 254h1035l-50 -254h-1034z" />
<glyph unicode="&#x2014;" horiz-adv-x="2158" d="M6 373l49 254h2032l-49 -254h-2032z" />
<glyph unicode="&#x2018;" horiz-adv-x="491" d="M156 1255q0 111 37.5 230t132.5 284l233 -24q-129 -231 -129 -412q0 -90 27 -207l-285 -24q-16 80 -16 153z" />
<glyph unicode="&#x2019;" horiz-adv-x="491" d="M133 1126q129 231 129 412q0 90 -26 207l282 24q16 -80 17 -153q0 -111 -38 -229.5t-132 -284.5z" />
<glyph unicode="&#x201a;" horiz-adv-x="491" d="M-45 -317q68 115 98.5 210t30.5 201q0 90 -25 207l281 25q18 -76 18 -150q0 -109 -37.5 -227.5t-134.5 -290.5z" />
<glyph unicode="&#x201c;" horiz-adv-x="917" d="M156 1255q0 111 37.5 230t132.5 284l233 -24q-129 -231 -129 -412q0 -90 27 -207l-285 -24q-16 80 -16 153zM580 1251q0 109 37.5 227.5t134.5 290.5l231 -24q-68 -121 -97.5 -216t-29.5 -194q0 -88 25 -209l-283 -24q-18 76 -18 149z" />
<glyph unicode="&#x201d;" horiz-adv-x="917" d="M133 1126q129 231 129 412q0 90 -26 207l282 24q16 -80 17 -153q0 -111 -38 -229.5t-132 -284.5zM557 1126q68 115 98.5 210.5t30.5 199.5q0 92 -27 209l283 24q18 -76 19 -149q0 -109 -38 -227.5t-135 -290.5z" />
<glyph unicode="&#x201e;" horiz-adv-x="917" d="M-45 -317q68 115 98.5 210t30.5 201q0 90 -25 207l281 25q18 -76 18 -150q0 -109 -37.5 -227.5t-134.5 -290.5zM379 -317q68 115 98.5 210t30.5 201q0 90 -25 207l283 25q18 -76 18 -150q0 -109 -37.5 -227.5t-134.5 -290.5z" />
<glyph unicode="&#x2022;" horiz-adv-x="768" d="M66 684q0 156 101 255t251 99q133 0 212 -77.5t79 -206.5q0 -156 -101.5 -255.5t-249.5 -99.5q-133 0 -212.5 79t-79.5 206z" />
<glyph unicode="&#x2026;" horiz-adv-x="1957" d="M25 125q0 80 54 134t132 54q66 0 106.5 -40t40.5 -103q0 -76 -54 -132t-134 -56q-66 0 -105.5 40.5t-39.5 102.5zM748 125q0 80 54 134t132 54q66 0 106.5 -40t40.5 -103q0 -76 -54 -132t-134 -56q-66 0 -105.5 40.5t-39.5 102.5zM1470 125q0 80 54.5 134t132.5 54 q66 0 107.5 -40t41.5 -103q0 -76 -54 -132t-134 -56q-66 0 -107 40.5t-41 102.5z" />
<glyph unicode="&#x202f;" horiz-adv-x="374" />
<glyph unicode="&#x2039;" horiz-adv-x="667" d="M14 426l37 162l416 375l164 -232l-277 -248l217 -247l-217 -199z" />
<glyph unicode="&#x203a;" horiz-adv-x="667" d="M-8 268l278 248l-219 248l217 199l342 -392l-37 -161l-417 -373z" />
<glyph unicode="&#x205f;" horiz-adv-x="468" />
<glyph unicode="&#x20ac;" horiz-adv-x="1224" d="M-27 434l45 223h138q2 63 12 123h-152l45 224h160q80 217 249 335.5t404 118.5q195 0 371 -57l-86 -283q-125 37 -175 45t-112 8q-205 0 -301 -167h457l-45 -224h-483q-10 -59 -13 -123h416l-43 -223h-358q29 -96 94.5 -132t163.5 -36q119 0 301 51l16 -280 q-188 -57 -385 -57q-240 0 -375 116.5t-159 337.5h-185z" />
<glyph unicode="&#x2122;" horiz-adv-x="1222" d="M80 1307l24 131h463l-24 -131h-154l-47 -400h-149l49 400h-162zM549 907l63 527l193 8l92 -357l178 357l191 -8l-64 -527h-143l35 295l-142 -293l-151 -6l-76 299l-35 -295h-141z" />
<glyph unicode="&#x25fc;" horiz-adv-x="1003" d="M0 0v1004h1004v-1004h-1004z" />
<glyph unicode="&#xfb03;" horiz-adv-x="1908" d="M-240 -410l54 242q78 -20 143 -20q72 0 102.5 42t40.5 123l93 768h-156l49 254h139l19 162q49 391 393 391q86 0 229 -32l-51 -242q-74 20 -145 20q-72 0 -101.5 -42t-40.5 -123l-16 -134h373l20 162q20 197 116.5 294t258.5 97q82 0 217 -32l-51 -242q-70 20 -129 20 q-63 0 -91 -42t-38 -123l-17 -134h662l-123 -999h-287l90 745h-372l-97 -796q-27 -205 -127 -298t-264 -93q-88 0 -231 32l51 242q82 -20 145 -20q72 0 103 42t41 123l92 768h-375l-96 -796q-27 -205 -125 -298t-266 -93q-88 0 -232 32zM1559 1260q0 74 53 130t131 56 q66 0 105.5 -39t39.5 -100q0 -80 -53 -134.5t-131 -54.5q-66 0 -105.5 39t-39.5 103z" />
<glyph unicode="&#xfb04;" horiz-adv-x="2015" d="M-240 -410l54 242q78 -20 143 -20q72 0 102.5 42t40.5 123l93 768h-156l49 254h139l19 162q49 391 393 391q86 0 229 -32l-51 -242q-74 20 -145 20q-72 0 -101.5 -42t-40.5 -123l-16 -134h373l20 162q27 205 145.5 298t376.5 93q168 0 469 -34l-151 -1223q0 -55 65 -55 q47 0 129 20l-6 -242q-160 -39 -260 -38q-106 0 -164.5 59t-58.5 158l4 57l127 1032q-111 12 -178 12q-111 0 -158 -40.5t-57 -133.5l-17 -125h234l-49 -254h-215l-97 -796q-27 -205 -125 -298t-266 -93q-88 0 -231 32l51 242q82 -20 145 -20q72 0 103 42t41 123l92 768 h-375l-96 -796q-27 -205 -125 -298t-266 -93q-88 0 -232 32z" />
</font>
</defs>
</svg>
